<svg xmlns="http://www.w3.org/2000/svg" fill="none" viewBox="0 0 512 512">
    <g clip-path="url(#a)">
        <path fill="#fff" d="M262 2c67 0 132 14 194 42 13 51 21 106 21 141v2a348 348 0 0 1-58 192 401 401 0 0 1-157 131 405 405 0 0 1-158-131 335 335 0 0 1-58-192v-2c0-35 8-89 21-141C129 16 194 2 262 2Z"/>
        <path fill="#DA140A" d="M262 202c15 0 29 4 41 11h125a614 614 0 0 0-23-176c-44-15-92-23-143-23"/>
        <path fill="#EE120B" d="M262 14c-51 0-97 7-144 23-12 46-21 108-23 138a344 344 0 0 0 30 165l27-18c10-7 19-16 26-25l-1-11 1-14-35 1c-9 0-17-7-21-17h-5c-3 0-9-3-9-14 0-10 6-12 9-12h5c4-10 12-17 21-17h78c12-7 26-11 41-11"/>
        <path fill="#163A76" d="M185 437a341 341 0 0 1-99-269c2-32 11-82 22-128L77 52C66 97 58 154 58 185a344 344 0 0 0 56 187c18 27 40 51 66 72 24 20 52 38 82 53-29-18-55-38-77-60Zm153 0a340 340 0 0 0 99-269c-2-32-11-83-21-128l30 12c11 45 19 102 19 133a330 330 0 0 1-122 259c-24 20-52 38-81 53 28-18 54-38 76-60Z"/>
        <path fill="#8D6E26" d="M262 207a80 80 0 1 0-1 160 80 80 0 0 0 1-160Z"/>
        <path fill="#EE120B" d="M262 371c-28 0-52-13-67-33-19 11-39 19-58 26a403 403 0 0 0 125 129"/>
        <path fill="#8D6E26" d="M143 269c-8 0-16-7-19-17h-7c-2 0-5-2-5-9s3-9 5-9h7c3-10 11-17 19-17h71a84 84 0 0 0-35 51l-36 1Z"/>
        <path fill="#8D6E26" d="M458 42a480 480 0 0 0-393 0C52 98 44 152 44 185a335 335 0 0 0 127 269c25 22 60 45 91 58a404 404 0 0 0 159-132 335 335 0 0 0 58-195c0-33-7-87-21-143Zm-49 330a361 361 0 0 1-147 124 404 404 0 0 1-148-124l-4-6c26-5 55-16 82-31-7-10-11-21-14-33-6 9-14 17-23 24-15 11-33 22-52 28a319 319 0 0 1-45-169c0-31 8-88 19-133a456 456 0 0 1 369 0 672 672 0 0 1 18 165H309c19 14 33 34 36 58l30-7c6-1 9-6 10-10l74-5-8 32c-10 31-24 60-42 87Z"/>
        <path fill="#fff" d="M267 309v43c20-1 38-12 49-28l-38-21c-3 3-7 5-11 6Zm-11-88c-20 2-38 13-48 29l37 21c3-3 7-5 11-6m6 10c-7 0-12 5-12 11 0 7 5 13 12 13 6 0 11-6 11-13 0-6-5-11-11-11Zm5-54v44c4 1 8 3 11 6l38-21a67 67 0 0 0-49-29Zm-11 88a23 23 0 0 1-11-6l-37 21 2 4c11 14 28 23 46 24m27-59 38 22c7-15 9-37 0-56l-37 21c1 4 1 9-1 13Z"/>
        <path fill="#8D6E26" d="m214 248 30 18 8-5v-35c-15 3-29 10-38 22Zm57-22v36l8 4 30-18a61 61 0 0 0-38-22Zm52 54-4-15-31 17 1 4v2l27-6 7-2Z"/>
        <path fill="#DA140A" d="M262 492a405 405 0 0 0 127-133c15-29 27-60 33-92l1-7-35 2c-2 5-6 9-12 10l-30 8v6c0 48-38 85-84 85"/>
        <path fill="#8D6E26" d="M269 287c0-4-3-8-7-8-5 0-8 4-8 8s3 7 8 7c4 0 7-3 7-7Z"/>
        <path fill="#D40026" d="M271 348c15-3 29-11 38-22l-30-18-8 4v36"/>
        <path fill="#FE000C" d="m214 326 30-18 8 4v36c-15-3-29-11-38-22Z"/>
        <path fill="#D40026" d="M323 287v-2l-7 1-26 6 29 17c3-7 4-14 4-22Z"/>
        <path fill="#fff" d="M202 259c-8 18-8 39 0 56l38-22c-2-4-2-8 0-13"/>
        <path fill="#8D6E26" d="m204 309 31-18v-9l-31-17c-5 14-5 30 0 44Zm88-160-1 9h25c-2-6-2-15-2-22l-1-14 1-3 3-1c1-1 3-1 3 3l1 15-1 22h24l-1-8c3 6 9 10 17 10 6 0 9-2 12-4l2 2h43c-2-6-3-15-3-22l-7-49-22-4 4 22 3 32 1 18v-2l-4-16v-10c-2-17-10-23-30-23-3 0-11 0-16 2l2 18 5-4c4-2 7-3 11-3 3 0 5 1 6 3-4 0-8 1-12 4-7 3-12 7-13 12l-1-17c0-11-7-17-18-17-4 0-9 1-12 4l-1-2-1-2-19-1 2 17c-1-5-4-10-9-14a28 28 0 0 0-34 3c-5 6-8 12-8 21l-7-6-9-4h-1l-2-2c0-1 2-2 5-2 4 0 9 2 13 5l1-16c-3-2-8-3-14-3-4 0-10 1-15 4l-4 3v-5c-5-1-11-1-18 6l-1-4-21 1c2 6 2 14 2 22l-1 8v1l-1 12-5-19-10-47-30 5 1 3c0 2 0 6-3 15-5 13-11 34-18 48l-2 5h23l3-14h15l2 11 1 3h46v-23c0-6 1-11 4-13 2-3 5-3 6-3 0 9 6 13 11 15l9 5 3 3c0 2-2 2-5 2-5 0-11-3-18-11l-1 21c6 3 13 5 19 5 11 0 22-5 25-15 6 10 16 15 26 15 9 0 16-4 22-10Zm-159-20 4-12 2 11-6 1Zm130-6c0-7 2-10 5-10 1 0 2 0 3 3l1 3c0 2-1 2-2 2v1l-7 3v-2Zm24 15c-5 4-8 6-13 6-4 0-7-3-8-6l26-10v17l-5-7Zm79 6c-4 0-5-2-5-4s1-5 7-7l1 4v7h-3Z"/>
        <path fill="#fff" d="m237 105-10-1c-4 0-9 1-13 3-5 3-9 7-9 11 0 7 3 10 9 13l9 5c3 1 5 3 5 6 0 4-3 6-9 6-4 0-11-3-15-7v11c4 2 10 3 15 3 10 0 22-5 23-16 0-8-6-11-10-13l-9-4c-1-1-5-2-5-6 1-4 5-5 9-5l10 2m-87-27-23 4c1 3 0 9-2 16l-19 49h14c1-5 2-9 5-14l20-1 3 15h19c-3-6-6-17-7-25l-10-44Zm-23 46 11-29 6 29m60-27v10c-4 0-8 1-12 4-2 3-4 8-5 16v20h-16l2-20v-27h14v9c7-10 12-12 17-12Zm200-15-14-3 3 18 3 31 1 19h16c-2-6-2-12-3-19m-71 19-1-19-1-17c0-9-5-13-14-13-4 0-10 1-15 7l-1-7-13-1 2 19v12l-1 19h16l-1-19v-14c-1-5 3-9 7-9s7 4 7 8v33m65 1c-2-5-3-11-3-18l-1-10c-1-12-6-20-26-20l-12 1 1 10c4-3 8-5 13-5s10 3 10 10l-15 4c-6 3-12 8-11 16 0 9 7 12 15 12 7 0 12-2 14-5l2 5h13Zm-23-7c-5 0-8-2-9-8 0-5 4-10 15-11v8l1 8c-2 2-4 3-7 3Zm-85-41c-4-3-8-4-12-4-11 0-25 7-24 27 0 19 15 25 25 25 9 0 15-3 19-8l-3-4c-2 1-6 5-12 5-7-1-11-5-13-12l29-11c-1-9-5-15-9-18Zm-10 18-12 5v-7c0-11 6-13 8-13 4-1 7 1 8 5s1 9-4 10Z"/>
    </g>
    <defs>
        <clipPath id="a">
            <path fill="#fff" d="M0 0h435v512H0z" transform="translate(44)"/>
        </clipPath>
    </defs>
</svg>
