<svg xmlns="http://www.w3.org/2000/svg" fill="none" viewBox="0 0 512 512">
    <g clip-path="url(#a)">
        <path fill="#94BEE5" d="M94 47v330c0 46 60 63 108 76l28 8a86 86 0 0 1 26 15 75 75 0 0 1 26-15l29-8c48-13 107-30 107-76V47c-13-4-74-21-162-21S107 43 94 47Z"/>
        <path fill="#F0F0F0" d="m256 497-7-8-8-6c-7-5-15-7-15-7l-28-8c-25-7-54-15-76-28-13-7-23-15-30-25-9-11-13-24-13-38V36l8-2c3-1 68-23 169-23 102 0 167 22 170 23l7 2v341c0 14-4 27-12 38-7 9-17 17-30 25-23 13-51 20-76 27l-28 9s-8 2-15 7l-8 6-8 8ZM87 42v335c0 12 4 24 11 33 6 9 15 16 27 23 22 13 50 20 75 27l28 8c0 1 9 3 17 8l9 8 2 2 3-2 9-8 16-8 29-8c25-7 52-15 74-27 12-7 21-14 28-23s11-21 11-33V42l-3-1c-2-1-66-22-167-22C156 19 92 40 89 41l-2 1Z"/>
        <path fill="#480024" d="m256 486-2-2-9-7c-8-6-17-8-17-8l-28-9c-25-7-53-14-75-27-26-14-38-33-38-56V42l2-1a668 668 0 0 1 334 0l3 1v335c0 23-13 42-39 56-22 13-49 20-74 27a632 632 0 0 0-45 16l-9 8-3 2ZM94 47v330c0 46 60 63 108 76l28 8a86 86 0 0 1 26 15 75 75 0 0 1 26-15l29-8c48-13 107-30 107-76V47c-13-4-74-21-162-21S107 43 94 47Z"/>
        <path fill="#fff" d="m138 81 10-6 10 6-2-12 8-8-11-1-5-11-5 11-11 1 8 8-2 12Z"/>
        <path fill="#7DA3C9" d="M202 164c4 0 7-3 9-6h-2l-7 6Zm18 45c-14 0-33 7-40 14-6 7-1 15-8 21l-1 7 5-4s0 4 4 5c1 4 4 7 5 7 0 0-1-5 1-9l2-3v-5l1 1c1-4 0-9 4-13 7-6 20-12 33-14l-6-7Zm12-89-13 10c-1 1 1 4 1 4h-3c1 3 4 6 7 8l9-6 2-3c2-2 3-4 3-7 0-4-2-7-6-6Zm-66 137c1 0 0-4 2-6h2l-3-6c-3 0-4-2-4-3l1 5c-3 4 1 10 2 10Zm47-139c5-2 7-7 7-11 0-2-2-3-4-3l-9 1-1 5c0 3 4 6 7 8Zm39 158c0-13 8-18 8-26a14 14 0 0 0-2-6c3 8-3 10-8 23-5 1-11 6-11 15s7 15 13 15h2a16 16 0 0 1-1-15l-1-6Zm-61-98 5 10 3-2-8-8Zm84 122c1 1 2 3 2 7l-2 6v1c2 0 7 0 12-8 7 3 5 9 5 10v1c9-1 12-13 12-13h1v-1c0-3-7-6-14-5 0 0-3 12-12 13l-1-1c1-1 3-7-3-10Zm-13 13c-7 0-10-3-10-5 7 3 11 1 13-1l-3 1v-1l2-4c-4 0-7-3-10-6 0 2-4 10-16 5 1 2 4 5 10 5h1c-2 4-6 5-8 5-4 0-8-3-13-3-8 0-12 11-27 11 2-2 2-7-3-7-9 0-17 12-30 12l-1 2 2 9c1 0 1-6 4-8a12 12 0 0 0 8 3c13 0 21-12 30-12 6 0 6 5 4 7 14 0 18-10 27-10l12 2c3 0 6-1 8-5Zm99-26c-4 4-11 3-11 3 3-3 6-11 2-18-3 7-9 10-14 11l-1 1s7 0 11-3c0 11-15 18-15 18 2 2 6 2 8 1 0 2-3 4-5 6-18 18-14 30-23 30 0-1 0-4-3-4-6 0-11 11-18 18-4 4-10 7-17 7l-6-2-1 1c2 3 5 4 8 4v8c1 1 3-4 6-6l7 2c6 0 12-3 17-8 7-7 11-18 17-18 4 0 3 4 3 4 9 0 5-12 23-29 2-3 5-4 5-7h-7s14-8 14-18v-1ZM143 164c1 3 3 7 8 7l4-1h2c6 0 7-7 15-7-5-4-10-6-14-6-7 0-9 7-15 7Zm9-51c0 15 7 21 8 22v1l11 2c-2-3-6-9-6-18 0-3-1-5-4-5-1-2-4-6-9-6h-3c2 1 3 2 3 4Zm243 25-2 1s12-12 12-31c0-9-2-12-2-12-1 0-1 5-5 9-2 2-5 2-7 3-2 15-12 24-12 24h3c4 0 7 3 7 4-1 0-6-1-12 5 0 0-7 8-18 8s-21-6-21-6c-4 4-8 10-8 16s2 11 6 17l12 15c9 9 19 19 19 33 0 7-2 13-6 18l-9 6c-3 2-7 2-11 2-6 0-11-1-16-3l4 2c7 4 15 8 26 8 4 0 7-1 11-3 3-1 6-3 8-6 4-5 6-11 6-18 0-14-9-23-18-33-5-5-10-10-13-15-4-5-5-11-5-16 0-6 3-12 7-16 0 0 10 5 22 5 11 0 18-8 18-8 5-5 10-4 11-5s-2-4-7-4ZM285 53c-2-1-5-2-12-2l-6 1c7-1 13-1 18 1Zm38 224c-3-3-4-7-4-11 0-8 3-12 4-20l-8-3-5-3c-2 8-4 11-4 20 0 10 7 17 16 17h1Z"/>
        <path fill="#7DA3C9" d="m317 78 1 1-7 4h-2c7 7 6 25 14 26l-6 2c-3 0-5-2-5-2l1 6-1 10c0 5 4 8 5 8v1h-3c-2 0-7-1-9-4 0 1 3 4 3 10l-2 16c0 4 3 7 4 8l-3 1c-1 0-7-1-10-4 2 7-2 12-2 21 0 17 13 28 15 47l10 5 3 1c-2-18-15-30-15-47 0-9 4-14 3-21 3 3 8 4 10 4h1l-1-4-2-5 1-8 1-2v-6c0-5-3-9-3-9l8 4 3-3c-2-1-4-4-4-7 0-5 2-6 2-9 0-4-2-7-2-7s2 2 5 2l6-2c1 0 0 0 0 0-8-1-7-19-14-26h2l7-4h-1c-12-1-17-23-37-27 10 8 16 20 24 20Z"/>
        <path fill="#480024" d="m138 412-6-4 3-1 1-5 1-2-9-5-1 1-4 3v3l-5-3-4-3 9-5 14-10 1-2c1 0 0 0 0 0l11 7-1 2a420 420 0 0 0-5 27l-5-3Zm3-26 1-3-2 2-8 7 6 4 3-10Zm12 34-8-5 2-3 2-3c0 2 1 5 6 7 2 2 5 2 6 0s0-3-2-5l-2-3c-3-4-4-7-2-11s7-5 13-2c5 2 7 5 7 5l-1 2-2 4c0-3-2-5-5-7-2-1-4-1-5 1a5698 5698 0 0 0 4 8c3 3 5 6 3 10-3 6-9 6-16 2Zm47-7-2-1-4-2-2-1-3 10c-4 11-4 11-3 13v1l-6-2a254 254 0 0 1-5-2c2-1 2-2 6-13l4-9-3-1-5-1-1 1 1-4 1-2 23 8-1 2v3Zm11 27c-11-2-15-9-13-18 3-7 8-13 18-11 10 1 14 7 13 16-1 8-7 15-18 13Zm5-25c-5-1-7 2-9 9s0 11 4 12c5 1 8-2 9-10 1-7 0-10-4-11Zm45 1v28h-10a271 271 0 0 1-11-23l-1 8 1 13v1h-5a172 172 0 0 0-4-1c1-2 2-2 3-14v-14h5l5 1 10 19 1 3v-8l-1-13v-1h8l-1 1Zm39 4-3 20-6 1-6 1a434 434 0 0 1-13-28h6l6-1c-1 1-2 1-1 3l2 6 6 13 1 3v-3l2-14v-7l-1-2 5-1 4-1-2 10Zm15 16-5 2v-1c1-2 1-2-2-14l-4-13h-1l5-1 5-2v1l3 14c3 11 3 11 5 12v1l-6 1Zm31-11v1c-6 3-11 5-17 6l-3 1c0-2 1-2-3-14-3-11-4-11-5-12l-1-1 6-2 4-1v1l3 11 4 11 3-1c6-2 6-3 7-6l2 6Zm22-11 1 1a223 223 0 0 1-20 10l1-1-5-13c-4-11-5-11-6-12l-1-1 5-2 5-2v1c0 2 0 3 4 11l5 11 3-1c6-3 6-5 6-7l2 5Zm26-14-5 4v-3l-5-4-1-1-8 5v2l2 5 2 2-4 2-5 3c1-2 0-5-1-11l-3-17-1-1-1-1 11-7 1 1 1 1a366 366 0 0 0 23 16l-6 4Zm-22-14-2-2 1 3 3 10 6-4-8-7Z"/>
        <path fill="#fff" d="M225 386v-3c3 0 4-1 4-3h4v18h-4v-13l-4 1Zm17 11-2-1-1-3c0-2 1-4 3-5-2-1-3-2-3-4l1-3 3-1 3-1 3 1 3 1v3c0 2 0 3-2 4 2 1 3 3 3 5l-1 3-2 1-4 1-4-1Zm1-3 3 1 2-1 1-2-1-2-2-1-3 1v4Zm1-8 2 1 2-1 1-2-1-1-2-1-2 1-1 1 1 2Zm17 6 3-5c0-2 1-3 3-4h-9v-3h13v3c-2 1-4 3-5 6l-2 9h-4l1-6Zm21 2h-9v-4l9-10h4v11h2v3h-2v4h-4v-4Zm0-3v-7l-6 7h6Z"/>
        <path fill="#7496BD" d="m221 83-3 6-3 1c-3 0-4-2-4-4s2-4 9-4h2l-1 1Z"/>
        <path fill="#FFE505" d="M382 132h-3s13-12 13-31c0-8-2-12-3-12 0 0 0 5-4 9-3 3-8 4-10 6 2-5 0-12 0-12s0 4-5 8c-3 3-10 5-15 11 2-6 0-11-1-11 0 0 0 3-3 6s-9 5-13 9c-6 6-5 15-5 19v1l-3 2c-6 6-10 13-10 22 0 17 11 29 21 39l11 13c3 5 4 9 4 13s-1 8-3 11c-3 4-7 5-12 5-8 0-14-3-21-6l-10-5c-2-18-15-30-15-47 0-9 4-14 2-21 3 3 9 4 10 4l3-1c-1-1-4-3-4-8l2-16c0-6-3-9-3-10 2 3 7 5 9 5l3-1v-1c-1 0-5-3-5-8l1-9-1-7s2 2 5 2l6-2c-8-1-7-19-14-26h2l7-4h-1c-14-1-19-33-52-27l6-5c-1-1-4-2-12-2-7 0-14 4-18 9 2-4 0-8-2-10h-1l-2 4c-6 6-16 9-16 22l-9 5c-4 3-7 8-7 10a96 96 0 0 0-15 13l1 3h1l3-2-2 5c0 4 10 10 11 10v-7c3-2 10-2 13-2l4 2c0 5-3 12-10 12-4 0-5-3-6-2l1 6-1 3c0 6 9 13 10 12s-2-7 0-7c0 0 3 3 6 3 0 0-2-3-1-4l13-10c4-1 7 2 7 6 0 9-10 11-18 19s-9 19-19 19c-2 0 7-3 10-11-26 0-31-14-51-17l-1-1c-1-1-8-7-8-21 0-3-2-5-5-5-1-3-3-7-8-7s-6 3-6 3 2-1 5 2l2 4-1 3-5 2-6-1c-7 0-8 6-8 6 1 1 2-1 4-1l6 3 2 5s-4 1-4 5h-1c-9 3-7 10-7 10s1-3 5-3l4 1c1 3 4 4 7 4l5-1c2 0 3 2 3 5 0 4-4 3-6 5l-1 4h-2c-3 0-5-2-5-2-1 1 1 9 7 9l5-1h1c6 0 8-7 15-7 8 0 22 10 24 23 4-3 4-7 4-7l13 13-31 24-4 1c-4 0-5-7-12-7l-3 1-2-1c-8 0-10 11-9 11s1-3 5-3h1c0 2 1 4 3 5 0 0-3 1-4 4-9 0-9 11-8 11 0 0 1-5 6-5l2 1c1 4 3 6 7 6v6c-2 5 2 11 3 11l1-6h1c5 0 7-4 7-4s1 4 5 4l4 8 1-9c6-6 2-14 8-21 7-7 25-13 40-14 6 6 13 15 17 17l-1 1c-9 9-26 1-35 10-4 4-4 7-9 7l-4-2c-1 1-1 5 2 8s7 2 8 2c-3 3-8 3-11 1h-1c3 10 13 8 13 8 2 10 12 14 12 21l-2 6c-4 4-13 7-22 7-15 0-15-11-23-11h-3c-2-1-4-3-7-3-5 0-8 6-8 7 1 0 2-2 5-2l3 3-2 1h-3c-9 0-9 11-8 11s2-4 6-4l-1 6v1c-2 1-4 4-4 6 0 4 1 6 2 6 0 0 1-4 4-6l7 5-1 6 2 8c1 0 1-5 3-7a12 12 0 0 0 9 3c13 0 21-12 30-12 5 0 5 5 3 7 15 0 19-11 27-11 5 0 9 3 13 3 2 0 6-1 7-5-6 0-9-3-10-5 12 5 16-3 16-5h-2c-7 0-14-6-14-15s6-13 12-15c4-12 11-15 8-23l2 6c0 9-8 13-8 26 0 15 12 15 12 25l-2 7c1 0 7 0 12-8 7 3 5 9 4 11h1c8 0 11-13 11-13 8 0 15 2 15 6 0 8-16 24-28 24-5 0-6-4-10-4-3 0-4 1-5 3l-4-1c-4 0-7 2-8 6-6 2-7 10-6 10 0 1 3-3 7-3l2 3-3 2c-5 5-3 11-3 11 1 1 2-2 3-3l5-2c1 3 5 4 7 4l1 8 6-6 6 2c7 0 13-3 17-8 7-7 12-18 18-18 3 0 3 4 3 4 9 0 5-12 23-29 2-3 5-5 5-7h-8s15-8 15-18c0 0 0-1 0 0-4 3-11 2-11 2 3-3 6-11 2-18-4 8-10 11-17 11-9 0-16-7-16-17 0-8 3-12 4-20l6 3c7 4 14 8 25 8 4 0 8-1 11-3 4-1 6-3 9-6 4-5 6-11 6-18 0-13-9-23-19-33-4-5-9-9-12-15-4-5-6-11-6-16 0-6 4-12 8-16 0 0 10 5 21 5 12 0 18-8 18-8 6-5 11-4 12-5 0-1-3-4-7-4ZM221 83l-3 6-3 1c-3 0-4-2-4-4s2-4 9-4h2l-1 1Z"/>
        <path fill="#480024" d="M429 23c-3-1-69-23-173-23C153 0 86 22 83 23l-15 5v349c0 17 5 32 15 45 8 10 19 19 33 28 24 13 53 21 79 28l27 8 12 6 7 6 15 14 16-14 6-6 12-6 28-8c25-7 55-15 78-28 15-9 26-18 34-28 9-13 14-28 14-45V28l-15-5Zm4 354c0 14-4 27-12 38-7 9-17 17-30 25-23 13-51 20-76 27l-28 9s-8 2-15 7l-8 6-8 7-7-7-9-6c-6-5-14-7-14-7l-28-9c-25-7-54-14-76-27-13-8-23-16-30-25-9-11-13-24-13-38V36l8-2c3-1 68-23 169-23 102 0 167 22 170 23l7 2v341Z"/>
    </g>
    <defs>
        <clipPath id="a">
            <path fill="#fff" d="M0 0h376v512H0z" transform="translate(68)"/>
        </clipPath>
    </defs>
</svg>
