<svg xmlns="http://www.w3.org/2000/svg" fill="none" viewBox="0 0 512 512">
    <g clip-path="url(#a)">
        <g clip-path="url(#b)">
            <mask id="c" width="356" height="441" x="87" y="56" maskUnits="userSpaceOnUse" style="mask-type:luminance">
                <path fill="#fff" d="M88 57v128a421 421 0 0 0 178 312s165-113 177-312V57H88Z"/>
            </mask>
            <g mask="url(#c)">
                <path fill="url(#d)" d="M397 616-60 440 134-62l456 176-193 502Z"/>
            </g>
            <mask id="e" width="391" height="513" x="70" y="-2" maskUnits="userSpaceOnUse" style="mask-type:luminance">
                <path fill="#fff" d="M461-2H70v512h391V-2Z"/>
            </mask>
            <g mask="url(#e)">
                <path fill="#fff" d="M302 240Z"/>
            </g>
            <mask id="f" width="391" height="513" x="70" y="-2" maskUnits="userSpaceOnUse" style="mask-type:luminance">
                <path fill="#fff" d="M461-2H70v512h391V-2Z"/>
            </mask>
            <g mask="url(#f)">
                <path fill="#fff" d="M296 239Z"/>
            </g>
            <mask id="g" width="391" height="513" x="70" y="-2" maskUnits="userSpaceOnUse" style="mask-type:luminance">
                <path fill="#fff" d="M461-2H70v512h391V-2Z"/>
            </mask>
            <g mask="url(#g)">
                <path fill="#fff" d="m225 225-39-1-1 15h-12c-6 1-7 9-7 9l-10 1c-5 2-4 10-4 10s-14 0-18 5c-5 5-5 16-1 22 5 6 30 43 37 57 6 15 7 64 7 64l1 1c22 28 51 55 87 79 13-8 24-17 35-25l-66-77 4-3h10c4 0 9-1 15-4 3-2 5-3 6-6l2-8-2-7c-1-3-4-5-7-6l-7-2h-1l-4-1-12-13 6-6 10 12h1l7 2-14-17 6-5 87 101 3-4-87-100 6-5 86 99 3-3-86-99 2-2 8 1 81 94 3-4-78-90 9-2 74 86 3-4-72-83c2-2 4-3 5-6l71 82 3-4-72-82c2-5 1-9 1-11l75 86 3-4-82-94v-12l86 99 3-4-103-119-3-1-12-4-2-1a99 99 0 0 1-16-10l-3-2-7-6v-1c-10 2-18 13-18 13Z"/>
            </g>
            <mask id="h" width="391" height="513" x="70" y="-2" maskUnits="userSpaceOnUse" style="mask-type:luminance">
                <path fill="#fff" d="M461-2H70v512h391V-2Z"/>
            </mask>
            <g mask="url(#h)">
                <path fill="#fff" d="M98 234c4 22 11 47 21 72l2 6-2-6c-10-25-17-50-21-72Z"/>
            </g>
            <mask id="i" width="391" height="513" x="70" y="-2" maskUnits="userSpaceOnUse" style="mask-type:luminance">
                <path fill="#fff" d="M461-2H70v512h391V-2Z"/>
            </mask>
            <g mask="url(#i)">
                <path fill="#000" d="M70 26v128a280 280 0 0 0 0 12 414 414 0 0 0 186 340l9 6 10-6 23-16c65-50 105-109 128-164h1a410 410 0 0 0 34-166V26a700 700 0 0 0-391 0Zm319 319-29-32v-94c15-15 22-36 21-59 0-22-6-42-21-58V71l29 4v270Zm-58-67-3-2-26-31h3c8 0 18-3 26-6v39Zm-25 179-58-67 6-1 55 65-3 3Zm9-9-53-61 4-2 52 60-3 3Zm9-8-51-60 2-3 52 60-3 3Zm9-9-55-63a29 29 0 0 0 0-7l58 67-3 3Zm53-71-86-99v12l82 94-3 4-75-86c0 2 1 6-1 11l72 82-3 4-71-82c-1 3-3 4-5 6l72 83-3 4-74-86-9 2 78 90-3 4-81-94-8-1-2 2 86 99-3 3-86-99-6 5 87 100-3 4-87-101-6 5 14 17-7-2h-1l-10-12-6 6 12 13 4 1h1l7 2c3 1 6 3 7 6l2 7-2 8c-1 3-3 4-6 6-6 3-11 4-15 4h-10l-4 3 66 77c-11 8-22 17-35 25a378 378 0 0 1-144-175l-2-6a409 409 0 0 1-28-135V86c78-20 160-26 240-19v13c-10-4-23-8-34-8-46 0-83 39-82 87 1 45 35 82 78 86l96 111-3 4Zm31-67V81l23 5v85c-1 29-6 73-23 122Z"/>
            </g>
            <mask id="j" width="391" height="513" x="70" y="-2" maskUnits="userSpaceOnUse" style="mask-type:luminance">
                <path fill="#fff" d="M461-2H70v512h391V-2Z"/>
            </mask>
            <g mask="url(#j)">
                <path fill="#fff" d="m235 198 30 8 18 27a74 74 0 0 0 33 1l16-27 31-8c5-10 9-21 9-32l-19-25 1-32a75 75 0 0 0-27-21l-29 11-30-11a72 72 0 0 0-27 20l2 31-19 25c1 12 5 23 11 33Zm63-71 33 24-12 38h-39l-13-39 31-23Z"/>
            </g>
            <mask id="k" width="391" height="513" x="70" y="-2" maskUnits="userSpaceOnUse" style="mask-type:luminance">
                <path fill="#fff" d="M461-2H70v512h391V-2Z"/>
            </mask>
            <g mask="url(#k)">
                <path fill="#000" d="m331 150-33-23-31 23 13 38 39 1 12-39Z"/>
            </g>
            <mask id="l" width="391" height="513" x="70" y="-2" maskUnits="userSpaceOnUse" style="mask-type:luminance">
                <path fill="#fff" d="M461-2H70v512h391V-2Z"/>
            </mask>
            <g mask="url(#l)">
                <path fill="#fff" d="m248 390 58 67 3-3-55-65-6 1Z"/>
            </g>
            <mask id="m" width="391" height="513" x="70" y="-2" maskUnits="userSpaceOnUse" style="mask-type:luminance">
                <path fill="#fff" d="M461-2H70v512h391V-2Z"/>
            </mask>
            <g mask="url(#m)">
                <path fill="#fff" d="m262 387 53 61 3-3-52-60-4 2Z"/>
            </g>
            <mask id="n" width="391" height="513" x="70" y="-2" maskUnits="userSpaceOnUse" style="mask-type:luminance">
                <path fill="#fff" d="M461-2H70v512h391V-2Z"/>
            </mask>
            <g mask="url(#n)">
                <path fill="#fff" d="m273 380 51 60 3-3-52-60-2 3Z"/>
            </g>
            <mask id="o" width="391" height="513" x="70" y="-2" maskUnits="userSpaceOnUse" style="mask-type:luminance">
                <path fill="#fff" d="M461-2H70v512h391V-2Z"/>
            </mask>
            <g mask="url(#o)">
                <path fill="#fff" d="M278 361a28 28 0 0 1 0 7l55 63 3-3-58-67Z"/>
            </g>
            <mask id="p" width="24" height="31" x="91" y="35" maskUnits="userSpaceOnUse" style="mask-type:luminance">
                <path fill="#fff" d="M102 41h1l2 10-5 1 2-11Zm1-5c-3 0-5 1-6 5l-6 24h1l5-1 1-1 1-6 7-1 2 5v1l5-1 1-1-5-22c-1-2-2-3-4-3l-2 1Z"/>
            </mask>
            <g mask="url(#p)">
                <path fill="url(#q)" d="m77 55 22-31 29 22-22 30-29-21Z"/>
            </g>
            <mask id="r" width="17" height="30" x="117" y="30" maskUnits="userSpaceOnUse" style="mask-type:luminance">
                <path fill="#fff" d="m133 30-7 1c-5 1-9 3-9 9v19l1 1 4-1 1-1V47a780 780 0 0 1 10-2v-4l-10 1v-3c0-2 1-2 3-3a1127 1127 0 0 1 8-2v-3l-1-1Z"/>
            </mask>
            <g mask="url(#r)">
                <path fill="url(#s)" d="m103 49 20-27 25 19-20 27-25-19Z"/>
            </g>
            <mask id="t" width="18" height="29" x="137" y="26" maskUnits="userSpaceOnUse" style="mask-type:luminance">
                <path fill="#fff" d="M148 27c-5 1-10 5-10 13v5c0 8 5 10 10 10l6-2v-5l-6 1c-2 1-4 0-4-5v-5c0-5 2-6 4-7h6v-5h-6Z"/>
            </mask>
            <g mask="url(#t)">
                <path fill="url(#u)" d="m124 45 20-27 24 19-20 27-24-19Z"/>
            </g>
            <mask id="v" width="22" height="30" x="167" y="22" maskUnits="userSpaceOnUse" style="mask-type:luminance">
                <path fill="#fff" d="M174 39h4c3-1 4 1 4 2v1c0 2-1 3-5 3l-3 1v-7Zm0-11h3c4 0 5 0 5 2v1c0 1-1 3-4 3l-4 1v-7Zm2-5-6 1c-2 1-2 1-2 3v22c0 2 0 2 2 2h7c6-1 11-3 11-10 0-3-1-5-3-5l3-6v-1c0-4-3-6-8-6h-4Z"/>
            </mask>
            <g mask="url(#v)">
                <path fill="url(#w)" d="m154 41 21-28 27 20-21 28-27-20Z"/>
            </g>
            <mask id="x" width="23" height="29" x="191" y="20" maskUnits="userSpaceOnUse" style="mask-type:luminance">
                <path fill="#fff" d="M198 37v-5c0-4 1-6 4-6 4 0 5 1 5 6v4c0 4-1 6-5 7-3 0-4-2-4-6Zm4-17c-6 1-10 5-10 13v4c0 9 4 11 10 11 6-1 11-4 11-13v-4c0-8-4-11-9-11h-2Z"/>
            </mask>
            <g mask="url(#x)">
                <path fill="url(#y)" d="m178 38 21-28 28 20-21 29-28-21Z"/>
            </g>
            <mask id="z" width="22" height="29" x="217" y="18" maskUnits="userSpaceOnUse" style="mask-type:luminance">
                <path fill="#fff" d="m238 18-5 1h-1v17c0 3-1 5-4 5s-4-1-4-5V20l-1-1a440 440 0 0 0-5 1v16c0 9 4 11 10 10 6 0 11-2 11-11V19l-1-1Z"/>
            </mask>
            <g mask="url(#z)">
                <path fill="url(#A)" d="m204 36 21-28 27 21-21 28-27-21Z"/>
            </g>
            <mask id="B" width="22" height="29" x="243" y="17" maskUnits="userSpaceOnUse" style="mask-type:luminance">
                <path fill="#fff" d="M250 30v-7h3c3 0 5 1 5 3v1c0 2-2 3-5 3a45 45 0 0 1-3 0Zm3-12h-8l-1 2v25h5l1-1v-9h3l5 9 1 1h6v-1l-6-10c3-1 5-4 5-7v-1c0-6-5-8-11-8Z"/>
            </mask>
            <g mask="url(#B)">
                <path fill="url(#C)" d="m230 35 21-27 27 20-21 27-27-20Z"/>
            </g>
            <mask id="D" width="23" height="29" x="268" y="17" maskUnits="userSpaceOnUse" style="mask-type:luminance">
                <path fill="#fff" d="m270 18-1 1v26h5V30l1-1v1a3199 3199 0 0 1 10 15 381 381 0 0 1 5-1V19l-1-1h-4l-1 1v16-1a24087 24087 0 0 0-10-16h-4Z"/>
            </mask>
            <g mask="url(#D)">
                <path fill="url(#E)" d="m255 36 21-28 27 20-21 28-27-20Z"/>
            </g>
            <mask id="F" width="17" height="29" x="295" y="18" maskUnits="userSpaceOnUse" style="mask-type:luminance">
                <path fill="#fff" d="M295 26v12c0 7 4 8 9 8h8v-4l-1-1h-7c-2 0-3-1-3-3v-3a773 773 0 0 1 11-1v-3l-1-1h-10v-4c0-2 1-2 3-2a718 718 0 0 1 8 0v-4h-1l-7-1h-1c-4 0-8 1-8 7Z"/>
            </mask>
            <g mask="url(#F)">
                <path fill="url(#G)" d="m282 36 19-25 24 18-19 26-24-19Z"/>
            </g>
            <mask id="H" width="26" height="30" x="316" y="19" maskUnits="userSpaceOnUse" style="mask-type:luminance">
                <path fill="#fff" d="M316 21v25l1 1h5V31h1l3 7h5a862 862 0 0 1 4-6v15l1 1a293 293 0 0 1 5 0V23l-1-1a370 370 0 0 0-5 0l-6 10h-1l-5-11-2-1h-3l-2 1Z"/>
            </mask>
            <g mask="url(#H)">
                <path fill="url(#I)" d="m303 38 22-30 30 22-23 31-29-23Z"/>
            </g>
            <mask id="J" width="23" height="28" x="345" y="23" maskUnits="userSpaceOnUse" style="mask-type:luminance">
                <path fill="#fff" d="M356 45c-3 0-4-2-4-6v-5c0-4 1-6 4-5 3 0 5 2 5 6v5c0 4-1 5-4 5h-1Zm-10-11v4c0 8 4 12 10 13s11-2 11-10v-5c0-8-5-12-11-13h-1c-6 0-9 3-9 11Z"/>
            </mask>
            <g mask="url(#J)">
                <path fill="url(#K)" d="m332 41 21-28 28 20-22 29-27-21Z"/>
            </g>
            <mask id="L" width="22" height="30" x="371" y="25" maskUnits="userSpaceOnUse" style="mask-type:luminance">
                <path fill="#fff" d="M371 26v16c0 9 5 12 11 12 6 1 10 0 10-8V29a397 397 0 0 0-6-1v17c0 3-1 5-4 4-3 0-4-2-4-6V27l-1-1h-6Z"/>
            </mask>
            <g mask="url(#L)">
                <path fill="url(#M)" d="m357 45 22-29 28 20-22 29-28-20Z"/>
            </g>
            <mask id="N" width="21" height="30" x="395" y="29" maskUnits="userSpaceOnUse" style="mask-type:luminance">
                <path fill="#fff" d="M396 30v5l6 1v21l1 1 5 1V37a2082 2082 0 0 1 7 1v-4l-1-1a747 747 0 0 0-18-3Z"/>
            </mask>
            <g mask="url(#N)">
                <path fill="url(#O)" d="m382 48 21-28 26 20-21 28-26-20Z"/>
            </g>
            <mask id="P" width="22" height="33" x="418" y="33" maskUnits="userSpaceOnUse" style="mask-type:luminance">
                <path fill="#fff" d="M418 35v25l1 1a442 442 0 0 1 6 0V51l8 2v10l1 1 5 1h1V39l-1-1-5-1-1 1v9l-8-1V36l-1-1-5-1-1 1Z"/>
            </mask>
            <g mask="url(#P)">
                <path fill="url(#Q)" d="m403 54 23-30 29 21-23 31-29-22Z"/>
            </g>
        </g>
    </g>
    <defs>
        <linearGradient id="d" x1="192.1" x2="362.4" y1="468.1" y2="26" gradientUnits="userSpaceOnUse">
            <stop stop-color="#8B0304"/>
            <stop offset="1" stop-color="#ED1C24"/>
        </linearGradient>
        <linearGradient id="q" x1="111.5" x2="305.9" y1="57.2" y2="202.5" gradientUnits="userSpaceOnUse">
            <stop stop-color="#A8996E"/>
            <stop offset=".4" stop-color="#FFE5C7"/>
            <stop offset="1" stop-color="#A8996E"/>
        </linearGradient>
        <linearGradient id="s" x1="122.5" x2="316.8" y1="42.6" y2="187.9" gradientUnits="userSpaceOnUse">
            <stop stop-color="#A8996E"/>
            <stop offset=".4" stop-color="#FFE5C7"/>
            <stop offset="1" stop-color="#A8996E"/>
        </linearGradient>
        <linearGradient id="u" x1="131.7" x2="326.8" y1="30.2" y2="176" gradientUnits="userSpaceOnUse">
            <stop stop-color="#A8996E"/>
            <stop offset=".4" stop-color="#FFE5C7"/>
            <stop offset="1" stop-color="#A8996E"/>
        </linearGradient>
        <linearGradient id="w" x1="145.2" x2="338.9" y1="12.3" y2="157.1" gradientUnits="userSpaceOnUse">
            <stop stop-color="#A8996E"/>
            <stop offset=".4" stop-color="#FFE5C7"/>
            <stop offset="1" stop-color="#A8996E"/>
        </linearGradient>
        <linearGradient id="y" x1="155" x2="349.3" y1="-1.1" y2="144.2" gradientUnits="userSpaceOnUse">
            <stop stop-color="#A8996E"/>
            <stop offset=".4" stop-color="#FFE5C7"/>
            <stop offset="1" stop-color="#A8996E"/>
        </linearGradient>
        <linearGradient id="A" x1="165.5" x2="359.1" y1="-14.5" y2="130.2" gradientUnits="userSpaceOnUse">
            <stop stop-color="#A8996E"/>
            <stop offset=".4" stop-color="#FFE5C7"/>
            <stop offset="1" stop-color="#A8996E"/>
        </linearGradient>
        <linearGradient id="C" x1="175" x2="369.3" y1="-27.8" y2="117.4" gradientUnits="userSpaceOnUse">
            <stop stop-color="#A8996E"/>
            <stop offset=".4" stop-color="#FFE5C7"/>
            <stop offset="1" stop-color="#A8996E"/>
        </linearGradient>
        <linearGradient id="E" x1="183.6" x2="378.7" y1="-40" y2="105.9" gradientUnits="userSpaceOnUse">
            <stop stop-color="#A8996E"/>
            <stop offset=".4" stop-color="#FFE5C7"/>
            <stop offset="1" stop-color="#A8996E"/>
        </linearGradient>
        <linearGradient id="G" x1="192.2" x2="386.5" y1="-50.6" y2="94.7" gradientUnits="userSpaceOnUse">
            <stop stop-color="#A8996E"/>
            <stop offset=".4" stop-color="#FFE5C7"/>
            <stop offset="1" stop-color="#A8996E"/>
        </linearGradient>
        <linearGradient id="I" x1="199.9" x2="394.9" y1="-62.1" y2="83.7" gradientUnits="userSpaceOnUse">
            <stop stop-color="#A8996E"/>
            <stop offset=".4" stop-color="#FFE5C7"/>
            <stop offset="1" stop-color="#A8996E"/>
        </linearGradient>
        <linearGradient id="K" x1="208.8" x2="403.1" y1="-72.9" y2="72.3" gradientUnits="userSpaceOnUse">
            <stop stop-color="#A8996E"/>
            <stop offset=".4" stop-color="#FFE5C7"/>
            <stop offset="1" stop-color="#A8996E"/>
        </linearGradient>
        <linearGradient id="M" x1="216" x2="411" y1="-83.7" y2="62.1" gradientUnits="userSpaceOnUse">
            <stop stop-color="#A8996E"/>
            <stop offset=".4" stop-color="#FFE5C7"/>
            <stop offset="1" stop-color="#A8996E"/>
        </linearGradient>
        <linearGradient id="O" x1="223.6" x2="417.3" y1="-91.7" y2="53.1" gradientUnits="userSpaceOnUse">
            <stop stop-color="#A8996E"/>
            <stop offset=".4" stop-color="#FFE5C7"/>
            <stop offset="1" stop-color="#A8996E"/>
        </linearGradient>
        <linearGradient id="Q" x1="229.7" x2="423.3" y1="-99.4" y2="45.3" gradientUnits="userSpaceOnUse">
            <stop stop-color="#A8996E"/>
            <stop offset=".4" stop-color="#FFE5C7"/>
            <stop offset="1" stop-color="#A8996E"/>
        </linearGradient>
        <clipPath id="a">
            <path fill="#fff" d="M0 0h512v512H0z"/>
        </clipPath>
        <clipPath id="b">
            <path fill="#fff" d="M0 0h391v512H0z" transform="translate(70 -2)"/>
        </clipPath>
    </defs>
</svg>
