<svg xmlns="http://www.w3.org/2000/svg" fill="none" viewBox="0 0 512 512">
    <path fill="#fff" d="M257 501a244 244 0 1 0 0-489 244 244 0 0 0 0 489Z"/>
    <path fill="#0F0F0F" d="m300 211 88-36-15 25-73 17v-6Zm0 10v4h106l-34-19-72 15Zm116-37-5-2-18-5-16 26 30 16 8-30c2-3 2-4 1-5Zm-317 5 8 30 30-16-16-26-18 5-5 2c-1 1 0 2 1 5Zm43 17-34 18h106v-3l-72-15Zm158 23v3l44 7 27-11h-71v1Zm0 7v4l33 18 7 3h19l-17-17-42-8Zm84-2-6-3-30 12 17 16 19-20 3-3c-1-1-1-2-3-2Zm-256 2 2 3 20 20 16-16-30-12-6 2-2 3Zm87-25-88-36 15 25 72 17 1-6Zm-72 18 28 11 44-8v-3h-72Zm30 15-18 17h20l7-3 33-18v-4l-42 8Zm126-39 28-30 18-22 1-6-2-2-2 7-47 43 4 10Zm36 101-16-41c-2-7-5-8-9-10l-11-7v1l12 16v24l39 50c5 6 6 9 13 9l5-3-9-1-24-38Zm-155 0-24 38-9 2 4 2c8 0 8-2 14-9l39-50v-24l12-16v-1l-11 7c-5 2-7 4-9 10l-16 41Zm8-132 28 31 4-11-47-42-2-7-2 2 1 6 18 21Zm117 93v50l-17 28-22 17-9 11-8-11-23-17-16-28v-50l15-20-5-4v-32l7-21 5-3s1-10 3-12c1-2 9-5 9-5l4-5-14-19-13-7-4-5 6 2 14 8 13 19 7-2 7 2 13-19 14-8 7-2-4 5-14 7-13 19 4 5 9 5c2 2 2 12 2 12l6 3 7 21v32l-5 3 15 21Zm-30-42v16l9-20-27-12-26 9v1l26-3 18 9Zm-6-44 9 4-7-13-2 9Zm-32 4 9-3-2-10-7 13Zm-13 25 19-10h29l18 10-2-6-13-11 12 4-2-4-12-7h-31l-13 7-1 4 12-4-13 11-3 6Zm71 114-22 8h-31l-22-8 8 14 18 6h-13l17 13h14l17-13h-12l18-6 8-14Zm-55-10h34l16-12v-1l-17 7h-31l-17-7v1l15 12Zm59-45-26 3 20-11-8-11-11 7h-33l-11-7-8 11 19 11-26-4v14l17 7h50l17-7v-13Zm204-13a246 246 0 1 0-493 1 246 246 0 0 0 493-1Zm-6 0a240 240 0 1 1-480-1 240 240 0 0 1 480 1Zm-362-82a146 146 0 0 1 244 1l5-3a152 152 0 0 0-254-1l5 3Zm-28 55a153 153 0 1 0 300 0h-6a147 147 0 0 1-144 174 147 147 0 0 1-144-174h-6Z"/>
    <path fill="#FFB400" d="m226 204 14-11-12 4 1-4 13-6h30l13 6 2 4-12-4 13 11 2 6-19-10h-28l-19 10 2-6Zm69 120-22 8h-31l-22-8 8 14 18 6h-13l17 13h14l17-13h-12l18-6 8-14Zm4-55-26 3 20-11-8-11-11 7h-33l-11-7-8 11 19 11-26-4v14l17 7h50l17-7v-13Z"/>
    <path fill="#E5E5E5" d="M321 165v-38l3 2v34l-3 2Zm0 144v74l3-2v-68l-3-4Zm3-112v-14l-3 3v12l3-1Zm0 70v-10l-3-2v6l3 6Zm-43-129v-22l-3-1v24l3-1Zm-3 221v38l3-1v-40l-3 3Zm0-204v14l3 1v-19l-3 4Zm90 24v-14l-3-3v18l3-1Zm-3 85v76l3 1v-78l-3 1Zm-171-99v-38l-3 2v34l3 2Zm-3 148v68l3 2v-74l-3 4Zm3-115v-12l-3-3v14l3 1Zm0 63v-6l-3 2v10l3-6Zm43-122v-24l-3 1v22l3 1Zm-2 218v40h2v-38l-2-2Zm0-206v19l2-1v-14l-2-4Zm-85 29v-18l-2 3v14l2 1Zm-2 83v78l3-1v-76l-3-1Z"/>
    <path fill="#D20000" d="M117 132c-2-2-5-1-7 1l-4 4 8 6 3-4c2-2 3-5 0-7Zm118 323 7 1-2-9-5 8Zm-24-15-4-1-2 6 4 1 4-2c1-3-1-4-2-4ZM99 124l-4 4 7 5 3-4c2-2 2-4 0-6s-5-1-6 1ZM67 252c2 0 3-1 3-3 0-1-1-3-3-3s-3 2-3 3c0 2 1 3 3 3Zm85 161c-4-3-9-2-12 3s-2 10 2 13c4 2 10 1 12-4 3-4 2-9-2-12Zm56 37-4-1-2 7 4 1c3 1 5 0 5-3 1-2-1-3-3-4ZM67 256c-3 0-5 2-5 5 0 2 2 4 5 4s5-2 5-4c0-3-2-5-5-5Zm71-162c-2-3-5-3-7-1l-4 3 6 8 4-3c2-2 2-5 1-7Zm274 43c5-4 6-11 1-16l-4-4-17 17 4 4c5 5 12 4 16-1Zm29 115c2 0 4-1 4-3s-2-3-4-3c-1 0-2 1-2 3s1 3 2 3Zm0 4c-2 0-4 2-4 5 0 2 2 4 4 4 3 0 5-2 5-4 0-3-2-5-5-5Zm24-10c-3 0-4 2-4 5s1 5 4 5 5-2 5-5-2-5-5-5ZM381 98c1-2 1-5-1-7l-5-3-5 8 4 3c2 2 5 1 7-1Zm-52-9c5 3 12 0 15-6 3-7 0-14-6-16s-12 0-15 7 0 13 6 15Z"/>
    <path fill="#D20000" d="M257 22a234 234 0 1 0 1 468 234 234 0 0 0-1-468Zm160 95c9 8 7 19 1 25-7 7-18 9-27 0l-9-9 26-25 9 9Zm-33-30c6 4 6 10 3 15-2 3-7 5-11 4l-3 18-7-5 3-16-3-2-9 11-5-4 21-29 11 8Zm-68-16c4-10 15-15 25-10 10 4 14 14 10 24-5 10-15 15-25 11s-14-15-10-25Zm-27-25 22 4-1 6-15-3-1 9 11 2-1 6-12-2-3 15-7-1 7-36Zm-47-2h30v6h-11v30h-8l1-30h-12v-6Zm-39 7 22 18-5-22 7-2 8 36-7 1-21-18 5 22-7 2-8-36 6-1Zm-27 9 3 5-14 7 4 8 11-6 2 6-10 5 4 8 13-6 3 5-20 10-16-33 20-9Zm-48 28c5-5 12-4 15 1 3 3 4 7 1 12l17 6-7 6-15-6-2 2 9 11-6 5-23-29 11-8Zm-33 31c4-5 10-6 14-3 2 3 3 7 2 10 3-3 7-3 11 0s6 10 1 17l-9 10-28-23 9-11ZM50 269h-4v-24l4-2v26Zm17 0c-5 0-9-3-9-8 0-3 2-6 4-7l-2-5c0-3 3-6 7-6s7 3 7 6l-2 5c3 1 4 4 4 7 0 5-4 8-9 8Zm38 110-4 3-5-8-10 7-3-4 22-17 10 14-4 2-6-8-6 4 6 7Zm4 29c-6-5-6-14 0-20s15-5 20 0c6 6 6 15 0 21-6 5-15 5-20-1Zm50 20c-4 7-13 9-19 5-7-4-9-13-5-20 5-7 13-9 20-4 7 4 9 13 4 19Zm32 6-8-4-9 21-5-2 9-21-8-4 2-4 21 10-2 4Zm28 10c-1 2-3 4-6 5 3 1 5 4 4 7-1 4-6 7-12 6l-9-3 7-26 9 2c6 2 8 5 7 9Zm26 24-2-7-10-1-3 6h-6l14-27 5 1 8 28h-6Zm12-53a159 159 0 0 1-156-187l1-5-9-32c-2-7-3-8-2-10l5-3 27-6v-2a159 159 0 0 1 267 0l1 1 27 7 4 3c1 1 0 3-2 10l-9 31 2 6 2 28c1 87-71 159-158 159Zm6 53-1-27 5-1 2 23 11-1v5l-17 1Zm29-3-5-27 6-1 4 22 11-2 1 5-17 3Zm54-17c-7 3-15 1-18-7-4-9 0-17 7-19 3-2 8-2 12 0l-2 5c-3-2-6-2-8-1-4 2-7 6-4 12 2 5 7 7 11 5 3-1 5-4 5-8h5c0 6-3 11-8 13Zm23-12-15-23 4-3 13 19 9-7 3 4-14 10Zm32-23c-4 3-11 4-15-1l-12-13 4-4 11 13c3 3 6 3 8 1 3-2 4-5 1-8l-11-13 4-4 11 13c5 6 3 12-1 16Zm25-28-7 8-20-19 7-7c4-4 8-4 10-2s3 5 2 7c2-1 6-1 8 1 3 2 4 8 0 12Zm15-116c-4 0-8-3-8-8 0-3 1-6 4-7-2-1-2-3-2-5 0-3 3-6 6-6 4 0 7 3 7 6 0 2 0 4-2 5 3 1 4 4 4 7 0 4-3 8-9 8Zm24 0h-5l6-10-1 1c-4 0-9-4-9-9s4-8 9-8 9 3 9 8l-2 5-7 13Z"/>
    <path fill="#D20000" d="M413 370c-1-2-3-1-4 0l-3 3 5 5 2-3c2-2 2-4 0-5Zm-300 22c-4 4-4 10-1 13 4 3 9 4 13 0s4-9 1-13c-4-3-9-4-13 0Zm304-14-3 3 5 5 3-3c2-2 2-5 0-6-2-2-4-1-5 1Z"/>
</svg>
