<svg xmlns="http://www.w3.org/2000/svg" fill="none" viewBox="0 0 512 512">
    <g clip-path="url(#a)">
        <g clip-path="url(#b)">
            <mask id="c" width="512" height="512" x="0" y="0" maskUnits="userSpaceOnUse" style="mask-type:luminance">
                <path fill="#fff" d="M0 0h512v512H0V0Z"/>
            </mask>
            <g mask="url(#c)">
                <path fill="#0059AA" d="M512 256a256 256 0 1 1-512 0 256 256 0 0 1 512 0Z"/>
            </g>
            <path fill="#fff" d="M502 256a246 246 0 1 1-492 0 246 246 0 0 1 492 0Zm-430 2a184 184 0 1 0 365-35v-1l13 3c18 5 34 8 38 7s2-3-4-6a218 218 0 0 0-51-18v-1a184 184 0 0 0-359 29l-1 1-21 3-32 3c-1 2 2 7 12 10 6 2 22 4 40 3v2Z"/>
            <path fill="#fff" d="M389 288c-18 2-39 10-55 15-18 5-36 11-56 10s-44-7-63-10c-20-4-31-6-46-3-16 4-22 9-32 9-12 0-26-5-37-16s-14-22-10-26c4-5 14-3 35 0 25 3 46 1 58-2l33-8c5 5 8 3 8 3s-4-4-17-11c-13-6-33-4-54-3l-71 8c-22 1-42-1-49-3l-10-5 1-2h5l23-2c39-4 62-11 86-18 30-9 64-21 81-22 15-1 19 1 37 12 19 11 33 22 43 29l15 8c6 4 8 2 8 2l-27-16 25-14c12-5 33-15 49-19 8-2 14-3 25-3l32 7 22 6a233 233 0 0 1 35 13l5 3h-8l-30-6-33-8c-8-1-18 3-27 7-15 7-29 15-34 19l-11 6c14 0 26 9 33 14 6 5 10 8 14 9h1v1c0 1 0 3-2 4-3 2-9 4-14 4-6 0-9 2-9 2l12 1c4 1 7 2 8 4l1 1Zm-27-16c3 0 4-3 4-3s-1-2-4-2c-3-1-5 2-5 2s1 4 5 3Z"/>
            <path fill="#FBAB1E" d="M393 272c0 1 0 3-2 4-3 2-9 4-14 4-6 0-9 2-9 2l12 1c4 1 7 2 8 4l1 1a88 88 0 0 1 32 2s0-8-10-13c-9-5-15-5-18-6v1Z"/>
            <path fill="#0059AA" d="M176 474v-6l-10-5-4 5-6-3 22-25 5 2-1 34-6-2Zm1-24-8 9 8 3v-12Zm17 29 7-31 6 2-6 25 14 4-1 5-20-5Zm46 8-13-1 3-32 12 1c7 1 10 5 10 10-1 4-3 6-5 6 2 1 4 4 4 8-1 6-5 9-11 8Zm1-13-7-1v8l6 1c3 0 5-2 5-4s-1-4-4-4Zm0-13-6-1v8h6c3 0 4-1 4-3s-1-4-4-4Zm23 27-1-32 6-1 2 32-7 1Zm40-8c-2 2-4 4-8 5l-9-2c-4-3-4-7-5-12-1-6-2-10 1-14 2-2 4-4 8-4 3-1 6 0 9 1 4 3 4 7 5 12 1 6 2 10-1 14Zm-8-21-4-1-4 2v9c1 7 2 8 3 9l4 1 4-2v-9l-3-9Zm44 13-18-14 6 18-6 2-10-30 5-2 18 15-6-19 6-2 11 30-6 2ZM91 145l-7 11-27-17 7-11c3-5 8-6 13-3 3 1 4 5 3 6 2-1 5-2 9 1 5 3 5 8 2 13Zm-23-14-3 5 6 4 4-5c1-2 1-4-1-5s-4-1-6 1Zm11 7-3 6 6 4 4-6c2-2 1-4-1-5s-4-1-6 1Zm35-21-14-4-3 3 9 9-4 5-24-22 9-9c4-5 10-5 14-1 3 3 4 7 2 10l15 4-4 5Zm-23-14-4 4 6 6 4-4c2-2 2-5 0-7-2-1-4-1-6 1Zm34 4-21-25 5-4 20 25-4 4Zm27-25c-1 4-3 6-5 8-3 2-6 3-10 2l-4-2-5-7-4-7-1-5c1-3 3-6 6-8 6-4 11-2 15 2l-5 4c-2-3-5-3-7-1l-3 3c0 2 0 4 4 9 3 5 4 6 6 6h4l3-4-1-5-1-1-5 4-2-5 10-6 2 3c3 4 4 7 3 10Zm27-10-5-12-10 5 6 12-6 2-13-29 5-2 6 12 10-5-6-12 6-2 13 29-6 2Zm21-34 7 25-6 2-7-25-8 2-2-6 22-6 2 6-8 2Zm40 16c-2 3-4 4-8 5l-9-3c-3-2-4-6-4-12-1-5-2-9 1-13 2-2 5-4 8-4 4-1 7 0 9 2 4 3 4 7 5 12 1 6 1 10-2 13Zm-7-21-4-1-4 2v9c0 6 1 8 2 9s3 2 4 1l4-2 1-9-3-9Zm39 25-12-21-1 20h-6l1-32h6l12 20V26h7l-2 32h-5Zm48 10-1-4c-2 1-5 2-9 1-7-2-9-7-7-13 1-3 4-5 7-6 0-2-2-5-1-7 2-5 6-7 11-5 4 1 7 5 5 9 0 3-2 4-4 5l-3 1 3 7c2-1 3-2 3-5l6 2-6 9 3 8-7-2Zm-8-18-4 4c-1 3 1 5 3 6l5-1-4-9Zm6-11c-1-1-3 0-3 1l1 4h1l3-2c0-2 0-3-2-3Zm43 48 7-11-9-6-7 12-5-3 16-28 5 3-7 11 10 6 6-11 6 3-16 27-6-3Zm31 19c-3 0-6 0-9-3-3-2-4-5-5-8 0-5 3-8 6-12 4-4 6-7 11-8l9 3c2 3 4 5 4 8 0 5-2 8-6 12-3 5-6 8-10 8Zm10-20-2-3c-1-2-3-2-4-2-2 1-3 1-7 6s-5 6-5 8l2 4 5 1c1 0 3-1 7-6l4-8Zm4 39-3-3 17-29 4 5-11 18 20-9 4 5-31 13Zm11 14 27-18 11 18-4 3-9-12-6 4 7 10-5 3-6-10-7 4 8 12-5 3-11-17Z"/>
        </g>
    </g>
    <defs>
        <clipPath id="a">
            <path fill="#fff" d="M0 0h512v512H0z"/>
        </clipPath>
        <clipPath id="b">
            <path fill="#fff" d="M0 0h512v512H0z"/>
        </clipPath>
    </defs>
</svg>
