<svg xmlns="http://www.w3.org/2000/svg" fill="none" viewBox="0 0 512 512">
    <g clip-path="url(#a)">
        <g clip-path="url(#b)">
            <path fill="#DBA111" d="M512 256a256 256 0 1 1-512 0 256 256 0 0 1 512 0Z"/>
            <path fill="#034694" d="M503 256a247 247 0 1 1-494 0 247 247 0 0 1 494 0Z"/>
            <path fill="#DBA111" d="M432 256a176 176 0 1 1-352 0 176 176 0 0 1 352 0Z"/>
            <path fill="#fff" d="M427 256a171 171 0 1 1-342 0 171 171 0 0 1 342 0Z"/>
            <path fill="#DBA111" d="m109 404 7 6 4-5-13-13-2 2-17 19 6 6 8-8 6 6 5-5-6-6 2-2Zm33 21c-1-4-3-7-6-9s-7-3-10-2c-4 0-8 2-10 6-3 3-4 7-3 11s3 7 6 9 6 3 10 3c4-1 7-3 10-7a15 15 0 0 0 3-11Zm-20 10c-3-2 0-7 2-9 2-3 5-7 8-5 3 3 0 8-1 10-2 2-5 6-9 4Zm40-3c-7-4-15-1-19 7-2 4-2 8-1 12 1 3 4 6 7 8 3 1 7 2 11 0 3-1 6-4 8-7 4-8 2-16-6-20Zm-7 21h-3l-2-4 2-6c1-2 4-7 8-5l1 2c1 1 0 4-1 7l-5 6Zm22-11-1 4 4 2-7 20 9 3 7-20 5 1 2-6-18-6-1 2Zm37 9-12-3v3l-6 25 12 2c4 1 7 0 8-1l4-5v-2l-1-5a8 8 0 0 0 2-6c0-3-1-7-7-8Zm-3 19-1 2h-2l-1-1 1-4h1l2 2v1Zm-1-14 2 1v2c0 1 0 2-2 1h-1l1-4Zm26-1-13 26 7 1 3-6h5l2 7h10l-11-34-3 6Zm29 21-1-22-9 1 1 28 19-1v-6h-10Zm26-3-3-21h-3l-7 1 5 28 18-3-1-6-9 1Zm54-19c-1 3-2 5-4 6h-4c-2-1-3-3-4-6-2-3-2-5-1-7l3-3c2 0 4 0 6 2l2 1 3-6-2-1c-3-2-8-3-12-1-4 1-7 4-8 8-2 3-2 7 0 11 3 8 11 11 19 8 5-2 8-6 8-11v-3h-6v2Zm21-7-10-19-2 1-6 3 14 25 16-9-3-6-9 5Zm19-39-2 2-4 2 12 16v2l-2 2h-2l-1-1-11-15-8 5 11 16 6 4 9-3c6-4 6-10 3-13l-11-17Zm34-5-6-3-2-5c-3-2-8-4-13 1l-9 8 20 21 9-9c3-3 4-5 4-7s-1-5-3-6Zm-15-1 1 1-1 2h-1l-2-3h3Zm5 7h3l1 2-1 2h-1l-3-3 1-1Z"/>
            <path fill="#fff" d="m109 401 7 6 2-2-11-10-17 18 4 4 8-8 6 5 2-2-6-5 5-6Zm26 17-9-3c-3 1-7 3-9 6s-3 7-2 10c0 3 2 6 5 8 2 2 6 2 9 2 3-1 6-3 8-6a14 14 0 0 0 3-10c-1-3-3-6-5-7Zm-3 14c-1 2-6 8-11 4-4-3-1-9 1-12 2-2 7-8 11-4 5 3 1 9-1 12Zm30 2c-7-3-14-1-17 6-2 3-2 7-1 10s3 5 6 7c3 1 6 2 9 1s6-4 8-7c3-7 1-14-5-17Zm-11 20c-5-2-2-9-1-12 2-2 5-8 10-6l3 3c1 3-1 7-2 9s-3 6-6 7l-4-1Zm28-11-1 2 5 2-8 20 6 2 7-21 4 2 1-3-14-5v1Zm35 9-11-2v1l-5 23 11 3 6-1c2-1 3-3 3-5v-1c0-2-1-4-3-5 2-1 4-2 4-5l1-1c0-2-2-6-6-7Zm-4 2 4 2v3c-1 4-3 3-5 3h-2l1-8h2Zm-1 11c3 1 4 3 4 4l-1 1-1 3h-7l2-9 3 1Zm29-9-12 24h3l3-6 7 1 2 6h6l-9-27v2Zm-2 9 2 7-5-1 3-6Zm27 13v-22h-1l-5 1 1 24h15v-4l-10 1Zm26-3-3-21h-1l-5 1 4 24 15-2v-3l-10 1Zm57-21c0 4-2 6-5 7h-5c-2-1-4-3-5-6s-2-6-1-9c1-1 2-3 5-3 2-1 5 0 7 1l2-2h-1c-3-3-7-3-10-2-4 2-6 4-8 7v11c3 6 10 9 17 7 4-2 7-6 7-10v-1h-3Zm20-5-11-19v1l-5 2 12 22 13-8-1-2-8 4Zm18-38-2 2 10 14 1 3c0 2-2 3-3 3l-3 1-3-2-10-14-4 4 10 14c1 2 3 3 5 3l7-2c5-4 5-9 3-11l-11-15Zm34-7c-2-2-5-2-7-1v-2c0-2 0-3-2-4-1-2-5-4-9 0l-8 7 17 18 8-7 3-6-2-5Zm-11-1-2 3-2 2-5-6 1-1c3-2 5-2 6 0l2 2Zm4 13-6-6 3-2c3-3 6 0 6 0l1 3c0 1 0 2-2 3l-2 2Z"/>
            <path fill="#DBA111" d="m142 87-10 3 1 4c2 4 0 9-3 12-2 2-4 3-7 2-4 0-8-2-11-6-4-5-6-9-6-13 0-2 1-5 4-7s6-2 11-1h4l2-10h-4c-7-2-15 0-21 5a26 26 0 0 0-2 37c9 10 25 11 36 2 7-6 10-15 7-24l-1-4Zm28-52-10 5 8 17-9 4-8-16-14 6 21 45 14-6-9-19 9-4 9 18 14-6-21-45-4 1Zm47 28-2-10 16-3-2-10-16 3-1-8 16-4-2-10-3 1-28 6 9 48 32-6-2-10-17 3Zm46-43h-15l-1 3-1 46 33 1V59h-17l1-39Zm50 25c-4-3-5-4-5-6 0 0 1-3 4-2 2 0 4 1 4 5l1 4 10-4v-3c-2-6-7-11-14-13-4-1-9-1-13 2-4 2-6 5-7 9-3 10 4 15 9 19 4 3 5 4 5 7l-2 2-3 1c-2-1-3-2-4-5l-2-4-10 4 1 3c2 7 7 11 14 12 9 3 19-1 21-11 3-11-4-16-9-20Zm37 27 14 7 5-9-15-7 4-8 15 7 5-9-29-14-2 3-20 41 29 15 4-9-15-8 5-9Zm57 4-46 24 9 8 10-6 7 7-3 11 12 11 20-59-9 4Z"/>
            <path fill="#fff" d="m141 90-6 2v1c2 6 1 11-4 15-2 2-5 3-8 3-5 0-9-3-13-7-5-5-7-10-6-15 0-3 1-6 4-9 4-3 9-3 14-2h1l1-5h-1c-7-2-14 0-19 4-10 9-11 24-2 34 8 10 23 11 32 2 7-6 9-13 7-21v-2Zm30-52-8 4 8 16-13 7-8-17-10 4 19 41 10-5-9-18 14-6 8 18 10-4-19-41-2 1Zm45 28-3-15 15-3-1-5-16 3-2-13 16-4-1-5-27 6 9 43 28-5-2-5-16 3Zm44-44h-10v1l-1 44 27 1 1-6-17-1V22Zm53 12c3 1 5 3 6 7v2l5-2v-1a15 15 0 0 0-23-10c-3 2-5 4-6 8-2 8 4 12 8 16 5 3 7 5 6 10 0 2-2 3-3 3l-4 1c-4-1-5-3-7-7v-1l-6 2 1 2c1 5 5 8 12 10s16-1 18-10-4-13-9-17c-4-3-6-5-5-8 0-3 3-6 7-5Zm44 17 15 8 3-5-25-12v1l-20 39 25 12 2-4-15-8 7-14 14 8 2-5-14-7 6-13Zm51 27-43 23 5 4 11-6 9 9-4 11 9 7 16-49-3 1Zm-22 19 10-6-4 12-6-6Z"/>
            <path fill="#ED1C24" d="M315 169a12 12 0 0 0 23-7l-1-1c0 4-4 7-10 7-3 0-7-1-9-3l-3 4Z"/>
            <path fill="#034694" d="m280 118-1 1c-4 0-17 9-12 16-4 0-13-3-19 9 7-1 10 5 10 8 0 8-7 12-13 12-3 0-7-2-7-4v-1c-5 5-2 15 5 17 0 0-3 11-9 18-7 0-16-1-25-4a37 37 0 0 1-11-7l-10-7v-5c4-2 9-5 13-11a22 22 0 0 0 5-17v-1l-1-1v-2l-1-1v-2h-1l-1-1v-1l-1-1v-1h-1l-2-2-1-1-2-1a24 24 0 0 0-18-3c-11 2-19 12-18 23 1 10 8 18 17 20l-6 3 1 1h1l2 1h2l1 1v2c-5 1-7 2-9 6-1 4 0 5 2 8-1 3-6 4 0 11 0 2 0 6 4 7l3 1v49c-4 2-5 5-6 7 0 0-7-1-7 12 3-3 6-3 6-3-5 6-1 11-1 11 3-3 5-3 5-3 0 6 3 9 3 9v38h-3v10h5l-1 1c-2 2-4 4-4 7 1 5 5 8 10 8 4-1 8-5 7-9 0-3-2-6-5-7h5v-10h-3v-34a8 8 0 0 0 3 1h1c-1-4 2-7 2-7l5-5c7-3 16-2 18 3 18-4 32-22 32-22l9 15c-18 6-57 40-30 51 0 4 0 29-17 27-23-3-29 7-24 18-3 9 4 12 4 12-1-5 2-10 12-10 0 10 6 12 6 12 0-8 6-11 11-11 0 6 8 9 8 9s-2-8 7-9c22-4 1-28 35-34 0 0-17-3-17-12s16-14 21-14c0 0 0-1 0 0 11 20 23 21 26 21 5 5 3 23-4 23-25-1-24 14-21 18-1 6 4 9 4 9 0-6 6-8 14-8 0 8 5 9 5 9 0-8 6-9 10-9 0 6 5 8 5 8s0-8 7-8c14 0-6-30 21-60-24 11-37-17-37-22 13 14 53 17 53-8 0-20-18-30-17-38l3-4c7-5 21 6 13 17 12-5 18-16 15-25-4-10-16-14-27-9-5 2-9 5-12 8 8-22 39-26 39-46 0-34-48-25-41 0v-3c3-9 17-9 17 3 0 13-30 21-30 43 0 25 24 27 22 49-1 4-5 9-11 9-13 0-20-5-24-13-7-15-4-38-13-47l1-9c7 4 27-6 14-23 0 8-17 8-17-8 0-20 20-9 20-5v-17c-10 4-11-2-10-5 2-2 4-5 8-5 6 0 5 2 5 5 2-4 3-6 8-11v-4l3 1 3-5c-3-6-7-3-10-11-3-1-38-4-36-21Zm-98 23c3 0 6 2 6 5 1 3-2 6-5 6s-6-2-6-5v-3c1-2 3-3 5-3Zm56 22Zm98 21Zm-148 28 15 3v1c7 3 7 11-2 12 6 11 24 6 28-3 2 0 4 4 5 7l-19 11c-9 5-15 12-24 15h-3v-46Zm-14 54h-1 1Zm-7 5Zm180 15v4-4Zm-2 10Zm-166 44h1a5 5 0 0 0-2 0h1Z"/>
            <path fill="#fff" d="M299 147h4l-2 3s-3 1-2-3Zm-10 0h6s0 5 4 5l-1 2s-12-3-9-7ZM77 305v-1l-1-1c0-3-1-9-5-10h-4v-4c-2-4-8-4-11-4h-2c-3-1-9-2-12 2v4l-4-1c-5 0-7 6-8 9v2c-2 3-5 8-2 11l4 2-2 4c-2 4 3 8 6 9l1 1v1c2 2 7 6 11 4l3-2 2 3c4 3 9-1 12-3v-1h1c3-1 8-4 8-9l-2-3 4-1c4-3 2-9 1-12Z"/>
            <path fill="#ED1C24" d="M56 309c27 15 18-2 18-4-1-3-1-22-18 4Zm-1 4c-7 29 7 16 9 15s20-7-9-15Zm-5-1c-30 3-14 12-12 14s14 17 12-14Zm-1-4c-12-28-15-9-16-7s-12 18 16 7Z"/>
            <path fill="#fff" d="m485 301-1-1v-1c-1-3-3-9-7-9l-4 1-1-4c-2-4-8-3-11-2h-2c-3 0-9 0-11 4v4h-4c-5 1-5 7-6 10v2c-1 3-3 9 0 12l4 1-1 3c-1 5 5 8 7 9h1l1 1c3 2 7 6 11 3l3-3c1 1 1 2 3 2 4 2 8-2 10-4l1-1 1-1c2-1 7-5 6-9l-2-4 3-2c3-3 0-8-1-11Z"/>
            <path fill="#ED1C24" d="M462 306c-23-20-5-18-2-18s21-6 2 18Zm-4 3c-26 15-18-2-17-4 0-3 1-22 17 4Zm2 4c7 29-7 16-9 15-3-1-20-7 9-15Zm4-1c31 3 14 12 12 14s-13 17-12-14Z"/>
            <path fill="#ED1C24" d="M465 308c12-28 16-9 17-7s12 18-17 7Z"/>
            <path fill="#fff" d="M471 309v-1l5-4-6 1c-2-2-4-4-7-4l-2-6h-1v6a9 9 0 0 0-7 5h-6v1l6 3v1l3 6-2 6h1l4-5a9 9 0 0 0 7 0l6 4v-1l-3-6c2-1 2-4 2-6Z"/>
            <path fill="#ED1C24" d="m462 304-4 2c-1 1-2 3-1 4a5 5 0 1 0 5-6Zm-409 2c23-20 4-18 2-18-3 0-21-6-2 18Z"/>
            <path fill="#fff" d="m62 310 5-3v-1h-6l-1-2c-2-2-3-3-5-3l-1-6-2 6c-3 0-6 2-7 4l-6-1h-1l6 4-1 1 2 6-3 6 1 1 5-4a9 9 0 0 0 7 0l5 5h1l-2-6 3-6v-1Z"/>
            <path fill="#ED1C24" d="m57 306-4-2a5 5 0 1 0 4 2Z"/>
            <path fill="#fff" d="M56 178a24 24 0 1 0-8 47 24 24 0 0 0 8-47Z"/>
            <path fill="#ED1C24" d="M62 196h-1l-6-4-2-1a84 84 0 0 0-6-4l-7-2-5 5c6 2 12 6 24 13l3-7Zm-6 13 2-4c-12-8-18-11-24-13l-2 5c3 5 12 9 24 12Zm-1-19c4-3 10-2 14-1l-6-5c-4-1-9-1-13 3 2 0 3 1 5 3Z"/>
            <path fill="#ED1C24" d="M37 212a25 25 0 0 0 6 3h2l8 3 2-7c-9-3-19-7-23-12v7l5 6Zm16 8-2-1-6-2c1 3 3 4 4 5h7l-3-2Zm19-24-2-4c-3-2-9-4-13-1l6 4a34 34 0 0 1 9 1Zm-3 1c0 11-6 19-10 24a21 21 0 0 0 14-23l-4-1Zm-21-11c3-3 7-4 10-4l-2-1c-5-1-10 0-14 2l6 3Z"/>
            <path fill="#ED1C24" d="m63 197-3 7-1 2-1 3-1 2-3 7 3 3c4-5 10-13 10-24h-4Zm-20 20-4-2 2 4 5 3-3-5Zm-6-3-3-2 4 5-1-3Z"/>
            <path fill="#fff" d="M436 206a24 24 0 1 0 47-8 24 24 0 0 0-47 8Z"/>
            <path fill="#ED1C24" d="M450 196a109 109 0 0 0 7-4l2-1a77 77 0 0 1 6-4l7-2 5 5c-6 2-12 6-24 13l-3-7Zm6 13-2-4c12-8 18-11 24-13l2 5c-3 5-12 9-24 12Zm1-19c-4-3-10-2-14-1l6-5c4-1 9-1 13 3-2 0-3 1-5 3Z"/>
            <path fill="#ED1C24" d="m475 212-1 1a30 30 0 0 1-7 2l-8 3-2-7c9-3 19-7 23-12v7l-5 6Zm-16 8 2-1 6-2c-1 3-3 4-4 5h-7l3-2Zm-19-24 2-4c3-2 9-4 13-1l-6 4a34 34 0 0 0-9 1Zm3 1c0 11 6 19 10 24a21 21 0 0 1-14-23l4-1Zm21-11c-3-3-7-4-10-4l2-1c5-1 10 0 14 2l-6 3Z"/>
            <path fill="#ED1C24" d="m449 197 3 7 1 2 1 3 1 2 3 7-3 3c-4-5-10-13-10-24h4Zm20 20 4-2-2 4-5 3 3-5Zm6-3 3-2-4 5 1-3Z"/>
        </g>
    </g>
    <defs>
        <clipPath id="a">
            <path fill="#fff" d="M0 0h512v512H0z"/>
        </clipPath>
        <clipPath id="b">
            <path fill="#fff" d="M0 0h512v512H0z"/>
        </clipPath>
    </defs>
</svg>
