<svg xmlns="http://www.w3.org/2000/svg" fill="none" viewBox="0 0 512 512">
    <g clip-path="url(#a)">
        <path fill="#fff" d="M174 405s-57-28-85-72l-2 85 88 17-1-30Zm152 1s57-26 85-70l2 82-88 17 1-29Z"/>
        <path fill="#fff" d="M326 461H174v-69h152v69Z"/>
        <path fill="#fff" d="M295 397c0 25-20 45-45 45s-45-20-45-45 20-45 45-45 45 20 45 45ZM68 420v-65l-4-1v-9l4-2v-6l-4-1v-11l13-12v-3s0-3 4-3h3s3 1 3 3v3l14 12-1 11-4 1v6l4 2v69l-32 6Zm366 0v-65l3-1v-9l-3-2v-6l3-1v-11l-12-12v-3s-1-3-4-3h-4s-3 1-3 3v3l-13 12v11l4 1v6l-4 2v69l33 6Zm-188 92c-31 0-52-11-73-22-11-6-23-13-37-17-39-13-64 3-65 3l-5-8c1 0 30-19 73-4 15 5 27 11 38 17 23 12 43 23 78 21 32-2 54-13 75-23 9-5 17-9 27-12l2-1c11-5 46-18 76 5l-6 7c-26-19-56-8-67-3l-2 1-26 11c-21 11-45 23-79 25h-9Z"/>
        <path fill="#fff" d="m416 495-7-5h-11c-4 1-8 2-11-1-2-1-3-3-3-7 0-3 1-5 3-7 8-6 26-2 31-1l9 1c2-21 10-36 15-43-34-20-86-9-105 3-29 19-53 30-84 30-26 0-48-10-71-22-14-6-27-13-42-18-31-10-67 1-81 7 5 7 13 20 14 40h8c6-1 24-4 31 2 2 2 4 5 3 7 0 4-1 6-3 7-3 3-7 2-11 1l-2-1c-4-1-8 0-9 1l-7 4-1-11c-2 0-10 1-15-2l-4-8c-1-25-14-38-15-39l-4-4 6-3c2-1 50-24 93-10 15 5 29 12 43 19 22 11 43 21 67 21 29 0 51-11 79-29 23-14 82-26 119 0l4 3-3 4s-14 16-16 41c0 3-1 6-4 7-5 4-12 2-15 2l-1 11Z"/>
        <path fill="#fff" d="m112 474-7-8c-4-7-34 7-34 7l8 1m307 2 7-8c4-7 34 7 34 7l-8 2"/>
        <path fill="#fff" d="M67 474s-1-18-5-27l-6-16s26-13 43-14c16 0 58 7 71 14 12 8 47 27 65 30 18 4 48 0 67-8 18-8 31-21 38-24 8-4 32-12 49-14 16-1 36 5 47 8 11 2 10 6 10 6l-14 42s-21-7-36-7c-14-1-38 10-46 13l-51 21c-11 4-47 14-68 9-20-5-60-25-71-30-10-5-48-18-53-15l-40 12Zm209-158v1h-1l1-1ZM424 68c-1-2-5-4-21-4h-13c-9 1-19 3-27 7 11-14 29-22 39-26l3-2v-3c-1-2-6-3-9-3a106 106 0 0 0-24 3 84 84 0 0 0-37 20l8-14a151 151 0 0 1 14-20l1-3-3-1c-2 0-6 0-24 14a150 150 0 0 0-56 75v-3a130 130 0 0 1-1-27l-1-5c-2-1-4 2-4 4-9 20-11 36-12 46l-3 29-2 12a89 89 0 0 1-6-12l-3-5c-4-5-8-8-13-11-7-4-16-9-28-23-7-9-15-25-18-36-5-22-5-49 1-73V2l-2-2c-2 0-4 2-15 20v1a115 115 0 0 0-17 49 156 156 0 0 1-11-69l-2-1c-3 0-7 3-15 25-8 21-10 40-8 61-9-11-13-27-16-42l-3-11c-1-1-2-6-3-5a2 2 0 0 0-1 0v1l-2 4-1 4v5c-1 11-2 39 13 69v1l1 1 5 10a351 351 0 0 1 7 10 689 689 0 0 0-29-3c-1 1 0 3 1 4 5 3 14 11 23 20l17 15 1 2 17 15-12-1-3 1 1 4 27 21 11 10 20 16 2 1h5c-11 4-20 4-32 1-9-3-18-8-25-14l-5-2c-1 1 0 4 1 5 2 6 6 11 10 15-13-2-26-5-40-12l-4-1v5l17 23 16 13c1 0 2 2 11 2a109 109 0 0 0 11-1c-9 3-16 4-23 3-2 0-5 0-5 2-1 1 2 3 3 4 11 3 21 6 30 7a126 126 0 0 0 24 4l2 1h20v1l2 3-2 1v3l4 7v1c-1 1-2 2-1 3 2 8 5 10 8 12 2 1 3 2 3 4l2 5c1 3 3 8 2 10l-5 5-4 4c-5 4-5 9-1 16l3 2c1 0 2-1 2-3 1-4 9-8 10-8 3 0 5 0 7-2 3-3 18-3 18-3l4 1 2 1h2l5 2 11 7 6 7c1 1 2 1 2-1a18 18 0 0 0 5-23l-1-1-3-2-6-6-4-8a3 3 0 0 0 2-3v-2l-2-9a3 3 0 0 0 3-4l-3-9v1l4 2 1-4c1-6 5-12 10-15l1 1 1 4 4-4 5-4 10 4c1 2 2 5 5 6 1 2 3 3 7 5l1 1h-1l-5 3 5 3 7 1c5 0 9-2 12-5 2-2 2-6 2-9l-2-11 3-9v-1c0-4-1-9-4-14v-1l-1-1-2-4c-7-12-17-22-18-22l-3-2c-2 1-2 3-2 4v1c0-2-3-5-4-6l-2-5c8-40 35-66 35-66l1-2c6-57 71-82 71-83h2c3-2 3-3 3-4Z"/>
        <path fill="#292D6B" d="M246 509c-31 0-51-11-72-22-11-6-23-13-37-17-40-14-67 4-68 4l-2-4c1 0 29-18 71-4 15 5 27 11 38 17 23 12 44 24 79 22 32-2 54-13 76-24a290 290 0 0 1 29-13c12-5 44-17 73 4l-3 4c-26-21-57-9-69-4l-2 1c-9 3-17 7-26 12a191 191 0 0 1-87 24Z"/>
        <path fill="#1B458F" d="M242 477h-1v7h1c2 0 4-1 4-4 0-2-1-3-4-3Zm21 9 4-1-3-7-1 8Zm-68-12 1-8-5 6 4 2Zm-83-41h-1l-1 6h2c2 1 3-1 4-3 0-2-2-3-4-3Zm195 40 5-2-6-6 1 8Z"/>
        <path fill="#1B458F" d="M419 456c-2 0-4-2-4-4s1-3 3-3c2-1 4 1 4 3s-1 4-3 4Zm-6-20c-1-2-3-3-5-3-3 0-6 2-6 6 0 5 2 8 5 8l5-1 1 6-8 1c-7-1-11-6-10-14 0-8 6-13 14-12l6 2-2 7Zm-23 16a4 4 0 1 1-1-7 4 4 0 0 1 1 7Zm-11 2-7 1-5-24 15-4 2 6-9 2 1 4 6-1 2 6-7 1 2 9Zm-32 11-10-23 16-7 2 6-9 3 2 4 6-3 3 5-7 3 1 4 9-4 2 6-15 6Zm-9 5c-7 3-14 1-17-6s-1-14 6-18l6-1 2 6-5 1c-3 1-4 4-2 8s5 6 8 4l4-4 3 5-5 5Zm-19 9-4-3-7 3 1 4-7 3-2-26 7-4 18 19-6 4Zm-35 13-7-24 7-2 6 18 6-2 3 5-15 5Zm-12 3-2-4-8 1-1 4-7 1 5-26 8-1 12 23-7 2Zm-30-6h-1v8l-8-1 1-25h9c6 1 10 4 10 9 0 6-5 9-11 9Zm-23 5-15-5 8-24 7 2-6 18 7 3-1 6Zm-19-7-7-3 1-4-7-4-3 3-7-3 19-19 8 4-4 26Zm-34-17 9-17-6-3 3-6 18 10-2 6-6-3-9 16-7-3Zm-8-21c5 4 6 6 5 10-3 6-8 6-12 4s-6-3-8-6l3-5 7 6 3-1-3-4c-4-4-5-6-4-10 3-5 7-6 12-4l7 5-4 5-5-5-3 1 2 4Zm-22 8-8-2 3-9-5-17 8 1 2 11 7-8 8 2-13 13-2 9Zm-21-4-4-8h-1l-1 7h-7l2-25h9c7 1 10 4 10 9 0 4-2 6-5 7l5 9-8 1Zm-23 1c-8 1-13-3-15-11-1-7 3-13 10-15h7v7l-5-1c-3 1-5 4-4 8 0 4 3 6 7 6l5-3 2 6-7 3Zm242-23c-28 19-51 30-81 30-39 0-70-26-112-40-41-14-89 9-89 9s15 15 16 42c0 0 28-18 70-4 41 14 63 42 117 39 47-3 73-25 103-36 10-4 44-20 74 3 2-26 16-43 16-43-35-25-93-13-114 0Z"/>
        <path fill="#C4122E" d="M95 481a30 30 0 0 1 8 1l5 1 1-2-1-2c-3-2-12-2-19-1v4l6-1Zm304-3-8 2-1 2 1 2 5-1h3c3-1 7-1 11 1v-4l-11-2Zm15 12-3-2c-2-1-7-2-12-1h-2c-3 1-6 2-9 0l-1-5c0-2 0-4 2-5 7-5 27 0 29 0 2 1 8 2 10 0l2-2c2-23 12-38 16-43-35-23-89-12-111 1-24 15-50 29-82 30-25 0-47-11-70-22-13-7-27-13-42-19-35-11-76 4-86 9 4 5 14 19 15 41l1 2c3 2 9 1 11 1 2-1 22-4 28 1 2 1 3 3 3 5l-2 5c-3 2-6 1-9 0l-2-1-12 1-3 2v-10l-2 1c-1 0-10 2-14-2-2-1-3-3-3-5-1-26-16-40-16-41l-2-2 3-1c2-1 49-23 91-9 15 5 29 12 42 18 23 11 44 22 69 22 28 0 51-11 80-29 23-14 81-26 117 0l1 1-1 1c0 1-14 17-17 43l-2 5c-5 3-13 1-14 1l-3-1v10Z"/>
        <path fill="#C4122E" d="M246 509c-31 0-51-10-72-22-11-6-23-12-37-17-40-13-67 4-68 4l-2-3c1-1 29-19 71-5 15 5 27 12 38 18 23 12 44 23 79 21 32-2 55-13 76-24l27-12h2c12-5 44-18 73 4l-2 3c-27-21-58-8-70-4l-2 1c-9 3-17 8-26 12a191 191 0 0 1-87 24Z"/>
        <path fill="#C4122E" d="M109 480c-10-8-13-15-14-16l4-2c0 1 3 8 12 15l-2 3Zm282 1-2-4c10-7 11-15 11-15l4 1s-2 9-13 18Z"/>
        <path fill="#27409B" d="m294 272 1 1-1-1Zm-21-153Z"/>
        <mask id="b" width="3" height="12" x="271" y="108" maskUnits="userSpaceOnUse" style="mask-type:luminance">
            <path fill="#fff" d="M272 119h1v-10h-1v10Z"/>
        </mask>
        <g mask="url(#b)">
            <path fill="#fff" d="M273 119Z"/>
        </g>
        <mask id="c" width="1447" height="517" x="43" y="-2" maskUnits="userSpaceOnUse" style="mask-type:luminance">
            <path fill="#fff" d="M44 515h1445V-2H44v517Z"/>
        </mask>
        <g mask="url(#c)">
            <path fill="#1B458F" d="M341 299c-1 1-3 3-5 3-2 1-4 2-5 1 5-3 2-7-2-12l-10-9h2l5 3 2 2 3 1a222 222 0 0 0 8-3c0 1 4 11 2 14Zm-11-2-3-3-3-2-1-2-1-3 7 7 2 4-1-1Zm-18-24-5-8-11-5 9 10c-4-2-13-7-22-9a933 933 0 0 0 12 11l-10-2c-5 0-11-2-17-5l4 4c2 2 5 4 9 5l5 2-7 5c-5 3-7 7-9 11-2 6-5 19-3 26-6-8-11-19-8-30-9 5-15 3-21 2-3 4-7 14-7 21l-2-2a44 44 0 0 1-3-22l20-15-30-2 2-1a66 66 0 0 1 43-13c-9-5-25-5-35-2-13 4-18 4-32 2 15-3 14-4 23-8 7-4 21-11 37-8l-12-5c-5-1-13-2-22 0 0 0 6-6 17-8-15-13-59-34-59-34 63 15 89 44 93 49h1c-3-5-16-37-54-61l-17-9-23-16c-71-56-45-134-45-134-2 18 1 36 6 52a175 175 0 0 0 25 48c9 11 19 20 32 27 0 0-54-37-24-114-1 3-22 65 57 119l3 2c11 26 51 66 59 85l-1-12c4 5 8 11 9 18l2-14c6 3 16 11 24 20l-1-1v-1 1l1 1-1-6v-3a116 116 0 0 0 17 28l-1 7-3 4v-6l-2-4v-2a20 20 0 0 1-1 6c0 3-2 4-2 4v-1l-1-3-8-16c-2 2 0 6 0 6l2 5c-1 3 1 6 4 8l-5-1 4 5c-4-1-12-7-16-11Zm30-13-1-2-2-4c-8-11-18-21-18-21v3l1 4s-33-19-48-37c-10-13-23-28-31-47l-2-4c-10-12-20-9-42-35-7-8-15-25-18-36-5-24-4-51 1-75 0 0 3-8-12 16a112 112 0 0 0-17 61 156 156 0 0 1-15-79s-3-2-12 22c-9 25-11 46-7 69-16-14-20-40-26-61l-1 4v4c-1 10-2 39 12 68l1 2 7 12 11 14-35-7 27 24s34 2 61 22c0 0-23-11-51-13l5 4 23 22-20-2 29 23h5s10 0 19 2c11 2 16 6 16 6-6-2-15-3-21-2l-10 2 2 1 18 15h17c-14 9-28 12-45 6-9-3-18-8-26-14 3 8 11 14 16 20-18-1-33-6-49-13a95 95 0 0 0 32 35 56 56 0 0 0 22 0l5-1 15-4a111 111 0 0 1-16 9c-9 4-20 6-30 5 11 4 22 7 34 8l9-1 13-7a274 274 0 0 0 15-7l-6 5-3 2-13 11c13 1 20 3 37-2l-8 5 5 10-5-2 3 7 6 5 2 4c-3 0-7-4-9-5 3 12 10 10 12 16 1 5 6 14 4 18-4 5-6 5-11 9-5 5-1 11 0 13 1-6 6-9 8-10 4-1 8 0 10-2 6-6 19-7 28-2-5-7-7-6-15-9 15 1 16 4 23 13 0-5-4-11-7-14l-24-3c-4-1-5-6-6-8l7 2-2-11 4 1-1-7c-1-5-3-9 2-17l6 4 2 8 5 5-8-2s3 6 8 10c4 1 6 3 7 4s3 5 2 7c0 1-5-5-14 3 6 0 14 2 16 4l5 6c7 4 7 6 7 14 4-3 3-12 2-14 6 7 5 16 3 20 4-3 9-12 5-20l-10-8c-4-4-5-9-7-13h4l-2-10v-4l-1-2 4 2-4-11 1-2v-3l1-2 1-3c-2 4 3 10 3 10 1-9 9-17 15-20l1 5c2-4 6-6 9-6l5 2 5 2 2 1 3 6 11 7c0 2-2 3-4 4 8 3 19-1 17-10l-2-12 2-6 1-2v-1c0-4-1-9-3-13Z"/>
            <path fill="#1B458F" d="M391 67h1c-14 1-27 5-38 12 9-18 29-30 47-37 0 0 2-3-19 0l-9 1a81 81 0 0 0-47 30c-18 24-24 46-24 46s-3-32 37-73l15-20s1-5-22 12a148 148 0 0 0-54 74v1a160 160 0 0 0 6 37 194 194 0 0 1-12-38v-3a138 138 0 0 1-1-28 249 249 0 0 0-12 60c3 8 8 18 16 31 0 0-8-4-17-20l-2 13c10 18 20 31 30 41v-20l7 8 6-24c19-54 40-70 40-70-20 31-38 93-37 122l10 8c-2-2-3-5-3-7 9-41 36-69 36-69 6-59 73-84 73-84 6-4-27-3-27-3Z"/>
            <path fill="#D3D2D2" d="M401 410v-34l-10 8v10h-5v-7c-22 15-32 16-32 16 14-7 25-15 32-21v-13c-27 23-51 35-60 39v6h46c10-2 20-3 29-2"/>
            <path fill="#A7A5A6" d="M360 416c-7 2-14 4-19 7v-7h19Zm-58 28-7 3v-21h7v18Zm0-20h-7v-16h7v16Zm22 7v-5h-6v10l6-3v-2Zm0-7h-6v-16h6v16Zm-15 13v-11h-5v17l5-2v-4Zm0-13h-5v-16h5v16Zm7 0h-5v-16h5v16Zm0 12v-10h-5v14l5-3v-1Zm8-42h-29v11h29v-11Zm-141 39-7-3v-4h7v7Zm0-9h-7v-16h7v16Zm16 17 6 3v-18h-6v15Zm6-17h-6v-16h6v16Zm-15 0h-5v-16h5v16Zm6 0h-4v-16h4v16Zm9-30h-29v11h29v-11Zm-13 44 4 2v-14h-4v12Zm-22-11 4 2v-13h-4v11Zm15 7 1 1 4 1v-10h-5v8Z"/>
            <path fill="#D3D2D2" d="M100 398v-22l10 8v10h5v-7c22 15 33 16 33 16-15-7-25-15-33-21v-13c26 22 49 34 59 39v6h-40c-12-3-23-3-34-2"/>
            <path fill="#A7A5A6" d="m160 423-17-7h17v7Zm3-1v-6h4v10l-4-2v-2Zm168 4v-10h-5v15l5-3v-2Zm7-3v-7h-4v10l4-2v-1Zm-45-18v-7a43 43 0 1 0-86 0v7h8l-1-7a36 36 0 1 1 71 7h8Z"/>
            <path fill="#D3D2D2" d="M110 374v-9l-10-11v12c1 2 4 6 10 11v-3Zm291-8c-1 2-4 6-10 11v-12l10-11v12Z"/>
            <path fill="#A7A5A6" d="M243 439c-1 0-2 1-2 3l2 2 2-1-2-4Zm11 1c-2 0-3 1-3 4 0 2 1 4 3 4l2-4c0-3-1-4-2-4Z"/>
            <path fill="#A7A5A6" d="M264 449h-4l1-2 3 1 2-2-2-2h-3v-6h6l1 2h-5v2h1c3 0 4 1 4 4 0 2-2 3-4 3Zm-10 0c-3 0-5-2-5-5 0-4 2-6 5-6 2 0 4 2 4 6 0 3-2 5-4 5Zm-13 0-1-1c3-1 4-2 5-4l-3 1c-2 0-3-1-3-3 0-3 2-4 4-4s4 1 4 5c0 3-3 6-6 6Zm-5 0h-2v-9l-2 1v-2l2-1h2v11Zm49-41a36 36 0 0 1-70 0h-8v37c15 6 30 11 46 11h1c14 0 26-3 39-8v-40h-8ZM90 350l5 1v19l-5-1v-19Zm-2 19-5-1 1-19a49 49 0 0 1 4 0v20Zm-11 0 4-1v-19h-4v20Zm-7 1 4-1v-19l-4 1v19Zm-4-36 3-1v2l-3-1Zm15 7h-4v-10h4v10Zm7-10h-5v10h5v-10Zm2 1 5 1v10l-5-1v-10Zm-16 10-4 1v-10l4-1v10Zm22-9 3 1-3 1v-2Zm-30 19 3-1v3l-3-2Zm30-1 3 1-3 2v-3Z"/>
            <path fill="#A7A5A6" d="M99 328a39 39 0 0 0-32 0v4c3-2 9-3 15-3s12 1 17 3v-4Zm0 18a47 47 0 0 0-33 0v4a47 47 0 0 1 33 0v-4Z"/>
            <path fill="#A7A5A6" d="M99 326a47 47 0 0 0-33 0l13-12a41 41 0 0 1 7 0l13 12Zm-20-16v2a45 45 0 0 1 7 0v-2l-3-1h-2l-2 1Zm16 81-5-1v-19l5 1v19Zm-7-1-5-1v-19l5 1v19Zm-7-1-4 1v-19l4-1v19Zm-7 1-4 1v-19l4-1v19Zm353-40 5 1v19l-5-1v-19Zm-2 19-5-1v-19a48 48 0 0 1 5 0v20Zm-11 0 4-1v-19h-4v20Zm-7 1 4-1v-19l-4 1v19Zm-4-36 3-1v2l-3-1Zm15 7h-4v-10h4v10Zm7-10h-5v10h5v-10Zm2 1 5 1v10l-5-1v-10Zm-16 10-4 1v-10l4-1v10Zm22-9 3 1-3 1v-2Zm-30 19 3-1v3l-3-2Zm30-1 3 1-3 2v-3Z"/>
            <path fill="#A7A5A6" d="M436 328a39 39 0 0 0-32 0v4c3-2 9-3 15-3s12 1 17 3v-4Zm0 18a47 47 0 0 0-33 0v4a47 47 0 0 1 33 0v-4Z"/>
            <path fill="#A7A5A6" d="M436 326a47 47 0 0 0-33 0l13-12a41 41 0 0 1 7 0l13 12Zm-20-16v2a45 45 0 0 1 7 0v-2l-3-1h-2l-2 1Zm16 81-5-1v-19l5 1v19Zm-7-1-5-1v-19l5 1v19Zm-7-1-4 1v-19l4-1v19Zm-7 1-4 1v-19l4-1v19ZM74 417l-4 1v-25l4-1v25Zm7-2-4 1v-24h4v23Zm7-23h-5v22h5v-22Zm7 14v-13l-5-1v21l5-1v-6Zm316 2v-16l-4 1v19l4 1m7-6v-15h-4v21l4 1m7 1-5-1v-22h5v23Zm7 2-5-1v-24l5 1v24Z"/>
            <path fill="#C4122E" d="m236 411 15 5h1v-1c1-6-1-12-1-14l-1-1c-7-3-13-7-18-11l-7-10h-2l-5 12v1c4 8 10 14 18 19Z"/>
            <path fill="#C4122E" d="M234 387h2c8-12 18-16 24-18a1 1 0 0 0 0-2 32 32 0 0 0-33 8v1c0 2 2 6 7 11Z"/>
            <path fill="#C4122E" d="M237 388v2a76 76 0 0 0 14 8h1c3-4 11-12 25-14l1-1v-1c-2-4-6-8-10-11h-1l-12 2c-7 3-13 8-18 15Z"/>
            <path fill="#C4122E" d="M280 386h-1l-7 1a1 1 0 0 0-1 2l3 14a41 41 0 0 1-4 18 1 1 0 0 0 2 1 32 32 0 0 0 8-36Zm-28 33-1-1c-4 0-9-2-15-5-7-3-12-8-16-14l-2-1-1 1a32 32 0 0 0 14 25c4 4 9 6 15 6h1l5-10v-1Z"/>
            <path fill="#C4122E" d="m269 390-1-1h-1c-7 3-12 9-14 11v1l2 11-1 10-3 7v1l1 1a33 33 0 0 0 10-3c3-3 6-7 7-11 2-4 2-8 2-12l-2-15Z"/>
        </g>
    </g>
    <defs>
        <clipPath id="a">
            <path fill="#fff" d="M0 0h412v512H0z" transform="translate(44)"/>
        </clipPath>
    </defs>
</svg>
