<svg xmlns="http://www.w3.org/2000/svg" fill="none" viewBox="0 0 512 512">
    <g clip-path="url(#a)">
        <path fill="#fff" d="m514 327-1-1-31-12 4-8 16 7 2 1 3-2 3-6c1-4 2-8 1-11s-4-5-7-7l-43-20h-8v-4a186 186 0 0 0-11-64l-1-2c-8-24-15-42-15-64 0-17 21-40 29-48l8-7-79-72-6 4a96 96 0 0 1-53 15c-20 0-40-6-54-16l-6-4-5 4a96 96 0 0 1-55 16c-19 0-38-5-53-15l-6-4-71 65-8 7 8 7c8 8 29 31 29 48 0 22-7 40-15 64l-1 2a202 202 0 0 0-10 54l-1 10 1 4a12 12 0 0 0-9 0l-43 20c-3 2-6 4-7 7s0 7 1 11l3 6a4 4 0 0 0 5 1l16-7 4 8-31 12v2l1 4a266 266 0 0 0 230 167l16 16h2l16-16a264 264 0 0 0 230-167l2-4v-1Z"/>
        <path fill="#274488" d="M66 290c-2-4-2-8-2-12l1-2-37 17-4 4c-1 4 2 9 3 11l39-17v-1Zm399 0c1-4 2-8 1-12l-1-2 37 17 4 4c1 4-1 9-2 11h-1l-39-17 1-1ZM139 428l-6 5 5 3 2-7 1-2-2 1Zm198 22c-3 1-4 4-2 9s4 7 7 6 4-4 3-9c-2-6-5-7-8-6Zm23-9-2 1 3 7 2-1c2-1 3-3 2-5-1-3-3-3-5-2Zm-53-200-8-2-7-1-3-1 2-1h7l9 2v-7l-15-3-12-1-1-1 1-1h15l12 2v-7l-9-2-9-1-1-1 1-1h7l11 1v-6l-19-5-17-1-1-1 1-1 17 1 19 3v-5c-5-3-13-5-23-6a266 266 0 0 0-42-2l2-1c1 0 18-2 32-1 11 0 26 3 31 4l-1-4c-7-6-20-6-21-6l-2-1 1-1h7l15 3v-5c-5-3-19-5-30-6h-3v3l-2 1h-14l-2-1v-3l-20 1h-2l2-1 19-3h1l-1-18v-1l1-1a175 175 0 0 1 19 1v1h9l23 3v-4l-2-1c-4-2-19-4-39-4-21 0-34 2-35 3-3 1-5 1-5 3l1 47v18c0 5 8 8 24 14 18 7 40 14 57 18v-10Zm-15 10-8-3-1 1v14l1 1a888 888 0 0 0 9 3v-15l-1-1Zm-14-5-9-2v15l9 3h1v-15l-1-1Zm-29-9a152 152 0 0 1-9-3v14l1 1 8 3h1v-14l-1-1Zm49-103-1-2-17-4-3-1 2-1 17 2-4-7c-6-3-19-4-21-4l-3-1 5-1 17 1-3-6c-4-3-10-3-12-3s-3-1-3-2h2a303 303 0 0 0 10-2l-2-4-4-1-7-1-1-1 1-1h8l1-1-2-3-4-1-7-1h-2l1-1 8-1 2-1-2-5h-5l-1-1 1-1 3-1-1-3h-7l-2-1 2-1 6-1-5-9-33 71a167 167 0 0 1 66 0Zm-63 98-8-3h-1v14l1 1 8 3h1v-14l-1-1Zm29 10-9-3v15l9 3v-15Zm-28 71c0-4-3-6-6-6-5 0-7 3-8 10l9-1c4 0 5-1 5-3Zm92-7c-6 0-9 6-9 16 0 11 4 17 10 17s9-6 9-16c0-11-4-17-10-17Z"/>
        <path fill="#274488" d="m287 163 9 1 10 2v-4a105 105 0 0 0-32-6l-1 15h3l8 1 22 4v-6c-5-4-18-5-19-5l-2-1 2-1Zm-62-15c2-1 15-6 40-6 24 0 38 6 40 6 2 1 4 2 5 0l-2-4c-5-3-24-7-43-7-20 0-39 4-42 6-3 1-4 2-3 4s4 1 5 1Zm81 107-8-3-1 1v15l1 1a224 224 0 0 1 9 3v-16l-1-1Zm-46-79h10l1-20h-12l1 20Z"/>
        <path fill="#274488" d="M370 440c2 5 0 10-5 12l-2 1 3 6v2l-4 1h-1l-9-21v-1l5-2c4-2 7-3 9-2l4 4Zm88-92v-2l2-2 1-1 20 11v2l-2 3h-1l-11-6 8 11v2l-1 1h-1l-14-1 10 7v1l-1 3h-2l-18-12-1-2 2-2 1-1 18 2-10-14Zm-9 34-9-8v-1l2-3h2l9 8c6 5 7 11 2 16s-10 5-16 1l-9-8v-2l2-3h1l10 8c4 3 6 3 9 0 2-2 2-4-3-8Zm-27 13v-2l2-2h1l17 16v1l-3 3-2-1-8-8 4 13v1l-1 1-2 1-13-6 8 10v1l-2 2h-2l-14-17v-1l2-2h2l16 6-5-16Zm-11 35 2-1h1l1 1v1l-7 6h-2l-1-2v-1l2-1-11-14-1 1h-1l-1-1v-2l7-5h1l2 1-1 2-1 1 10 14Zm-18 15v1l-4 2h-1l-10-16-5 3h-1l-2-3 1-1 14-9 2-1 1 1 1 2v2l-6 3 10 16Zm-57 0c7-2 12 2 14 9 3 7 0 13-6 16-7 2-12-2-15-9-2-7 0-13 7-16Zm-27 29h2l1 1v2c1 0 0 0 0 0l-9 2-1-1-1-1 1-2h2l-3-17-2 1-1-1v-3l10-2 1 1v2l-1 1h-2l3 17Zm-28-11c0 2 1 2 2 2l4 2c3 1 5 3 5 6 1 5-3 8-8 9l-7-1-1-1 1-3v-1h1l6 1c1 0 3-1 3-3 0-1-1-2-3-2l-4-2c-3-1-5-3-5-6-1-5 4-7 8-8l7 1 1 1-1 3-1 1h-1l-4-1c-2 0-3 1-3 2ZM65 353l-12 7-2-1-1-2v-2l19-12 2 1 1 2v2l-6 16 12-7h1l2 3-1 2-19 11h-1l-2-2v-2l7-16Zm10 34v1l-2 2h-1l-5-8v-1l1-1h1l1 1 14-10-1-2v-1l2-1h1l6 8v1l-2 1h-1l-1-2-14 11 1 1Zm17 18v2l-2 2-1-1-9-9v-2l16-15h2l2 3v1l-14 13 6 6Zm25 16-2-5c-2-3-2-5 0-8 3-3 8-2 11 0l5 6v1h-1l-2 2h-1v-1l-3-4h-4v3l2 4c2 3 2 6 0 8-3 4-8 4-12 1l-5-6v-1l3-2h1l4 5h4v-3Zm19 19-5-4h-1l-4 3h-1l-3-3h-1l1-1 19-14h2l3 2v1l-5 24h-1l-3-2-1-1 1-4-1-1Zm16-8v-1l1-2 1-1 16 8 1 1 1 1-2 3h-1l-6-3-9 17h-1l-4-2v-1l9-17-6-3Zm27 31v1l-1 1-1 1-8-3-1-1 1-2 1-1 2 1 6-16-1-1-1-1 1-2h1l9 3v1l-1 2-1 1-2-1-6 16 2 1Zm20-7 3 3c2 2 3 5 3 8-2 5-7 6-11 5l-7-3-1-1 1-1 1-2 1-1 1 1 5 2c1 1 3 0 4-1 0-2-1-2-2-3l-3-4c-3-2-4-4-3-7 2-4 7-6 11-4l6 3v1l-2 3h-1l-4-3c-2 0-4 0-4 2l2 2Zm50 2-3 22-1 1h-3l-2-1-9-15-1 13-2 1h-3l-1-1 3-22 1-1h3l2 1 8 15 2-14h5l1 1Zm261-126a263 263 0 0 1-229 165l-16 16-15-16h-1A263 263 0 0 1 20 332l-1-4 58-23c2 0 4 0 4 2h1l2 2 1 5c-3-1-5-4-6-5v-1h-1l-4 2h-2l1 1v1l6 13 1 2 1-1 8-3 2 3-8 3h-2l1 2a210 210 0 0 0 170 110l4 3A207 207 0 0 1 70 312l-47 18a261 261 0 0 0 228 164l13 14h1l15-14a259 259 0 0 0 227-164l-46-18h-1a211 211 0 0 1-185 132l3-3a206 206 0 0 0 170-110l1-2h-2l-7-3 1-3 8 3 1 1 1-2 6-13v-1l1-1h-2l-4-2h-1v1c-1 1-3 4-6 5l1-5 3-2c0-2 2-2 4-2l58 23-1 4ZM45 304l-18 7c-1 1-2 0-2-1l-3-4c-1-3-2-7-1-10s3-5 6-6l43-20a9 9 0 0 1 8 0v4l-4-2-3 1c-2 1-3 3-4 6s0 7 2 11v1l-1 3-20 8v1l5 10-3 1-5-10Zm205 135A203 203 0 0 1 84 330l8-2v1a109 109 0 0 0 7 10v1c34 51 85 83 142 90l9 9Zm16 39 1 1v2l-1 1h-9l-1-1v-2l1-1h2v-17h-2l-1-1v-2l1-1 10 1h1v2l-1 1h-2l-1 17h2Zm173-150 7 2a205 205 0 0 1-166 109l9-9c58-7 108-39 142-90v-1l1-1 6-9 1-1ZM81 254l1-11c2-21 7-37 9-42l1-2c8-24 15-43 15-65 0-18-22-42-30-50l-5-5 5-5 69-63 5 3c15 10 34 15 54 15 21 0 41-6 56-16l4-3 4 3c15 10 35 16 56 16 20 0 39-5 54-15l5-3 74 68-5 5c-8 8-29 32-30 50 0 22 7 41 15 65l1 2c2 5 7 21 9 42l1 11 1 10a130 130 0 0 1-20 72l-1 2c-34 51-84 82-141 89l-23 23-23-23c-57-7-107-38-141-89l-1-2-5-8a130 130 0 0 1-14-74Zm371 16 4-1 4 1 43 20c3 1 5 3 6 6s0 7-1 10l-3 4c0 1-1 2-2 1l-18-7-5 10-3-1 5-10v-1l-20-8-1-3v-1c2-4 3-8 2-11 0-3-2-5-4-6l-3-1-4 2v-4Zm62 57-1-1-31-12 4-8 16 7 1 1 4-2 3-6c1-4 2-8 1-11s-4-6-7-7l-43-19v-1h-8v-4a186 186 0 0 0-11-64l-1-2c-8-24-15-42-15-64 0-17 21-40 29-48l8-7-79-72-6 4a96 96 0 0 1-53 15c-20 0-40-6-54-16l-6-4-5 4a96 96 0 0 1-55 16c-19 0-38-5-53-15l-6-4-71 65-8 7 8 7c8 8 29 31 29 48 0 22-7 40-15 64l-1 2a200 200 0 0 0-10 54l-1 10 1 4h-9v1l-43 19c-3 1-6 4-7 7s0 7 1 11l3 6 4 2 1-1 16-7 4 8-31 12v2l1 4a266 266 0 0 0 230 167l16 16h2l16-16a263 263 0 0 0 230-167l2-4v-1Z"/>
        <path fill="#274488" d="M252 377c2-1 4-3 4-6 0-2-2-4-4-4-3 0-5 2-5 4 0 3 2 4 5 6Z"/>
        <path fill="#274488" d="M397 106c-3 2-5 3-7 2 1-2 2-4 5-6 2-1 5-2 7-1l-5 5Zm-5 10c-2 1-5 2-7 1 1-2 2-4 5-6 2-1 5-2 7-1-1 2-2 4-5 6Zm-5 7c-2 1-5 1-7-1 1-1 4-3 7-3 2-1 5 0 7 1-2 1-4 3-7 3Zm-2 219h-7l2-15v-8c0-4-1-10-8-10l-6 3c-2 2-3 4-3 9v6l2 15h-13l1-15v-10c0-4 0-10-2-14l12-1v7l3-3c4-3 7-4 11-4 10 0 13 5 13 14v11c0 7 0 11 2 15h-7Zm-57 1c-13 0-20-7-20-20 0-12 7-21 22-21 12 0 19 7 19 19 0 14-8 22-21 22Zm-21-40-2 6h-10v17c0 6 0 11 6 11l5-2 1 1-2 5-9 2c-7 0-12-3-12-13v-21h-5l-1-1 2-5h5l-1-7 11-5 1 2-1 10h12Zm-16 93c-5 0-9-3-9-8 0-4 3-6 7-8-3-2-5-4-5-7 0-5 4-8 8-8 5 0 9 3 9 7s-3 5-6 7c4 2 7 4 7 8 0 5-5 9-11 9Zm-21-1h-7l15-26h-9l-5 2-1-1 1-4v-1h18v1l1 2v1c-3 2-5 7-8 11-4 7-5 11-5 15Zm-7-53h-13l1-14v-10c0-4 0-11-2-15h11v9l3-4c4-5 6-6 10-6l3 1a781 781 0 0 0-4 11c-1-2-2-3-4-3s-4 2-5 4-2 3-2 7v7l2 13Zm-12 54c-6 0-9-4-9-8s2-6 6-9c-2-1-5-3-5-7s4-8 9-8c4 0 8 3 8 7s-3 6-6 7c4 2 7 5 7 9 0 5-5 9-10 9Zm-14-1h-5v-1l1-7v-14c0-4-1-4-2-4h-1l-2 1h-3l1-3h4l4-1 3-1v22l1 7v1h-1Zm-26-72c0-13 8-21 19-21 10 0 16 6 16 15l-1 4h-10l-13 1c1 9 6 14 14 14 3 0 5 0 8-2a317 317 0 0 1-1 7l-12 2c-12 0-20-8-20-20Zm-12 11-2 8h-9l-3-9-5-16-7-14 14-1 3 12 2 10 3 7 2-5 4-12 2-8v-3h5l5-1c2 0 1 1 1 1l-7 13-8 18Zm-23 0-3 8h-34l1-15v-25l-1-15h34l-2 9c-1 2-2 0-2 0-2-3-7-4-11-4h-6v17h7l11-1 1 1-2 7-11-1h-6v11c0 8 1 10 9 10 5 0 8 0 13-4 1-1 2 0 2 2Zm-39-214c1-1 4-2 7-1l6 3c-2 2-4 2-7 1-3 0-5-2-6-3Zm-4-10c2-1 5 0 7 1 3 2 4 4 5 6-2 1-4 0-7-1l-5-6Zm-5-9c2-1 5 0 7 1 3 2 5 4 5 6-2 1-4 0-7-2l-5-5Zm2-22 5 6 1 7c-2 0-4-2-5-5s-2-6-1-8Zm5-7c1 1 3 3 3 7 1 3 0 6-1 7l-3-7 1-7Zm3-2 2-8c2 2 2 5 2 8l-2 7c-2-1-2-4-2-7Zm3 25c2 1 3 4 3 7 1 3 0 6-1 8-1-2-3-4-3-7l1-8Zm-3 7c-2 0-4-2-6-4s-3-5-3-7c2 0 5 2 6 4l3 7Zm-1-7 1-7 5-5c1 2 0 5-1 7-2 3-3 5-5 5Zm6-18 6-3c0 2-2 4-4 6l-6 3 4-6Zm3-10c1-3 3-5 5-5 0 2 0 5-2 7-1 3-4 5-6 5 0-2 1-5 3-7Zm5 54-5-5-1-8c2 0 4 3 5 5 1 3 2 6 1 8Zm6 5c-1 2-3 3-6 3-3 1-6 0-7-1 1-2 4-3 6-3 3-1 6 0 7 1Zm3-5c2 2 4 4 4 6-2 0-4 0-7-2-2-2-4-4-4-6 2-1 4 0 7 2Zm5 7v1l3 1 2-2h6l7 4c-2 1-5 2-8 1l-6-4-1 1 8 7-2 4-6-10-7 10-2-4 8-7-1-1c-1 2-3 3-6 4s-6 0-7-1c1-2 3-3 6-4h6Zm10-7c3-2 5-3 7-2 0 2-2 4-4 6-3 2-5 2-7 2 0-2 2-4 4-6Zm10 4c3 0 5 1 7 3-2 1-5 2-8 1-2 0-5-1-6-3 1-1 4-2 7-1Zm0-12c2-2 3-5 5-5 1 2 0 5-1 8l-5 5 1-8Zm-1-51c2 0 4 2 6 5l2 7c-2 0-4-2-6-5-2-2-2-5-2-7Zm12 21-6-3-4-6 6 3c2 2 4 4 4 6Zm-1-21 2 8c1 3 0 6-1 7-2-1-3-4-3-7l2-8Zm5 10c1 1 2 4 1 7 0 3-2 6-3 7l-1-7c0-4 2-6 3-7Zm6 7c0 2 0 5-2 8-1 3-3 5-5 5 0-2 0-5 2-7 1-3 3-5 5-6Zm-11 29c1-2 2-4 5-6 2-1 5-2 7-1-1 2-2 4-5 5-3 2-5 3-7 2Zm-1-13c1 2 2 5 1 8 0 3-2 5-3 7-1-2-2-5-1-8 0-3 2-6 3-7Zm6 0c2-2 4-4 6-4 0 2-1 5-3 7s-4 4-6 4l3-7Zm-2 0-5-5-1-7 5 5c1 3 2 5 1 7Zm1 25c-2 1-4 3-7 3-3 1-5 1-7-1 1-1 4-3 7-3 2-1 5 0 7 1Zm-2-4c-2 1-5 2-7 1 1-2 2-4 5-6 2-1 5-2 7-1-1 2-2 4-5 6Zm24 22 40-84c-2-3 0-7 4-7 3 0 6 4 4 7l40 83c7 4 10 8 9 10 0 3-2 5-5 6v100c3 0 3 4 3 15 0 12 1 15-6 15h-3v-4c0-1 0-2-2-2l-9-4-78-28s-4-1-4-4v-15c0-3 2-4 4-4v-68c-4-1-5-3-5-3-1-4 0-9 8-13Zm109-36c3 2 5 4 5 6-2 1-4 0-7-2l-5-5c2-1 5 0 7 1Zm-6-23 6 6 1 7c-2 0-4-2-5-5-2-3-2-6-2-8Zm6-7c1 1 3 3 3 7 1 3 0 6-1 7-1-1-3-4-3-7-1-3 0-6 1-7Zm3-2 2-8c2 2 2 5 2 8l-2 7c-2-1-2-4-2-7Zm5 7 6-3c0 2-2 4-4 6l-6 3 4-6Zm3-10c1-3 3-5 5-5 0 2 0 5-2 7-2 3-4 5-6 5 0-2 1-5 3-7Zm5 54-5-5c-1-3-2-6-1-8 2 0 4 3 5 5 1 3 2 6 1 8Zm-7-2 6 3c-2 2-4 2-7 1-3 0-5-2-7-3 2-1 5-2 8-1Zm1-2c-2 1-4 0-7-1l-5-6c2-1 5 0 7 1 3 2 4 4 5 6Zm-4-22c2 1 3 4 3 7 1 3 0 6-1 8-1-2-3-4-3-7l1-8Zm-3 7c-2 0-4-2-6-4s-3-5-3-7c2 0 4 2 6 4l3 7Zm-1-7 1-7 5-5c1 2 0 5-1 7l-5 5Zm20 31c-1 2-3 3-6 3-3 1-6 0-7-1 1-2 3-3 6-3 3-1 6 0 7 1Zm3-5c2 2 4 4 4 6-2 0-4 0-7-2-2-2-4-4-4-6 2-1 4 0 7 2Zm7 9 3-1v-1h6c3 1 5 2 6 4-1 1-4 2-7 1-2-1-5-2-6-4l-1 1 8 7-2 4-7-10-6 10-2-4 8-7-1-1-6 4c-3 1-6 0-7-1 1-2 3-3 6-4h6l2 2Zm8-9c3-2 5-3 7-2 0 2-2 4-4 6-3 2-5 2-7 2 0-2 2-4 4-6Zm10 4c3 0 5 1 6 3-1 1-4 2-7 1-2 0-5-1-6-3 1-1 4-2 7-1Zm0-12c2-2 3-5 5-5 1 2 0 5-1 8l-5 5c-1-2 0-5 1-8Zm-1-51c2 0 4 2 6 5l2 7c-2 0-4-2-6-5-2-2-2-5-2-7Zm12 21-6-3-4-6 6 3 4 6Zm-1-21 2 8-1 7c-2-1-3-4-3-7l2-8Zm5 10c1 1 2 4 1 7 0 3-2 6-3 7-1-1-2-4-1-7 0-4 2-6 3-7Zm0 23c2-2 4-4 6-4 0 2-1 5-3 7s-4 4-6 4l3-7Zm-5 8c0 3-2 5-3 7-1-2-2-5-1-8 0-3 2-6 3-7 1 2 2 5 1 8Zm-2-13-1-7 5 5c1 3 2 5 1 7l-5-5Zm13-11c0 2 0 5-2 8-1 3-3 5-5 5l1-7 6-6Zm48 0-66-60a110 110 0 0 1-118-1 110 110 0 0 1-118 1L81 79s32 30 32 55c0 24-7 44-16 69a191 191 0 0 0-10 51v10a125 125 0 0 0 19 69c5 7 48 78 139 88h1l19 19 19-19h1c91-10 134-81 139-88l5-9a125 125 0 0 0 14-70l-1-10c-2-17-6-32-9-41-9-25-16-45-16-69 0-25 32-55 32-55Z"/>
        <path fill="#274488" d="M293 378c2-2 4-3 4-6s-2-5-5-5c-2 0-4 2-4 5s2 4 5 6Zm-2 3c-3 2-5 4-5 7s2 5 6 5c3 0 5-2 5-5s-2-5-6-7Zm-40 0c-4 1-6 4-6 7s3 5 6 5 6-3 6-5c0-3-2-5-6-7Z"/>
    </g>
    <defs>
        <clipPath id="a">
            <path fill="#fff" d="M0 0h512v512H0z"/>
        </clipPath>
    </defs>
</svg>
