<svg xmlns="http://www.w3.org/2000/svg" fill="none" viewBox="0 0 512 512">
    <g clip-path="url(#a)">
        <path fill="#fff" d="M442 24S358 0 259 0h-1C159 0 75 24 75 24c-5 2-9 6-9 11v271a309 309 0 0 0 192 206l5-1a309 309 0 0 0 188-205V35c0-5-4-9-9-11Z"/>
        <path fill="#000" d="M440 31S355 7 258 7C162 7 77 31 76 31c-2 0-3 2-3 4v270a303 303 0 0 0 187 200 303 303 0 0 0 184-200V35c0-2-1-4-4-4Z"/>
        <path fill="#fff" d="M258 17c-39 0-77 4-108 8v395c26 27 61 54 108 75 48-21 83-48 109-75V25c-31-4-69-8-109-8Z"/>
        <path fill="#000" d="M205 382a70 70 0 0 1-21-50c0-22 9-43 26-60 13-13 29-22 46-25l-23-23-39 39-4 3-1 2-3 1-5-2-13-13-2-4 2-4 87-87-19-20-39 39-3 4-2 1-3 1-5-2-12-13c-2-1-3-2-3-4l2-4 98-97a11 11 0 0 1 15-1l65 65 2 4-2 5h-1l-2 2-4 4-7 7-1 1-55-55-25 25 92 92 1 4c1 1 0 3-2 4l-14 15-55-55-25 25 45 45c9 4 17 9 24 17 14 14 22 31 22 48 0 13-4 25-13 36l-2 2-21-22 1-1c4-7 6-14 6-21 0-8-3-16-11-24-9-9-18-13-28-13-15 0-30 9-42 21a63 63 0 0 0-21 42c0 10 4 19 13 28 7 7 15 10 24 10s19-4 28-11l1-1 21 21-1 1a68 68 0 0 1-45 18c-17 0-33-6-47-20Z"/>
        <path fill="#E53138" d="m265 250-5 1c-16 2-33 11-47 24a81 81 0 0 0-25 57c0 16 6 33 20 47 13 13 29 19 44 19 14 0 28-5 40-15l-15-16c-9 7-19 12-29 12s-19-4-27-12a42 42 0 0 1-14-31c0-16 9-32 22-45 12-13 29-22 45-22 11 0 21 4 31 14 8 9 12 18 12 27 0 8-2 15-6 22l16 15c8-9 11-20 11-31 0-16-7-32-21-45-7-8-15-13-23-16l-49-49 31-31 55 55 11-12 1-1v-1l-95-95 31-31 55 55 12-11v-3l-65-65-4-2-5 2-98 98v1l1 1 12 13 2 1h1l1-1v-1l2-1 5-5 15-15 21-22 2-2 25 26-90 90-1 1 1 1 13 13 2 1 1-1 1-1a120 120 0 0 0 6-6l15-15 22-22 2-2 29 29 3 3Z"/>
    </g>
    <defs>
        <clipPath id="a">
            <path fill="#fff" d="M0 0h385v512H0z" transform="translate(66)"/>
        </clipPath>
    </defs>
</svg>
