<svg xmlns="http://www.w3.org/2000/svg" fill="none" viewBox="0 0 512 512">
    <path fill="#DE2C37" stroke="#DE2C37" stroke-width=".1" d="M45 5h62v19h22V5h63v19h22V5h63v19h23V5h62l1 19h23V5h61v105c-7 0-15 0-21 3-7 3-12 11-12 18v305l-10 4h-1l-4 2-2 1-4 2h-2l-11 5-2 1-4 2-1 1-5 1-1 1-12 5-1 1-5 1-1 1-42 18-2 1-4 2-1 1-5 1-1 1-6 3h-1l-5 2-1 1-10 4-2 1-6 2-1 1-4 2h-2l-10 5-11-5-2-1-4-2-1-1a153 153 0 0 1-19-8 69 69 0 0 1-13-6l-5-1-1-1-31-13-1-1-6-2-1-1-5-2-1-1-12-5h-1l-5-2-1-1-31-13-1-1a76 76 0 0 1-13-6h-2V298l-1-165c1-9-4-17-12-21l-2-1-18-1V5Zm8 7v90c7 1 14 2 20 7 7 4 12 12 12 21l1 301 159 69 162-70V127c1-15 17-25 32-24V12h-46v19h-38V12h-47v19h-39V12h-47v19h-38V12h-47v19H98V12H53Z"/>
    <path fill="#FEFEFE" stroke="#FEFEFE" stroke-width=".1" d="M277 5v19l23-1V5v19h-23V5Z"/>
    <path fill="#FEFEFE" stroke="#FEFEFE" stroke-width=".1" d="M53 12h45v19h39V12h47v19h38V12h47v19h39V12h47v19h38V12h46v91c-15-1-31 9-32 24v303l-162 70-159-69-1-301c0-9-5-17-12-21-6-5-13-6-20-7V12Zm5 5v81c15 1 30 12 33 28v300c0 1 0 2 2 3l152 66 156-68V130c1-17 16-31 33-32V17h-36v19h-48V17h-37l-1 19h-48V17h-37l-1 19h-47V17h-38v19H94l-1-19H58Z"/>
    <path fill="#DE2C37" stroke="#DE2C37" stroke-width=".1" d="M58 17h35l1 19h47V17h38v19h47l1-19h37v19h48l1-19h37v19h48V17h36v81c-17 1-32 15-33 32v297l-156 68-152-66c-2-1-2-2-2-3V126c-3-16-18-27-33-28V17Zm27 30 1 48h321V47H85Zm20 58v218h281V105H105Zm0 225v44h281v-44H105Zm0 54v42h281v-42H105Zm31 52 107 45c2 2 5 0 7-1l106-44H136Z"/>
    <path fill="#FEFEFE" stroke="#FEFEFE" stroke-width=".1" d="M85 47h322v48H86l-1-48Zm6 5-1 38h311V52H91Z"/>
    <path fill="#3A64A3" stroke="#3A64A3" stroke-width=".1" d="M91 52h310v38H90l1-38Zm48 11c-2 2-2 6 0 9l10 4c1 1 0 3-1 3-4 1-7-1-10-3v5c4 2 10 3 14 1 3-2 4-7 1-10-3-2-8-2-10-5 3-3 7-1 11 0v-4c-5-2-10-3-15 0Zm72 2c-4 4-4 10 0 14 5 5 13 5 19 2v-5c-4 2-9 4-13 1-3-1-4-6-1-9 4-4 10-3 14 0v-5c-6-3-14-3-19 2Zm94-4c-7 1-13 8-10 14 4 11 22 11 25-1 2-8-7-15-15-13Zm-200 0v22h7V61h-7Zm12 0v22h5l1-9c3 0 7 1 10-2s1-9-3-10l-13-1Zm39 1 10 20c0 2 3 2 3 0l7-12 7 13h3l9-21h-6l-5 11-6-12h-5l-5 12-6-11h-6Zm42-1v22h6V62l-6-1Zm37 0v22h5l1-9h11v9h6V61h-6v9h-11l-1-9h-5Zm35 1v3l8 1v17h7V66l8-1v-3h-23Zm51-1 10 22h3l7-13 7 13h2l10-21h-6l-5 11-5-11c-2-1-5-1-6 1l-5 10-6-12h-6Zm42 1v21h6V70l11 12c2 2 4 1 6 1V62l-5-1v13l-11-11c-2-2-5-1-7-1Z"/>
    <path fill="#FEFEFE" stroke="#FEFEFE" stroke-width=".1" d="M139 63c5-3 10-2 15 0v4c-4-1-8-3-11 0 2 3 7 3 10 5 3 3 2 8-1 10-4 2-10 1-14-1v-5c3 2 6 4 10 3 1 0 2-2 1-3l-10-4c-2-3-2-7 0-9Zm72 2c5-5 13-5 19-2v5c-4-3-10-4-14 0-3 3-2 8 1 9 4 3 9 1 13-1v5c-6 3-14 3-19-2-4-4-4-10 0-14Zm94-4c8-2 17 5 15 13-3 12-21 12-25 1-3-6 3-13 10-14Zm1 5c-5 0-7 6-5 9 2 4 7 5 10 3 4-2 5-7 2-10-2-2-5-2-7-2Zm-201-5h7v22h-7V61Zm12 0 13 1c4 1 6 7 3 10s-7 2-10 2l-1 9h-5V61Zm5 4 1 5c2 0 6 0 5-4l-6-1Zm34-3h6l6 11 5-12h5l6 12 5-11h6l-9 21h-3l-7-13-7 12c0 2-3 2-3 0l-10-20Zm42-1 6 1v21h-6V61Zm37 0h5l1 9h11v-9h6v22h-6v-9h-11l-1 9h-5V61Zm35 1h23v3l-8 1v17h-7V66l-8-1v-3Zm51-1h6l6 12 5-10c1-2 4-2 6-1l5 11 5-11h6l-10 21h-2l-7-13-7 13h-3l-10-22Zm42 1c2 0 5-1 7 1l11 11V61l5 1v21c-2 0-4 1-6-1l-11-12v13h-6V62Z"/>
    <path fill="#3A64A3" stroke="#3A64A3" stroke-width=".1" d="m122 65 6 1c1 4-3 4-5 4l-1-5Zm184 1c2 0 5 0 7 2 3 3 2 8-2 10-3 2-8 1-10-3-2-3 0-9 5-9Z"/>
    <path fill="#FEFEFE" stroke="#FEFEFE" stroke-width=".1" d="M105 105h281v218H105V105Zm7 6v207h268V111H112Z"/>
    <path fill="#3A64A3" stroke="#3A64A3" stroke-width=".1" d="M112 111h268v207H112V111Zm40 4c-1 3 0 6 2 8 4-2 3-6 2-9l-4 1Zm14-1c-1 3-1 7 2 9 3-2 3-6 3-9h-5Zm-29 3c0 5 4 7 5 11-3 1-6 4-10 4-3-5-9-6-14-7l5 12c1 2-2 5-2 7-2 11 1 21 2 31 1 9 1 18 4 26 3 4 9 6 14 6 1-3-1-7 2-9 4 0 3 5 4 8l5-4c1-3-3-5-1-8 7-5 6-15 14-20 1 6 4 12 6 17 4 9-2 18-1 27 1 11 11 19 21 23 2 8 8 13 11 20 2 4 2 9 5 13s8 8 9 13c4 9 0 19-5 27l13 1c3-1 6-2 7-5 1-4 4-5 5-8 1-8-6-14-10-20-3-4 0-10-3-14-6-8 0-18-2-27 10 4 22 6 33 3 13-3 25-10 37-14 0-3-7-2-7-6 4 0 8 2 10 5 6 5 12 10 19 13l13 7 12 8c6 3 5 10 4 15l-7 21c-2 6-9 8-10 14 6 3 14 2 20 0 0-5 4-8 9-9 0-6-3-11-2-17l11-34c-9-5-21-10-21-22-7-1-16-1-21-7-6-4-6-14-1-18 9-10 23-13 34-20-2-3-7-6-8-10 4-1 10-2 13 1s0 8-2 10c-11 7-25 10-35 20-4 4-5 11-1 15 6 6 16 7 24 7-3-5-3-11 0-16 8-11 22-15 29-27 3-4 2-10-2-13-7-6-17-5-25-3-2 1-6 3-8 1-8-5-16-9-25-9-22 0-42 13-64 12-9 0-20-2-24-11-4-5-10-8-13-13-4 0-6-3-9-5 3-3 6-6 7-10l-4-2c-2 3-4 7-2 10-5 2-8-2-12-4 1-4 6-6 6-11l-4-1c-2 2-3 5-2 9l-1 2-11-4c1-4 5-6 4-11-5-2-8 5-4 9l-1 2c-4-1-10 0-12-4l-1 2c-4-1-9 1-12-2-1 4-6 3-9 4-2 1-4-2-3-4s0-5-1-7h-5Zm-23 14c0 4 3 8 7 9 1-4-2-9-7-9Zm104 3c-3 2-5 5-4 9 4-1 6-4 7-7l-3-2Zm128 85c5-6 9-12 10-20-6 4-14 11-10 20Zm-222 5v6l11 27c2 6-4 13 0 19l14-8c0-3 1-6 4-9-6-6-9-15-9-24 6 1 11 4 17 6 9 4 19 5 28 2-9-5-18-11-21-21-10-2-20-2-30-2-5 0-10 0-14 4Zm163 11c2 8 7 16 11 23 2 3 2 7 0 10l-14 18c-4 6-11 8-14 14l16 1c4 0 4-5 7-6l6-2c1-13 10-22 19-30 1-2 3-3 2-5l-5-11-21-14-7 2Zm-137 39c-3 2-6 3-7 7 3 2 5-2 7-4l14-7c-5-2-10 1-14 4Zm-8 3 7-5c-3 1-6 2-7 5Zm25-5c-7 1-14 4-19 10 2 2 4 2 6 1 6-4 13-6 19-9-2-1-4-3-6-2Zm5 5c-7 2-14 5-20 9 2 3 6 3 9 3 3-1 4-5 8-5 4 1 6-2 9-3 0-2-3-5-6-4Zm-34 7c5 9 14 15 24 17 2-3-1-7-2-10-3 0-8 1-9-3-2-4-6-5-9-5l-2-4c-1 1-3 3-2 5Zm35 1-1 20 4-1c2-6 1-13 0-20l-3 1Zm6 0v16c3-5 4-12 0-16Zm-43 1c-2 4 0 9 3 11l2-5-5-6Zm26 5 3 9c-3 2-4 7-4 11-2 1-6 1-5 4 3 0 6 1 9-1 6-8 7-18 6-28-4-1-6 3-9 5Zm-20 9c4 4 11 6 17 6l1-3c-6-2-12-5-17-9-1 2-2 4-1 6Zm-6-2c0 3 2 7 5 8 4 1 7 2 10 5 3 2 7 0 8-3-8 0-17-4-23-10Zm35 8-3 7c3-1 6-3 8-7h-5Zm-27 3c2 4 6 5 10 6-3-3-6-4-10-6Z"/>
    <path stroke="#3A64A3" stroke-width=".1" d="m63 111 2 1"/>
    <path fill="#FEFEFE" stroke="#FEFEFE" stroke-width=".1" d="m152 115 4-1c1 3 2 7-2 9-2-2-3-5-2-8Zm14-1h5c0 3 0 7-3 9-3-2-3-6-2-9Z"/>
    <path fill="#FEFEFE" stroke="#FEFEFE" stroke-width=".1" d="M137 117h5c1 2 2 5 1 7s1 5 3 4c3-1 8 0 9-4 3 3 8 1 12 2l1-2c2 4 8 3 12 4l1-2c-4-4-1-11 4-9 1 5-3 7-4 11l11 4 1-2c-1-4 0-7 2-9l4 1c0 5-5 7-6 11 4 2 7 6 12 4-2-3 0-7 2-10l4 2c-1 4-4 7-7 10 3 2 5 5 9 5 3 5 9 8 13 13 4 9 15 11 24 11 22 1 42-12 64-12 9 0 17 4 25 9 2 2 6 0 8-1 8-2 18-3 25 3 4 3 5 9 2 13-7 12-21 16-29 27-3 5-3 11 0 16-8 0-18-1-24-7-4-4-3-11 1-15 10-10 24-13 35-20 2-2 5-7 2-10s-9-2-13-1c1 4 6 7 8 10-11 7-25 10-34 20-5 4-5 14 1 18 5 6 14 6 21 7 0 12 12 17 21 22l-11 34c-1 6 2 11 2 17-5 1-9 4-9 9-6 2-14 3-20 0 1-6 8-8 10-14l7-21c1-5 2-12-4-15l-12-8-13-7c-7-3-13-8-19-13-2-3-6-5-10-5 0 4 7 3 7 6-12 4-24 11-37 14-11 3-23 1-33-3 2 9-4 19 2 27 3 4 0 10 3 14 4 6 11 12 10 20-1 3-4 4-5 8-1 3-4 4-7 5l-13-1c5-8 9-18 5-27-1-5-6-9-9-13s-3-9-5-13c-3-7-9-12-11-20-10-4-20-12-21-23-1-9 5-18 1-27-2-5-5-11-6-17-8 5-7 15-14 20-2 3 2 5 1 8l-5 4c-1-3 0-8-4-8-3 2-1 6-2 9-5 0-11-2-14-6-3-8-3-17-4-26-1-10-4-20-2-31 0-2 3-5 2-7l-5-12c5 1 11 2 14 7 4 0 7-3 10-4-1-4-5-6-5-11Zm-11 40c-1 2 0 5 1 7 2-2 5-4 4-7-1-2-5-2-5 0Zm2 40 1 3c1 2 3 3 5 3 0-3-3-5-6-6Z"/>
    <path fill="#FEFEFE" stroke="#FEFEFE" stroke-width=".1" d="M114 131c5 0 8 5 7 9-4-1-7-5-7-9Zm104 3 3 2c-1 3-3 6-7 7-1-4 1-7 4-9Z"/>
    <path fill="#3A64A3" stroke="#3A64A3" stroke-width=".1" d="M126 157c0-2 4-2 5 0 1 3-2 5-4 7-1-2-2-5-1-7Zm2 40c3 1 6 3 6 6-2 0-4-1-5-3l-1-3Z"/>
    <path fill="#FEFEFE" stroke="#FEFEFE" stroke-width=".1" d="M346 219c-4-9 4-16 10-20-1 8-5 14-10 20Zm-222 5c4-4 9-4 14-4 10 0 20 0 30 2 3 10 12 16 21 21-9 3-19 2-28-2-6-2-11-5-17-6 0 9 3 18 9 24-3 3-4 6-4 9l-14 8c-4-6 2-13 0-19l-11-27v-6Zm163 11 7-2 21 14 5 11c1 2-1 3-2 5-9 8-18 17-19 30l-6 2c-3 1-3 6-7 6l-16-1c3-6 10-8 14-14l14-18c2-3 2-7 0-10-4-7-9-15-11-23Zm-137 39c4-3 9-6 14-4l-14 7c-2 2-4 6-7 4 1-4 4-5 7-7Zm-8 3c1-3 4-4 7-5l-7 5Z"/>
    <path fill="#FEFEFE" stroke="#FEFEFE" stroke-width=".1" d="M167 272c2-1 4 1 6 2-6 3-13 5-19 9-2 1-4 1-6-1 5-6 12-9 19-10Zm5 5c3-1 6 2 6 4-3 1-5 4-9 3-4 0-5 4-8 5-3 0-7 0-9-3 6-4 13-7 20-9Z"/>
    <path fill="#FEFEFE" stroke="#FEFEFE" stroke-width=".1" d="M138 284c-1-2 1-4 2-5l2 4c3 0 7 1 9 5 1 4 6 3 9 3 1 3 4 7 2 10-10-2-19-8-24-17Zm35 1 3-1c1 7 2 14 0 20l-4 1 1-20Zm6 0c4 4 3 11 0 16v-16Zm-43 1 5 6-2 5c-3-2-5-7-3-11Z"/>
    <path fill="#FEFEFE" stroke="#FEFEFE" stroke-width=".1" d="M162 291c3-2 5-6 9-5 1 10 0 20-6 28-3 2-6 1-9 1-1-3 3-3 5-4 0-4 1-9 4-11l-3-9Z"/>
    <path fill="#FEFEFE" stroke="#FEFEFE" stroke-width=".1" d="M142 300c-1-2 0-4 1-6 5 4 11 7 17 9l-1 3c-6 0-13-2-17-6Z"/>
    <path fill="#FEFEFE" stroke="#FEFEFE" stroke-width=".1" d="M136 298c6 6 15 10 23 10-1 3-5 5-8 3-3-3-6-4-10-5-3-1-5-5-5-8Z"/>
    <path fill="#3A64A3" stroke="#3A64A3" stroke-width=".1" d="M78 298v138-138Z"/>
    <path fill="#FEFEFE" stroke="#FEFEFE" stroke-width=".1" d="M171 306h5c-2 4-5 6-8 7l3-7Zm-27 3c4 2 7 3 10 6-4-1-8-2-10-6Zm-39 21v4c9 0 17 0 25 4 4 2 8 5 13 4 8 0 16-6 24-7 10-2 21 1 31 4l12 3c8 0 15-3 22-5 7-3 15-3 23-2 9 2 18 7 27 7 6 0 10-3 15-4 7-2 14-4 21-4 10 1 18 5 27 8 5 1 11-1 16-3 7-4 16-5 25-5v-4 31c-6-1-13 0-19 2s-10 6-16 6c-12 1-22-9-34-8-11 0-21 5-32 7-15 3-29-10-45-7-12 3-25 11-38 6s-28-9-42-3c-7 4-16 5-24 4-5-1-8-5-13-6l-18-1v13-44Zm0 13v9h16c7 1 14 8 22 7 8 0 16-5 24-7 10-1 21 1 31 4l12 3c13 1 24-7 36-7 10 0 20 5 29 7s17-2 25-4c7-3 14-3 22-3 8 1 16 5 24 7 5 2 10 0 14-2 8-5 17-5 26-5v-8c-7-1-14-1-21 2-4 3-9 5-15 5-7 0-13-3-20-5-10-4-21-2-31 1-6 1-11 4-17 4-13 1-24-8-37-8-10 1-18 6-28 8-12 1-24-5-36-8-11-1-22 4-32 8-7 1-14 0-20-4-7-4-16-5-24-4Z"/>
    <path fill="#3A64A3" stroke="#3A64A3" stroke-width=".1" d="M105 330h281v4c-9 0-18 1-25 5-5 2-11 4-16 3-9-3-17-7-27-8-7 0-14 2-21 4-5 1-9 4-15 4-9 0-18-5-27-7-8-1-16-1-23 2-7 2-14 5-22 5l-12-3c-10-3-21-6-31-4-8 1-16 7-24 7-5 1-9-2-13-4-8-4-16-4-25-4v-4Zm0 13c8-1 17 0 24 4 6 4 13 5 20 4 10-4 21-9 32-8 12 3 24 9 36 8 10-2 18-7 28-8 13 0 24 9 37 8 6 0 11-3 17-4 10-3 21-5 31-1 7 2 13 5 20 5 6 0 11-2 15-5 7-3 14-3 21-2v8c-9 0-18 0-26 5-4 2-9 4-14 2-8-2-16-6-24-7-8 0-15 0-22 3-8 2-16 6-25 4s-19-7-29-7c-12 0-23 8-36 7l-12-3c-10-3-21-5-31-4-8 2-16 7-24 7-8 1-15-6-22-7h-16v-9Z"/>
    <path fill="#3A64A3" stroke="#3A64A3" stroke-width=".1" d="m105 361 18 1c5 1 8 5 13 6 8 1 17 0 24-4 14-6 29-2 42 3s26-3 38-6c16-3 30 10 45 7 11-2 21-7 32-7 12-1 22 9 34 8 6 0 10-4 16-6s13-3 19-2v13H105v-13Z"/>
    <path fill="#FEFEFE" stroke="#FEFEFE" stroke-width=".1" d="M105 384h281v42H105v-42Zm7 5v32h268v-32H112Z"/>
    <path fill="#3A64A3" stroke="#3A64A3" stroke-width=".1" d="M112 389h268v32H112v-32Zm12 7v17h5v-7h8v-3h-8v-3h8v-4h-13Zm22 1c-4 1-8 6-6 10 3 7 13 8 19 3 3-2 4-7 1-10-3-4-9-5-14-3Zm25 0c-4 1-8 5-7 9 3 10 20 9 22-1 0-7-9-10-15-8Zm15-1v4h7v13h5v-13l7-1v-3h-19Zm22 0v17c4 0 9 1 14-1 3-2 2-7-1-8 2-2 2-6-1-7l-12-1Zm24 0-7 17h5l2-3h8l1 3h5l-8-17h-6Zm17 0v17h14v-3h-9l-1-14h-4Zm17 0v17h14v-3h-10v-14h-4Zm25 4c-3 3-2 8 2 11s10 2 15 1v-4c-4 1-8 3-11 0-3-1-3-5-1-6 3-3 8-2 12-1v-4c-6-1-12-2-17 3Zm21-4v17h14v-3h-9v-14h-5Zm16 0 1 13c4 6 13 5 17 1 2-5 1-9 1-14h-5v11c-1 4-7 4-8 0l-1-11h-5Zm23 0v17c5 0 10 1 14-1 3-2 3-7-1-8 2-2 3-5 1-6-4-3-9-1-14-2Z"/>
    <path fill="#FEFEFE" stroke="#FEFEFE" stroke-width=".1" d="M124 396h13v4h-8v3h8v3h-8v7h-5v-17Zm22 1c5-2 11-1 14 3 3 3 2 8-1 10-6 5-16 4-19-3-2-4 2-9 6-10Zm3 3c-3 0-5 4-4 6 2 5 11 5 11-1 1-4-4-6-7-5Zm22-3c6-2 15 1 15 8-2 10-19 11-22 1-1-4 3-8 7-9Zm2 3c-3 1-5 4-4 7 3 4 12 3 12-2 0-4-5-6-8-5Zm13-4h19v3l-7 1v13h-5v-13h-7v-4Zm22 0 12 1c3 1 3 5 1 7 3 1 4 6 1 8-5 2-10 1-14 1v-17Zm5 3v4c1 0 5 0 4-2s-3-1-4-2Zm0 7v4l5-1v-3h-5Zm19-10h6l8 17h-5l-1-3h-8l-2 3h-5l7-17Zm1 11h5l-3-6-2 6Zm16-11h4l1 14h9v3h-14v-17Zm17 0h4v14h10v3h-14v-17Zm25 4c5-5 11-4 17-3v4c-4-1-9-2-12 1-2 1-2 5 1 6 3 3 7 1 11 0v4c-5 1-11 2-15-1s-5-8-2-11Zm21-4h5v14h9v3h-14v-17Zm16 0h5l1 11c1 4 7 4 8 0v-11h5c0 5 1 9-1 14-4 4-13 5-17-1l-1-13Zm23 0c5 1 10-1 14 2 2 1 1 4-1 6 4 1 4 6 1 8-4 2-9 1-14 1v-17Zm5 3v4c2 0 5 0 5-2-1-2-3-1-5-2Zm0 7v4l6-1v-3h-6Z"/>
    <path fill="#3A64A3" stroke="#3A64A3" stroke-width=".1" d="M149 400c3-1 8 1 7 5 0 6-9 6-11 1-1-2 1-6 4-6Zm24 0c3-1 8 1 8 5 0 5-9 6-12 2-1-3 1-6 4-7Zm40-1c1 1 3 0 4 2s-3 2-4 2v-4Zm143 0c2 1 4 0 5 2 0 2-3 2-5 2v-4Zm-123 8 2-6 3 6h-5Zm-20-1h5v3l-5 1v-4Zm143 0h6v3l-6 1v-4Zm-220 30h220l-106 44c-2 1-5 3-7 1l-107-45Z"/>
    <path stroke="#3A64A3" stroke-width=".1" d="m80 436 1 1m322 3h1m-311 2 1 1m303 0 2-1m-8 3h2m-15 6 2-1m-7 4 1-1m-7 3 1-1m-243 1 1 1m5 2h1m222 3 1-1m-7 3 1-1m-205 1 1 1m5 2 1 1m6 2 1 1m146 12 2-1m-117 2 1 1m109 1 1-1m-105 1 1 1m97 1 1-1m-8 4h1m-79 1 1 1m71 1 1-1m-13 6 2-1m-43 2 1 1m33 1 1-1m-30 2 2 1m21 0h2"/>
</svg>
