<svg xmlns="http://www.w3.org/2000/svg" fill="none" viewBox="0 0 512 512">
    <g clip-path="url(#a)">
        <path fill="#fff" stroke="#0053A0" stroke-width="13.2" d="M512 256a256 256 0 1 1-512 0 256 256 0 0 1 512 0Z"/>
        <path fill="#0053A0" fill-rule="evenodd" d="M19 259a237 237 0 1 1 474-6 237 237 0 0 1-474 6ZM253 16a240 240 0 1 0 6 480 240 240 0 0 0-6-480Z" clip-rule="evenodd"/>
        <path fill="#0053A0" fill-rule="evenodd" d="M247 99a142 142 0 0 0-85 30c13 5 22 12 36 20 7-34 49-25 53-50h-4Zm18 0h-1c-1 5 4 9 7 12l1 1c18 7 39 13 43 34l1 1 30-20v-1c-23-16-51-26-81-27Zm-116 41a147 147 0 0 0-42 61c18 1 24-22 38-30v-1c-1-10-2-19 4-30Zm218 5c1 8 1 16-2 23l1 1c13 7 20 28 35 28h1c-6-18-21-40-35-52Zm39 64c-18 19 12 50-29 68l-10 2c-9 0-22-7-22 7 13 6 30 17 30 36 1 21-22 36-18 56 48-42 68-104 49-169Zm-303 3v1c-18 50 0 128 56 169l1-5v-2c-2-9-7-18-12-27-18-29-8-49 20-63h1l-2-3v-1c-7 1-14 2-21 1-9-2-19-6-26-16-13-18 5-42-16-54h-1Zm266 73h1c7 1 16 5 22 12v1c-10-1-20-2-27-7-1-1-2-2-1-4l3-2h2Zm-227 4h3c1 2 1 5-2 7-7 5-15 5-23 5v-1c7-6 14-11 22-11Zm126 84h-1c-5 3-14 4-19 1l-1 1c-10 15-31 15-46 11-12-3-23-6-32 3 48 34 121 36 177-2-11-5-20-2-32 1-13 3-31 6-46-15Zm-10 4h1l3 2 1 2c0 7-2 14-4 20 0 1 0 1 0 0-3-8-8-17-2-24h1Zm15-344 3 6-6 31c0 2-2 3-4 5l44 8c0-5 3-7 4-11-3 2-8 3-13 2l-20-4 2-11 16 3c4 1 7-4 9-7l-6 1-18-4 2-10c8 2 25 3 31 10 0-4-2-9 0-11l-44-8Zm-5 0-42 1c2 4-1 7-1 11 3-3 13-4 17-4l1 31c1 2-1 3-2 4l16-1c-2-2-3-2-3-5l-2-30c5 0 14 1 18 3 0-4-4-8-2-10Zm-47 3c-7 1-22 2-28 7-7 5-9 16 0 20 6 3 17 0 23 1 4 0 5 5 3 8-6 5-21 5-28 3l6 11c2-2 6-2 8-3 6 0 19-4 22-8 5-5 5-13 1-17s-16-4-21-3c-3 0-5 1-8-1-2-1-2-5 1-7 5-2 16-3 21-1V36Zm111 9v7l-13 26c-1 2-3 4-6 5l15 7c-2-6 2-11 4-16 3 2 9 4 10 7 2 3 2 6 3 10 0 3 0 5-3 6l16 8c-4-7-2-16-6-23 3 0 8 1 11-1 5-3 7-8 5-15-1-4-5-6-8-7l-28-14Zm-162 4-38 21 5 4 15 26v7l39-21c-3-1-1-7-2-11-1 3-5 6-8 8l-21 12-5-10 17-9c2-2 1-6 1-9l-4 2-17 10-5-9c8-3 22-13 30-12l-7-9Zm171 8 12 7c9 4 3 14-4 10l-14-6 6-11ZM123 77l-4 4c-5 2-15 11-18 16-3 7-3 13 1 20 4 9 11 13 20 13 10-1 18-9 22-14l7-7-8-8-5 9c-3 4-8 10-14 10-6-1-8-3-11-6s-4-7-4-12 11-15 18-15l-4-10Zm-36 35-11 13 7 1 24 19c2 1 3 3 3 6l10-13c-2 1-5 1-6-1l-24-18c-2-2-3-4-3-7Zm-19 24-20 39h7l27 13 5 6 19-39-3-2-6-7c1 4 0 9-2 13l-9 20-10-5 9-17-5-9-2 5-9 18-10-5 10-19c2-4 5-6 8-8l-9-3Zm6 56c2 3 2 6 2 9 1 5-2 15-3 20l-29-6-5-5-4 17c2-2 4-3 6-2l30 6c3 1 5 3 6 5l9-38h-4l-8-6Zm1 84c-2 3-4 4-6 5l-30 7c-2 1-4 0-6-2l4 16c4-5 11-5 16-7l5 18c2 2 6 3 9 4l-3-5-4-19 11-2c2 7 6 21 3 28 3-1 6-5 10-4l-9-39Zm0 46h-4c-8 2-15 6-19 14-4 12 5 30 17 35 8 2 15 0 21-4 5-4 9-10 9-18-1-9-6-18-13-23-4-3-7-4-11-4Zm0 10c4 0 9 1 12 6 4 5 5 11 2 15-4 5-10 8-17 8s-14-9-12-18c2-7 10-10 15-11Zm28 35-6 1c-8 3-13 8-16 17-3 12 10 28 23 30 8 1 15-2 20-7 4-4 7-11 6-19-2-9-10-17-18-21-3-1-7-2-9-1Zm4 9c3 0 6 2 9 4 4 4 6 9 4 15-3 6-8 10-14 11-7 1-16-9-15-16s5-10 9-12l7-2Zm31 18c0 4-4 3-8 8 5 0 13 4 17 7l-17 26-5 2 14 9c-1-3-1-5 1-8l15-22 1-1c4 2 11 8 12 13 2-4 2-9 5-10l-35-24Zm37 25v8l-9 28c-1 2-2 3-5 4l29 10c10 3 19 1 20-10 1-6-6-9-8-10 7 1 11-3 11-9 1-4-3-9-12-12l-26-9Zm138 8-15 5 5 4 9 27c1 3 2 6 1 9l35-12-1-3 1-9c-3 4-8 7-12 8-3 1-11 5-14 5l-10-28 1-6Zm-129 3c4 1 14 3 17 5 5 2 2 10-3 9l-17-4 3-10Zm47 5-1 3-18 30c-1 3-3 4-5 6l15 3c-1-3-1-6 1-9l25 2c1 3 3 7 0 9h15c-2-2-4-4-4-7l-11-33v-2l-17-2Zm47 0-17 2c2 2 4 3 4 5l4 28c1 3 1 7-1 9l38-5-1-3 2-9c-3 4-8 6-13 6l-14 2-4-29c-1-2 0-4 2-6Zm-40 7 7 20-18-1 11-19Zm-58 4 14 5c9 3 6 14-3 11l-15-5 4-11ZM398 91c-6-1-10 1-15 5s-8 10-8 18c0 6 7 16 15 21 2 2 6 4 6 7l9-8c-7-2-18-9-20-16-1-6 0-8 3-11 5-6 9-8 17-6 6 2 12 10 12 16l10-5c-2-1-4-3-5-6-4-6-12-14-21-15h-3Zm36 30c0 5-3 6-6 8l-21 15c-2 1-5 3-8 2l9 13 5-7 23-16c3-1 4-2 7-1l-9-14Zm14 20c-2 3-7 1-11 3 4 2 9 10 11 14l-27 13h-6l7 14c1-3 4-5 7-6l24-12c2 5 6 13 4 17 4-1 5-6 9-5l-18-38Zm20 42c-1 4-4 7-7 10l-15 17-7 2c-4 0-6 1-9-2l4 17c2-3 3-5 7-5 3-1 5-2 8-1l30 15-3-16c-1 2-3 2-4 2l-18-8 12-12c2-2 4-3 6-1l-4-18Zm-23 96c-2 0-4 0-6 2-4 3-5 7-6 11l-6 27c2-1 4-2 6-1l30 6 5 5c2-10 8-28 7-38 0-8-7-13-14-11-4 1-6 6-7 9 0-5-4-10-9-10Zm0 11c3 0 5 3 5 6l-3 14-10-2 2-12c1-4 4-6 6-6Zm18 1c3 0 6 3 5 6l-3 17-12-2 4-15c1-5 4-6 6-6Zm-37 30-8 15h6l18 10c3 1 5 4 6 8 0 4-4 10-8 12-3 1-7 0-9-2l-16-9c-2-1-4-2-4-6l-8 15c3-2 6-1 9 1l15 8c3 3 7 4 13 3 4-1 8-6 11-10 3-5 6-11 5-16 0-5-3-9-7-12l-17-10c-2-1-6-3-6-7Zm3 57c0 5-2 10-6 14l-9 11-21-18c-2-2-4-4-4-7l-10 11c3 0 5 1 7 3l22 18c2 2 3 4 3 8l26-30-3-1-5-9Zm-51 12c-2 3-6 5-9 6-6 3-15 10-17 19-2 7 0 13 4 19 4 5 9 8 16 9 8-1 17-6 23-12 2-2 4-5 7-5l-7-9c-2 5-10 14-16 16-5 1-8-1-12-4-4-4-7-9-5-15 3-8 13-14 20-13l-4-11Z" clip-rule="evenodd"/>
        <path fill="#0053A0" fill-rule="evenodd" d="m257 100-2 8-1 2c-18 19-41 13-50 41-1 2 0 5 4 7h1c-1-30 40-28 49-49 7 14 20 16 31 22 8 5 15 9 16 23h1c1-1 4-2 4-4-3-20-25-25-43-33l-2-2c-4-4-7-9-8-15Zm0 26h-1v2l1 1 1-1v-2h-1Zm6 5v3h1v-3h-1Zm-11 0-2 2v1l2 1 1-1v-2l-1-1Zm6 10-5 17h7c-2-7-2-9-2-17Zm-111 36c-17 12-21 33-43 29 15 7 15 25 16 41 2 14 12 32 40 28h1c-2-3-8-2-10-2-22-4-26-25-30-48-1-7-6-11-8-16v-1c14-3 25-15 36-28v-1l-2-2Zm-2 27h-1v2l1 1h1v-3h-1Zm6 6v3h1l1-1-1-1v-1h-1Zm-11 1-1 1v1l1 1 1-1v-2h-1Zm7 9c-1 8-4 16-7 21 4 0 6 2 6 4 1-2 3-4 5-4l-4-21Zm23 71c-26 10-31 34-17 54 11 18 16 26 11 40 20-24 56 15 76-15v-1l-3-1h-2c-8 9-36 7-56 7l-3 1-6 2-2-2c1-15-7-24-13-37-2-4-15-28 16-42l1-1-1-4-1-1Zm24 29h-1v2l1 1h1v-3h-1Zm6 5v3h1l1-1h-1v-2h-1Zm-11 1-2 1v1l2 1h1v-2l-1-1Zm6 9c-1 8-4 16-7 21 4 0 6 2 6 4 1-2 3-4 5-4l-4-21Zm146-44v1l-2 3c0 1 0 3 2 3 37 15 19 44 9 61l-4 9v7l-1 1c-24-5-44 16-64-7-1-2-3-2-4-1l-2 2v2c20 28 50-6 75 9-6-15 6-29 13-41 15-26-3-41-22-49Zm-19 28h-1v3l1 1 1-1v-2l-1-1Zm6 6v3h1v-3h-1Zm-12 1-1 1v1l1 1h1v-3h-1Zm7 9-6 21c3 0 5 2 5 4 1-3 3-5 5-4l-4-21Zm41-158-1 3v1c6 3 21 21 35 24l1 1c-17 19 3 50-30 61-6 2-12 1-13 5 20 2 32-5 36-19 5-16-4-38 12-50 1 0 1-1 0 0-17 1-27-17-40-26 0 0 0-1 0 0Zm5 26h-1v1l1 1v1l2-1v-2h-2Zm6 6h-1l1 3h1v-3h-1Zm-12 0-1 1v1l1 1h1v-2l-1-1Zm6 9c0 7-3 16-6 21 3 0 6 2 6 4 1-3 3-5 5-4l-5-21Z" clip-rule="evenodd"/>
        <path fill="#0053A0" fill-rule="evenodd" d="M353 131h-1c-15 5-35 22-51 37l-2 1c-11-4-24-5-35-5-15-1-33 1-50 6l-2-1c-13-15-31-26-51-35h-1c-11 10-8 38 0 53l2 7c0 8 2 15 4 23 1 4 2 9 5 13v2l-10 10h-1c-3 1-4 2-5 5v1l6 10c3 2 2 5 0 7l12 10c0 3 5 4 2 7l2 1v1l3 11c9 15 19 12 30 25 7 7 13 7 18 20 0 5-1 8 1 13 3 5 9 5 16 9l3 1 7 5h6c4-3 5-1 12-6 6-2 16-10 15-23l1-1 1-2 7-10 2-2c25-21 16-12 26-19 19-14 6-31 28-41-3-6-2-7 8-20l-12-9c-11-9-1-16 0-20l2-9c1-7 0-16 4-20 3-2 3-17 4-18 3-9 2-11 2-16v-3l-7-17-1-1Zm-9 23c-1 11-6 19-4 29-5 6-4 18-8 25h-2c-6-1-10-9-15-13l-1-1c2-5 7-10 3-14 1-14 17-16 27-26Zm-177 2c10 5 16 14 21 14l3 4c7 8 1 11 7 21v4l-11 11c-5 6-7 4-8 0-1-3-2-5-1-8 1-2 0-3-1-5l-4-7-1-3c-2-10-1-26-5-31Zm120 101 1 1-1 1-1-1 1-1Zm-66 0 2 1-2 1-1-1 1-1Zm106 28 1 2c-1 14-7 10-22 24-4 3-3 6-8 10l-12 14c-1 1-1 0-1-1l-2-3c-3-3 1-2-3-9-2-3-4 1-5-4l-1-7 2-3c1 4 3 7 5 9l1 6c0-4 4-6-1-14l-2-3c10-6 21-12 32-16l-2 2h2v1l-1 3 6-7 1-1 2 1 2-1 5-2 1-1Zm-140 3 16 5 5 2c0 1 0 0 0 0l-1-2 25 14h-1v2l-1 1v1l-1 1v2l-1 1v3l1 2h1v-2l1-2h1l2-3 1-1v-1l1-1 5 4-2 7c-1 5-4 4-6 2 0 5 0 7-2 11h-1c-7-13-13-10-21-23-1-2-2-4-5-5-10-4-17-6-17-18Zm90 41v1c2 5 5 13 4 16-3 11-11 13-18 12-6-1-6-2-6-6l1-1c7-2 11-5 11-12v-3l5-4v-1l2-2h1Zm-38 1v1h1c1 2 2 3 4 3l-1 2v4l1 3c2 4 4 6 7 8l4 1c0 6-3 6-9 5-15-2-16-12-8-26l1-1Zm18 31h6l1 1-2 2h-1l-4 1-2-1-4-2 1-1h5Z" clip-rule="evenodd"/>
        <path fill="#FDBE11" fill-rule="evenodd" d="M351 142c-17 6-37 18-47 33l-14 10c10-12-9-13-31-16-16-1-34 4-40 7l-1 2c2 2 2 5 3 7v1a274 274 0 0 0-60-44l-1 4-2 2c-5 6 4 16 6 35 1 8 3 11 5 17v2c3 9 4 18 8 26 4 13-12 11-13 21 0 8 9 12 7 17v1c6 7 9 6 12 11 6 11 13-1 24 15l25 14 1-7c1-6 1-12-3-20l1-4h1c1 11 10 18 5 29l-1 1v4l5 4 1-2c2-12 4-32 6-35-2-3-5-6-4-7 2-1 8 2 8 6a185 185 0 0 1-10 51c3 3 2 4 1 4h-3c1 2 2 3 4 3l3-1c8-1 15-1 20 1l2 2 5-4-2-1c-3-16-6-19-8-31v-28l3-5 2-4c1-1 6-9 10-10l1-1-1-1c0-3 19-1 29 0a120 120 0 0 0 12-1c-3 3-8 5-11 5l-2 1c-2 12-18 17-25 16 0 6-2 6-5 23l1 3 1 8c10-6 21-12 32-16l6-7 3-2c8-3 16-8 23-15v-1c-2-9 4-12 8-19l-1-1c-4-3-8-6-10-10l-2-3c-3-14 4-15 5-23l2-13c1-5 2-9 4-11 1-25 8-19 6-32l-3-11h-1Zm-5 5h1l1 1 1 5c-5 13-2 31-9 43-1 10-2 16-8 20h-1c-9-5-18-14-26-22 13-8 2-17 11-26 10-11 19-13 29-21h1Zm-182 0 3 2c10 4 9 8 16 11l6 3 6 9c1 2 4 4 4 6l1 4c-1 3-2 6 0 8l3 3c2 0 2 1 2 2l-8 11-2 2c-6 3-10 8-15 12-5-3-6-7-7-14-1-16-5-2-10-51-1-2-2-6-1-7l2-1Zm107 32c-4 8-6 7-9 10v1l-1 1v7l-2-1-1-2v-2l-1-1v-2l1-1 13-10Zm-30 1 13 10v2l-1 5h-1l-2-3-1-1a10 10 0 0 0 0-2v-1l-3-1-2-2-2-2-1-5Zm53 39a13 13 0 0 1 6 1v1l-5 1-2 1-12 7-1-1v-3l2-1 3-2 1-1 2-1 2-1 2-1h2Zm-81 1h2l2 2h1l2 1 3 1a15 15 0 0 1 5 3l2 1v2h-2a6 6 0 0 1-2-1l-1-1a7 7 0 0 0-2-1h-3l-1-1c-2-1-6-3-6-6Zm6 28h2l2 1h4l1 1a24 24 0 0 1 6 3h1l1 1v1l2 1 1 1 2 2v1l1 1 1 2 1 1-1 3h-1a33 33 0 0 1-3-2h-1l-1-2c-5-4-8-9-15-10h-16a47 47 0 0 1-7-1h-2l-4-2a172 172 0 0 0 19-1h2l2-1h3Zm72 6c-3 0-6 1-10 4-5 5-10 12-13 18l-1 2 7 33 2-3-2-16 4-16c3-6 3-8 6-8h7l3-1 10-10v-2c-5 1-9-2-13-1Zm-2 0 3 1 3 3v2a6 6 0 0 1-8 5h-1l-1-1a6 6 0 0 1-1-7h1v-1l1-1h1l1-1h1Zm-65 0a6 6 0 0 1 3 1l1 1 1 1v2a6 6 0 0 1 0 4 6 6 0 0 1-11-5l1-1v-1h1v-1h2l1-1h1Zm-19 3h1l1 1 1 1h1l1 1 1 1a92 92 0 0 0 4 3h1l1 1a24 24 0 0 0 3 1l1 1h2a29 29 0 0 0 4 1 28 28 0 0 0 3 0l1 1-3 2h-3a56 56 0 0 1-8-1l-1-1a36 36 0 0 1-4-3l-2-2-2-2-1-1-1-1-2-2v-1h1Z" clip-rule="evenodd"/>
    </g>
    <defs>
        <clipPath id="a">
            <path fill="#fff" d="M0 0h512v510H0z"/>
        </clipPath>
    </defs>
</svg>
