<svg xmlns="http://www.w3.org/2000/svg" fill="none" viewBox="0 0 512 512">
    <g fill="#E51B24" clip-path="url(#a)">
        <path d="m314 512-5-1c-11-2-21-7-28-15a50 50 0 0 1-6-50c6-12 15-20 26-23 11-4 22-4 32-2l10 2 2 2a687 687 0 0 0 0 17l-1-1c-4-4-9-8-15-9-6-2-13-4-19-2-11 4-18 11-21 22-4 14-2 28 8 39 4 6 10 8 17 9 8 1 15 0 21-3 4-2 7-4 9-7l1-1a265 265 0 0 0 0 15c0 1 0 2-2 3-8 3-15 4-23 5h-6ZM180 108l4 1c3 0 5 2 7 4l2 1 7-3c0 3-4 8-9 10-3 2-6 1-9-1s-4-5-6-8l-2 2c-2 1-3 2-3 4 1 3-1 5-2 6l-3 2c-2 3-4 5-2 8-6 1-10-3-9-9l5-7 7-4 5-3 1-2c-2-1-4 0-5 1l-6 3c-4 2-8 2-13-1l-2-4c4 2 6 0 9-1l4-2c5-2 10-2 15 2l6-8-3-1-2-2v-2h6l1-2 2-8c-6 1-12 2-18 5l1-3c2-4 5-6 8-8l8-3-4-7 6-1 1 1 2 6 1 1 11-1c-2-4 0-6 4-8 3-2 6-1 9-1 9 0 17 3 26 6l22 6c5 0 9 0 12-3l1-2h2v2l-3 6c-3 4-8 5-13 6l-12-1h-3v1c-1 0 0 0 0 0 7 3 10 13 9 20-1 5-3 9-6 13l-15 18c-6 7-12 14-17 23a48 48 0 0 0-4 32l2 4h5l4-9 7-26c3-10 8-18 14-26 7-8 15-14 23-21l25-22c11-12 21-24 28-39l6-18c1-5 0-10-3-15v-2h3c8 4 12 9 12 18 1 10-3 19-8 28-6 10-13 19-21 27-10 11-22 20-32 29l-20 18c-9 10-15 22-19 34l-4 16c-3 7-7 12-14 16l-1 1 2 1c5 0 9-3 12-6 6-5 9-12 12-19l5-13c2-7 7-13 13-17l24-17c12-9 24-17 35-28A180 180 0 0 0 378 4V1l1-1h1l4 5c5 8 5 16 3 24l-11 25c-14 25-32 47-55 65-12 10-25 18-38 27l-7 4-1 2h2l21-9c2-1 2 0 3 2 0 4-2 8-5 11l-18 10-9 3-2 1 2 1c10-2 19-4 28-8h2l1 2-5 7c-4 4-8 6-13 7l-13 4-2 1c11 1 20-1 30-3 1 2 0 3-1 5-6 8-15 10-24 12h-4l-1 1 1 1 19 1h2v2l-5 5c-5 4-10 5-16 6h-2v1l7 4c14 5 28 8 44 8h1l-1 2c-6 6-14 11-23 12-7 1-14-1-20-3-8-3-16-8-23-15l-6-6h-2v1l5 9c5 7 12 13 18 18l18 16a57 57 0 0 1 16 56l-1 2-1 1-1-1v-5c0-14-4-26-14-36l-19-19c-7-6-13-13-18-20l-10-20-1-2-1 2 2 11c3 8 7 15 12 21 8 10 17 18 27 26l1 2c-2 14 0 27 8 39l9 8 2 2-3 1c-4 1-8-1-11-2l-5-3v5a229 229 0 0 0 12 53c2 7 6 8 14 8h10l5 2c3 2 3 4 2 7l-4 5-3-1c-1-3-4-4-8-4a117 117 0 0 0-45 0l-6 3c-2 1-4 2-4 5-2 0-4-1-5-3-2-4 1-6 4-8v-1c-3 0-6 0-9 2l-2 3h-2c-2-1-2-4-1-6 2-4 5-5 9-4h2l1-1c-1-4 1-5 4-5h9l11 4h3c2 1 3-1 3-2l-1-3a206 206 0 0 1-18-61l-5 5-6 3v-1c3-9 3-17 1-26l-2-8-2-1a155 155 0 0 1-77-30 60 60 0 0 1-22-40c-1-13 1-26 7-37 6-14 16-25 27-34l27-22 12-12c2-3 3-6 3-10 1-7-4-13-12-14l-12 2-9 1-2 2-5 8Zm46 154 1-1-2-1-3-2c-7-5-14-11-19-18a70 70 0 0 1-14-48c2-12 6-22 12-32l1-2-3 1c-6 5-10 11-14 17-7 12-9 25-7 39 3 14 11 25 22 34 7 6 16 10 25 13h1ZM190 93h2l9-4c1 0 2-1 1-2l-2-2-9-1-1 9Zm35-14h-1a2269 2269 0 0 0-15-2c0 3 2 5 5 5l11-3Z"/>
        <path d="m208 404-2-4-9-3a193 193 0 0 0-43 2l-4 2c-2 1-3 3-2 5-2 0-4 0-6-2v-5l4-5 2-1c-3-2-11 1-15 6l-3-4c0-2 1-4 3-5l7-2h4l1-4 6-2 9 2 7 2c3 1 6 0 9-3l5-10c10-15 19-32 25-49l2-8 1-1c-6 4-10 9-17 9 5-12 7-24 8-37 10 5 19 9 29 10 1 11 3 22 10 32l-1 1-3-1-9-6-1-1-2 10c-1 6-5 11-9 16l-24 35-2 2c0 2 0 3 2 3l3 1h15l2 1c3 1 4 3 4 6s-2 7-5 7l-1 1Zm14 55c8 0 15-1 22-7l1 2a1010 1010 0 0 0-1 21l-2-1-5-3c-5-2-10-2-15-2v28c0 4 2 8 5 11v2l-1 1h-25l-1-1v-2c4-4 6-9 6-14l1-6-1-49c0-5 0-9-3-13l-3-4 2-1a24750 24750 0 0 0 47 0l1 12 1 3-1 2h-2c-3-3-6-4-10-5l-15-2-1 1-1 26 1 1Zm-83 40c12 1 22-2 31-10l1 3a683 683 0 0 0-8 18h-47l1-2c3-4 5-8 6-13v-58c0-5-1-10-5-14v-1l1-1h26l2 2c-3 1-5 3-6 6l-2 9v61Zm126-261h2l24 9c8 4 17 7 24 12 15 10 25 24 27 43 2 15-2 28-9 41l-5 9-2 2v-2c4-15 4-29-1-43-6-19-17-36-33-49l-21-16-5-5-1-1Zm38-83 1-1c2-4 3-8 1-13v-2a324 324 0 0 0 82-70h1l2-1v1l-2 8c-4 11-11 21-20 29-15 17-33 31-52 42l-11 7h-2Zm49-103c-1 4-2 9-5 14a173 173 0 0 1-56 59l-27 20-2 1c-1 0-2-1-1-2l1-2 20-18 28-25c13-11 23-24 30-40 3-5 4-11 5-17v-5l1-2 1 1c4 4 5 9 5 16Zm-51 123c3-4 5-9 3-15l10-5c20-11 38-24 53-40l3-2 1-1 1 2-3 9c-5 9-12 16-19 23-14 12-30 21-46 29h-3Zm-6 20 1-1c4-4 6-8 6-13l1-2c16-6 31-14 45-24l9-7 2-1v2c-1 4-3 7-6 11-6 7-13 14-21 19-10 7-21 13-34 16h-3Zm-12 22 8-7c3-3 4-6 3-10l17-4c10-3 19-8 28-14l5-4h2v2l-5 8a91 91 0 0 1-55 29h-3Z"/>
        <path d="M396 41c-1 7-2 13-6 18-10 14-21 25-33 36l-13 11v1h-2v-2l10-10a187 187 0 0 0 40-63l1-2 1 2 2 9Zm-89 181-13-1h-1l-1-1 1-1h5c10-2 19-6 28-11l2-1v2a312 312 0 0 1-11 12l-10 1ZM188 504c0 4-3 7-6 7-4 0-7-3-7-7 0-3 3-6 7-6 3 0 6 3 6 6Zm52 0a6 6 0 1 1 13 0c0 4-3 7-7 7-3 0-6-3-6-7Zm129 0c0 4-3 7-7 7-3 0-6-3-6-7 0-3 3-6 6-6 4 0 7 3 7 6Z"/>
    </g>
    <defs>
        <clipPath id="a">
            <path fill="#fff" d="M0 0h280v512H0z" transform="translate(116)"/>
        </clipPath>
    </defs>
</svg>
