<svg xmlns="http://www.w3.org/2000/svg" fill="none" viewBox="0 0 512 512">
    <g clip-path="url(#a)">
        <g clip-path="url(#b)">
            <path fill="#00285E" d="M256 0a256 256 0 1 0 1 513 256 256 0 0 0-1-513Z"/>
            <path fill="#fff" d="M485 256a229 229 0 1 0-458 0 229 229 0 0 0 458 0Z"/>
            <path fill="#6CADDF" d="M402 256a146 146 0 1 0-292 0 146 146 0 0 0 292 0Z"/>
            <path fill="#00285E" d="M256 414a158 158 0 1 1 1-316 158 158 0 0 1-1 316Zm0-307a149 149 0 1 0 0 298 149 149 0 0 0 0-298Z"/>
            <path fill="#6CADDF" d="M256 502a246 246 0 1 1 1-492 246 246 0 0 1-1 492Zm0-486a240 240 0 1 0 1 481 240 240 0 0 0-1-481Z"/>
            <path fill="#6CADDF" d="m51 250-4 1-1-4 7-2h3v24h-5v-19Zm11 13c0-3 2-5 4-6-2-1-3-3-3-5v-1c0-3 4-6 9-6s8 3 8 6v1c0 2-1 4-3 5 2 1 4 3 4 5v1c0 4-4 7-9 7-6 0-10-3-10-7Zm14-1c0-2-2-3-5-3-2 0-4 1-4 3s2 3 4 3c3 0 5-1 5-3Zm-1-10c0-1-1-3-3-3-3 0-4 2-4 3 0 2 2 3 4 3s3-1 3-3Zm365 7-5 2c-5 0-9-3-9-8s4-8 9-8c4 0 5 1 7 2 2 2 3 5 3 9v1c0 7-4 13-10 13-4 0-6-2-8-3l3-4 5 2c3 0 4-4 5-6Zm0-6c0-2-2-4-4-4-3 0-4 2-4 4s1 4 4 4c2 0 4-2 4-4Zm22 11h-12l-1-4 13-15h5v15h3v4h-3v5h-5v-5Zm0-4v-8l-7 8h7Z"/>
            <path fill="#fff" d="M256 405a149 149 0 1 1 0-298 149 149 0 0 1 0 298Zm0-292a143 143 0 1 0 0 287 143 143 0 0 0 0-287Z"/>
            <path fill="#00285E" fill-rule="evenodd" d="M253 128c-73 0-115 10-115 10s-17 64-8 146c4 35 32 109 126 135 93-26 121-100 125-135 10-82-7-146-7-146s-43-10-116-10h-5Z" clip-rule="evenodd"/>
            <path fill="#97C1E7" fill-rule="evenodd" d="M368 265c-1 25-5 100-112 141-107-40-113-117-113-141h225Z" clip-rule="evenodd"/>
            <path fill="#fff" fill-rule="evenodd" d="M365 261c3-62-8-112-8-112s-40-8-101-8c-62 0-103 9-103 9s-11 50-8 111h220Z" clip-rule="evenodd"/>
            <path fill="#6CADDF" d="M259 404 145 266c-4 29 19 112 114 138Zm-80-139 105 127c11-5 19-10 26-16l-92-111h-39Zm73 0 78 94c8-8 14-16 19-24l-57-70h-40Zm114 0h-39l33 40c6-12 6-33 6-40Z"/>
            <path fill="#00285E" d="m302 317-2-2-7-2h-2c0-3-1-5-3-6h-1l-1-1-3-1-6-3-4-4-1-1-2-3-6-2h-1l-1-2-4-5-2-2-3 1-4 6-1 2h-1l-5 2h-1l-1 1-2 3-4 4-6 3h-1l-3 2c-2 1-4 3-4 6h-2l-7 2-2 2 1 2 4 6 2 1a10 10 0 0 0-1 8l1 1 2 3 3 6 1 6v4c1 3 2 5 4 6v8l1 2 3 1 6-2 2-1c2 2 5 3 7 3l2-1h2l7-2 6 1 1 1h4l6-2 2 1 6 2 3-1 1-2v-8c2-1 4-3 4-5v-1l1-2v-3l1-6 3-6v-1l2-3v-7l1-1 4-6 1-2Z"/>
            <path fill="#FFC758" d="M252 332c0-3 2-4 4-4s4 2 4 4-2 3-4 3-4-1-4-3Z"/>
            <path fill="#EE3124" d="m256 299-4-5 4-5 4 5c-2 1-4 3-4 5Zm-31 23-4-6-6 2 4 6c1-2 4-2 6-2Zm12 35-6 2v7l6-2v-7Zm38 0v7l6 2v-7c-2 0-4 0-6-2Zm11-35c3 0 5 0 7 2l3-6-6-2c0 2-2 4-4 6Zm-38 35c-3 0-5-2-5-5h-1l-3 6c0 4 3 7 6 7h2l9-2 8 1 2 1c4 0 7-3 7-7 0-2-2-4-4-6 0 3-3 5-5 5l-8-2-8 2Zm-3-7c0 3 2 4 4 4h1l6-1 5 1h2c2 0 4-1 4-4v-2h-1l-7-10h-6l-7 9-1 3Zm33-3c-1 3-4 4-6 3l-1 1c2 2 3 4 6 5s7-1 8-4v-2l1-9 4-6 1-3c1-3-1-7-4-8l-8 1 1 1c2 1 4 4 3 6l-4 7-1 8Zm-8 1c3 1 5-1 6-3v-7l3-4 1-2c1-2-1-4-3-5h-2l-12 4-1 1v2l-1 1v1l7 10 2 2Zm7-33c3 2 3 5 1 7l1 1c3-1 5-2 6-4 3-3 2-7-1-9h-1l-1-1-8-3c-3-2-4-4-5-6l-2-2c-3-2-7-1-9 2l-1 7c2-2 5-3 8-1l5 6c2 2 6 2 7 3Zm-1 8c1-2 1-5-1-6l-1-1c-2 0-3 0-5-2-3-1-3-3-4-4l-1-1c-2-1-5-1-6 1l-1 2v13l1 1h2l1 2h1l11-4 3-1Zm-29-17c2-1 5-1 7 1h1c0-3 0-5-2-7-2-3-6-4-9-2v1l-1 1-6 6-7 3-2 1c-3 2-4 6-2 9l7 4v-1c-1-2-1-5 1-7l8-3 5-6Zm7 4c-2-2-4-2-6-1h-1v1l-4 4-5 2-1 1c-2 1-3 4-1 6l1 1h1a11002 11002 0 0 0 13 4l1-2 2-1h1v-12l-1-3Zm-25 22c-1-2 0-5 3-6v-1c-3-1-5-2-7-1-4 1-5 5-4 8v2c2 2 4 4 5 8l1 7v3c1 3 5 5 8 4s4-3 6-5l-1-1c-3 1-5 0-6-3l-1-8-4-7Zm5-5c-2 1-3 3-2 5v1l3 5 1 6v1c1 2 3 4 6 3l1-1 1-1 7-10v-1l-1-2v-1l-1-1a887 887 0 0 1-15-4Z"/>
            <path fill="#FFC758" d="m292 199 26-9s-2 11-1 20c0 11 7 19 7 19l-33 11 1-41Z"/>
            <path fill="#D4A11E" d="M324 229s-6-8-7-18c-1-7 0-13 1-21-1 5-5 19-17 32-5 6-7 10-8 14v-63l-7 3-1 1h-1l-7 3h8l1-1 1-1h4l-1 66h3v-4l31-11Z"/>
            <path fill="#FFC758" d="M207 242s-5-4-6-10c-2-7 2-11 2-11l32-11s-2 6 0 13c2 9 7 15 7 15s-12-2-23 0c-11 1-12 4-12 4Zm-37-8s4-11 16-23c9-9 14-11 14-11s-5 7-7 19v17l-13-2h-10Z"/>
            <path fill="#D4A11E" d="M200 200s-5 7-7 19v17l-5-1c-14-3 12-35 12-35Zm19 8v-28l-7 2-1 1-1 1a231 231 0 0 0-7 3l8-1 1-1 1-1h4v25h2v-1Zm37-26h3v-27l-7 2-1 1-1 1a235 235 0 0 0-7 3l8-1 1-1h1l4-1-1 23Z"/>
            <path fill="#FFC758" d="M251 161h1v-4l-1 1-1 1 1 2Zm-40 25 1-1h1l-1-3-1 1-1 1 1 2Zm74-6 1-1v-3l-1 1h-1l1 3Z"/>
            <path fill="#D4A11E" d="M242 238s-5-7-7-15c-2-7 0-13 0-13s-4 11-12 18c-5 4-19 8-16 14l7-4h3v10h3v-10h22Z"/>
            <path fill="#FFC758" d="M203 219s-3-3-3-10c1-7 4-11 4-11l25-8s-2 3 0 9c1 7 6 11 6 11s-13 0-24 4c-6 1-8 5-8 5Z"/>
            <path fill="#D4A11E" d="M218 203c7-6 11-13 11-13v9c1 7 6 11 6 11s-11 0-21 3c-8 2-10 5-11 6-2-6 8-10 15-16Z"/>
            <path fill="#FFC758" d="M247 244s-7-5-9-15c-1-7 4-13 4-13l39-13s-2 8 0 17 10 20 10 20-16-4-30-3c-13 2-14 7-14 7Zm-8-62c-1-6 4-10 4-11l28-9-2 8c1 7 5 11 5 11s-11-1-24 4c-7 2-8 5-8 5s-3 0-3-8Z"/>
            <path fill="#D4A11E" d="m261 175 10-13-2 8c1 7 5 11 5 11s-12 0-23 4c-5 1-8 4-9 6-1-6 12-10 19-16Z"/>
            <path fill="#FFC758" d="M243 214s-4-4-5-11c-1-8 4-11 4-11l32-11v9c1 5 6 13 6 13s-17 0-28 4c-6 3-9 7-9 7Z"/>
            <path fill="#D4A11E" d="M264 196c7-6 10-15 10-15v9c2 7 7 13 7 13s-15 0-26 4c-7 2-12 6-12 8-2-7 14-13 21-19Zm28 45s-9-11-11-21c-2-7-1-15 0-17-1 3-5 15-13 23-9 7-25 11-21 18 0-1 2-4 9-5v9h3v-10c14-2 33 3 33 3Z"/>
            <path fill="#FFC758" fill-rule="evenodd" d="m307 262 7-1-1-1c-3-3-2-7 0-9 7-7 7-12 7-12s-18 4-41 5l-9 3h-9c-44 0-57-3-71-6-15-2-21-5-21-5v1l19 9 11 14h-52c-3-59 9-108 9-108s40-9 100-9v-6c-64 0-106 9-106 9s-19 65-9 143c4 32 31 93 114 121l4-5-4-5c-78-27-101-80-105-110l-2-20h108v-9h-56c1-4 5-5 10-4l15 2c12-1 10-4 11-4 12 1 17 4 28 4 9 0 13-3 14-3 12 0 16 5 28 6h1Z" clip-rule="evenodd"/>
            <path fill="#D4A11E" fill-rule="evenodd" d="M361 146s-42-9-105-9v6c60 0 99 9 99 9s12 49 9 108h-52c-4-4-2-9-1-10 6-6 6-9 6-9s-14 3-37 4l-10 3a323 323 0 0 1-82-6l1 2 12 3 7 6c4 2 10 4 15 4 12 1 10-4 11-4 12 0 20 5 31 4 9 0 10-3 11-3 9 0 19 4 27 7h-47v9h107l-2 20c-4 30-27 83-105 110v10c83-28 110-89 114-121 10-78-9-143-9-143Z" clip-rule="evenodd"/>
            <path fill="#00285E" d="m60 174 5-8 19-2-10-17 5-8 35 18-4 8-23-12 10 18-20 2 22 12-4 8-35-19Zm40-62 6-6 41 15-7 6-9-3-11 12 4 9-6 6-18-39Zm24 9-13-5 6 13 7-8Zm8-38 7-4 28 11-12-21 7-5 21 34-7 4-29-11 13 21-7 5-21-34Zm53-7c-3-11 3-22 14-26 8-2 13-1 17 2l-3 7c-4-1-8-2-11-1-7 2-10 8-8 15s8 11 14 9c5-1 7-4 9-7l7 3c-3 6-6 10-14 12-11 3-22-3-25-14Zm48-32h9v15h16V43h8l1 40h-8l-1-16-16 1 1 15-9 1-1-40Zm85 44 7-3c2 4 5 7 9 9 3 2 6 1 7-1s0-4-6-8c-6-5-10-9-6-16v-1c3-6 10-8 17-5 5 3 9 7 11 11l-6 4-8-8c-3-1-5 0-6 1v1c-1 2 0 3 5 8 7 5 10 10 7 16-4 7-11 9-19 5-5-2-10-7-12-13Zm58 3-10-8 5-6 26 20-5 6-9-7-19 25-7-5 19-25Zm63 56 8 16c2 5 2 9 1 12s-3 6-6 7c-6 3-11 2-15-2l-9 15-4-9 7-13-3-6-11 5-4-7 36-18Zm-10 24c2 4 5 5 8 4 4-2 4-5 2-9l-4-8-10 6 4 7ZM291 71l15 3 4-7-17-4 2-8 20 5 2-8-29-6-9 38 30 7 2-8-21-4 1-8Zm118 38-30 25 19 23 6-5-14-16 7-6 9 12 8-3-11-14 6-5 13 16 6-5-19-22ZM189 447c0-12 8-21 21-21 7 0 12 3 16 6l-6 7c-3-3-6-5-10-5-7 0-12 6-12 13s5 13 12 13c4 0 7-2 10-5l6 6c-4 4-9 7-17 7-11 0-20-9-20-21Zm46-20h9v40h-9v-40Zm29 8h-12v-8h33v8h-12v32h-9v-32Zm41 16-16-24h11l9 16 10-16h10l-15 24v16h-9v-16Z"/>
        </g>
    </g>
    <defs>
        <clipPath id="a">
            <path fill="#fff" d="M0 0h512v512H0z"/>
        </clipPath>
        <clipPath id="b">
            <path fill="#fff" d="M0 0h512v512H0z"/>
        </clipPath>
    </defs>
</svg>
