<svg xmlns="http://www.w3.org/2000/svg" fill="none" viewBox="0 0 512 512">
    <path fill="#000" d="M282 486c-2 6-8 21-23 21-18 0-24-19-24-20l-1-2a383 383 0 0 0 48 0v1Z"/>
    <path fill="#000" d="M328 477h4c-4 12-12 24-27 24s-22-8-25-14l-3-2s26-1 51-8Zm-139 0h-3c4 12 12 24 27 24 14 0 22-9 26-14l1-2s-25-1-51-8Z"/>
    <path fill="url(#a)" d="M271 487c-3 4-4 4-7 4-1 0-4 1-4 3 1 2 2 3 4 3 5 0 9-7 11-10h3s-5 16-19 16c-15 0-20-16-20-16a417 417 0 0 0 32 0Z"/>
    <path fill="url(#b)" d="M191 480c9 3 16 5 32 7l-4 1h-2c-1-1-3 0-2 2 0 1 1 3 4 3 4 0 8-3 10-6l4 1s-7 9-20 9c-14 0-20-13-22-17Z"/>
    <path fill="#FFE500" stroke="#000" stroke-miterlimit="3.9" stroke-width="3.6" d="M257 403c50 0 105-30 144-74 4-5 11-14 28-14s39 15 37 43c-2 21-31 67-81 95a255 255 0 0 1-255 0c-50-28-79-74-81-95-2-28 20-43 37-43s24 9 28 14c39 44 94 74 143 74Z"/>
    <path fill="#DA020E" d="M257 410c-50 0-107-29-149-77-4-5-10-11-23-11-7 0-16 4-21 10-5 5-9 13-8 26 1 17 29 61 77 89a248 248 0 0 0 248 0c48-28 76-72 77-89 1-13-3-21-8-26-5-6-14-10-21-10-13 0-19 6-23 11-42 48-99 77-149 77Z"/>
    <path fill="#000" d="M472 161v-11c4 2 11 2 15-2l2-8c0-3-1-7-4-9l-27-29-5-4c-2-1-8-4-13 4-4 6-4 16-3 19l14 19c4 6 18 18 21 21ZM181 41c17-6 33-11 54-13l3-1a53 53 0 0 0-35-16c-7 0-22 5-25 31l3-1Zm153 0c-18-6-33-11-54-13l-4-1c12-10 24-16 36-16 7 0 22 5 25 31l-3-1Z"/>
    <path fill="#000" d="M238 28c9-17 17-23 21-23 5 0 12 9 17 20l1 2h-5l-14-1-14 1-6 1Z"/>
    <path fill="#FFE500" d="m170 401-12 23c-4 6-8 11-14 7-7-3-5-9-1-16l12-22-10-6-13 24c-8 13 2 21 9 25 7 5 19 8 26-5l13-24-10-6Zm161 47-5-13 13-4-2-6-12 4-4-11 13-4-2-5-23 7 13 40 26-8-2-5-15 5Zm26-52-14 8 21 37 14-9c15-8 17-21 11-31-7-12-19-13-32-5Zm22 11c5 9 4 16-4 21l-4 2-15-27 4-2c10-6 15-1 19 6Zm-114 17v6l12-2 5 36 11-1-5-37 12-1-1-6-34 5Zm-10 0h-11l-3 42 11 1 3-43Zm-34-5-8 29-14-35-9-2-11 41 10 2 8-29 14 35 9 3 11-41-10-3Zm-58-266v198l94 61 95-61V154l-14-12H177l-14 11Z"/>
    <mask id="d" width="190" height="270" x="162" y="142" maskUnits="userSpaceOnUse" style="mask-type:luminance">
        <path fill="#fff" d="M163 153v198l94 61 95-61V154l-14-12H177l-14 11Z"/>
    </mask>
    <g filter="url(#c)" mask="url(#d)">
        <path stroke="#B54005" stroke-miterlimit="3.9" stroke-width="17.1" d="M163 73v278l94 61 95-61V73"/>
    </g>
    <path fill="url(#e)" d="M295 295v-7s-2-3-7-3c-4 0-7 1-7 2 0 2 4 8 14 8Zm-38-65 7-13 6 13h10c-6 5-8 14-8 19v6l-2 6 10 8v2l-6 4c-2 1-2 2-2 3 1 1 2 2 4 1l10-5c4-2 9-1 9-1v-7h-14v-23l-3-4 7-11 6 11-2 4v12h7v-12l-3-4 7-11 6 11-3 4v12h8v-12l-3-4 6-11 7 11-3 4v23h-14v10c3 3 6 10 6 14s-3 6-3 6l1 8-4 7v55c0 4-9 3-9 0v-53c-5-6-18-10-18-10-5 5-8 13-8 13 2 2 6 0 7-1 1-2 4-2 5-1s2 1 1 3l-1 9c0 2 3 2 5 2 4 0 5 5 4 8l-1 12v9l1 6c0 4-2 4-4 2l-32-34c-2 7 6 18 9 21 2 4 2 6 0 8-2 3-7 4-8 6s2 9 9 17c6 8-8 13-16 15-8 1-8-4-7-7v-8c0-2-2-6-6-11-3-4-3-8-2-19 2-10 1-17 1-17h-8c-6 0-10-3-10-15l-2-46c-1-3-4-4-5-4-2 0-2-2-1-3 4-2 9-7 7-9-2-3-8-3-13-1l-10 9c-1 1-2 1-2-1l-1-10-4-8c-1-1 0-2 1-1l7 2c2 1 5-1 6-3l4-10c2-2 4-2 5-1l5 2 3-1 2-2c0-2 1-1 2-1 4 26 15 27 15 27l-7 13-1 6c0 2 0 18 2 25 1 6 5 3 6 2l5-10 1-4-4-7c-1-1-3-4-3-10s5-10 7-11c2-2 2-4 1-5 0-5-5-15-8-18l-7-11h10l6-13 7 13h7Zm-2 39c4-5 5-10 5-10h-9l4 10Zm-9-26c0 3 2 4 4 3v-5l-4-3v5Zm18-5-4 3v5c2 1 4 0 4-3v-5Z"/>
    <path fill="#DA020E" d="M170 203v11h175v-11h-13v1H183v-1h-13Zm0-54h175v48H170v-48Z"/>
    <path fill="#FFE500" d="m200 183 14 3 7-20v-5l-21 22Zm110 12v-7h-12v-5h10v-23h-10l-3-6-3 6h-9v23h10v5h-25v-5h10v-23h-9l-3-6-4 6h-9v23h10v5h-25v-5h10v-23h-9l-3-6-4 6h-9v23h10v5h-20l-20-4 4 11h113Z"/>
    <path fill="url(#f)" d="M182 39c17-6 30-10 50-12-9-7-18-12-27-12-5 0-10 2-11 5-1 4 2 5 3 5l1-2s1-3 4-3 4 3 4 5-3 6-9 6-9-4-9-8c-3 4-5 9-6 16Z"/>
    <path fill="#000" d="m65 140 14-19c0-3 1-13-3-19-5-8-11-5-13-4l-5 4-27 29c-2 2-5 6-5 9s1 6 3 8c4 4 11 4 14 2l1 11 21-21Z"/>
    <path fill="#FFE500" stroke="#000" stroke-miterlimit="3.9" stroke-width="3.6" d="M257 113c78 0 122 73 132 86 17 22 38 41 63 35 35-9 33-62 33-62-8-6-23-14-50-52a218 218 0 0 0-356 0c-26 38-41 46-50 52 0 0-2 53 34 62 25 6 45-13 63-35 9-13 54-86 131-86Z"/>
    <path fill="#DA020E" d="M257 106c75 0 120 63 136 86 21 29 40 40 57 35 25-6 28-41 28-51v-1c-9-6-24-16-48-51-15-21-71-90-173-90-101 0-157 69-172 90-25 35-40 45-48 51h-1v1c1 10 4 45 29 51 17 5 35-6 57-35 16-23 60-86 135-86Z"/>
    <path fill="#FFE500" d="M217 53c-14 3-23 13-20 26 2 8 8 22 29 17 6-1 9-3 12-6l-4-5c-1 2-3 4-8 5-10 2-16-6-18-13-2-10 4-18 11-19 5-1 8 0 10 1l1-5c-3-2-7-3-13-1Zm115 60c8 5 16 4 20-3 3-4 3-8 0-15l-3-5c-2-3-3-5-2-8 2-2 5-2 8 0s5 5 5 7l5-2c-1-4-3-8-9-11-9-6-16-4-19 1s-2 9 0 14l2 4c2 3 5 7 3 10-2 4-6 4-9 2-4-3-5-6-6-9l-6 3c1 4 4 8 11 12Zm-60-63-1 18-16-1V50h-11l-1 42h11l1-19h16v20h11l1-42-11-1Zm158 134s7 4 14-3c6-5 4-13-2-19l-12-13-31 28 7 8 13-11 3 4-8 18 10 7 6-19Zm6-20c3 3 3 7 0 10-4 3-8 2-11-2l-2-2 10-9 3 3Zm-49-11 11-9 8 10 4-4-8-10 9-7 8 10 5-3-16-19-32 27 17 21 4-4-10-12Zm-12-64-4 5 9 8-24 27 8 7 24-27 9 8 4-4-26-24Zm-72 3 4-13 13 4 1-5-12-4 4-11 13 4 1-5-23-8-14 40 26 9 2-6-15-5ZM169 71l16 26-35-14-8 5 22 36 9-5-16-26 36 14 7-5-22-36-9 5Zm-49 39-7 7 20 40 5-5-6-10 10-11 11 5 8-9-41-17Zm17 19-7 8-8-15 15 7Zm-41 6-8 9 15 31-32-11-6 8 32 28 5-6-23-19 31 10 3-4-15-30 23 20 7-9-32-27Z"/>
    <path fill="url(#g)" d="M47 157v-10c16-14 23-29 23-29s-6-2-8-5c-2-2-2-5-2-7 1-3 3-4 4-5 2 0 5-2 9 3 4 6 3 16 2 19 0 0-7 13-28 34Z"/>
    <path fill="url(#h)" d="M64 120c-2 3-7 12-21 25-2 2-8 4-11 1l-2-6c0-3 2-6 3-7 3-2 15-14 23-24l2 5c1 2 2 4 6 6Z"/>
    <path fill="url(#i)" d="M257 410c-50 0-107-29-149-77-4-5-10-11-23-11-7 0-16 4-21 10-5 5-9 13-8 26 1 17 29 61 77 89 39 22 81 33 124 33"/>
    <path fill="url(#j)" d="M257 410c50 0 107-29 149-77 4-5 10-11 23-11 7 0 16 4 21 10 5 5 9 13 8 26-1 17-29 61-77 89-39 22-81 33-124 33"/>
    <path fill="url(#k)" d="M393 192c21 29 40 40 57 35 25-6 28-41 28-51v-1c-9-6-24-16-48-51"/>
    <path fill="url(#l)" d="M122 192c-22 29-40 40-57 35-25-6-28-41-29-51v-1h1c9-6 23-16 48-51"/>
    <path fill="url(#m)" d="M333 39c-17-6-30-10-51-12 10-7 18-12 28-12 5 0 10 2 11 5 1 4-2 5-3 5s-2-1-1-2c0 0-1-3-4-3s-5 3-5 5 4 6 10 6 9-4 9-8c3 4 4 9 6 16Z"/>
    <path fill="url(#n)" d="M258 17c0 3-4 6-8 6h-5l-1 2a545 545 0 0 1 28 0c-3-7-9-17-13-17h-1l-6 6c-2 3 6 3 6 3Z"/>
    <path fill="url(#o)" d="M468 157v-10c-16-14-23-29-23-29s6-2 8-5c2-2 2-5 2-7-1-3-3-4-4-5-2 0-5-2-9 3-4 6-3 16-2 19 0 0 7 13 28 34Z"/>
    <path fill="url(#p)" d="M451 120c2 3 7 12 21 25 2 2 8 4 11 1l2-6c0-3-2-6-4-7l-22-24-2 5-6 6Z"/>
    <path stroke="#000" stroke-miterlimit="3.9" stroke-width="3.6" d="M163 153v198l94 61 95-61V154l-14-12H177l-14 11Z"/>
    <path fill="url(#q)" d="M327 480c-10 3-16 5-32 7l4 1h2c1-1 2 0 2 2 0 1-1 3-4 3-4 0-8-3-10-6l-4 1s7 9 20 9c14 0 19-13 22-17Z"/>
    <path fill="#FFE500" stroke="#000" stroke-miterlimit="3.9" stroke-width="3.6" d="M12 277a43 43 0 1 1 87 0 43 43 0 0 1-87 0Z"/>
    <path fill="url(#r)" d="M22 276a34 34 0 0 1 67 0 34 34 0 0 1-67 0Z"/>
    <path fill="#DA020E" d="M64 307c-1 1-2-1-3-2-3-3-4-14-4-15l1-3c8 0 14-3 19-7 6-4 8-9 8-10h2l1 6c0 15-10 27-24 31Zm-8 1h-1c-6 0-12-2-16-4s-6-13-6-18c0-17 7-27 8-29s4-2 6-2l5 2 5 1c1 0 3 1 2 4s-5 11-5 20 1 17 3 22c1 3 1 4-1 4Zm-25-39-4-6v-4c3-5 7-9 12-11 0-1 1-1 1 1v6c-1 1-6 9-7 13 0 1 0 2-2 1Zm-1 28c-4-5-7-13-7-21l1-10h1l2 3c1 1 5 4 4 6v20c1 2 0 3-1 2Zm15-52a34 34 0 0 1 26 2l1 3c0 4-6 6-11 6l-14-3c-4-1-4-4-4-5s0-3 2-3Zm30 5 2 1 8 10c2 5-5 13-7 14-8 8-13 8-16 9-3 0-5-2-5-4 0-7 5-18 6-20l2-2c4-1 7-2 8-4l2-4Zm-19-9a36 36 0 1 0-1 73 36 36 0 0 0 1-73Z"/>
    <path fill="#FFE500" stroke="#000" stroke-miterlimit="3.9" stroke-width="3.6" d="M417 277a43 43 0 1 1 87 0 43 43 0 0 1-87 0Z"/>
    <path fill="#DA020E" d="M486 297c-1 1-2 0-1-2v-20c0-2 3-5 4-6l2-3h1l1 10c0 8-3 16-7 21Zm-3-29c-1-4-6-12-7-13v-6c0-2 1-2 1-1 5 2 9 6 12 11v4l-4 6c-2 1-2 0-2-1Zm-6 36c-4 2-10 4-16 4h-1c-2 0-2-1-1-4 2-5 3-14 3-22 0-9-4-17-5-20s1-4 2-4l6-1 4-2c2 0 5 0 6 2s8 12 8 29c0 5-2 16-6 18Zm-25 3c-14-4-24-17-24-31l1-6h2c0 1 2 6 8 10 5 4 11 7 19 7l1 3c0 1 0 11-4 15-1 1-2 3-3 2Zm-20-46c1-4 4-7 7-10l2-1 2 4 8 4 2 2c1 2 6 13 6 20 0 2-2 4-5 3-3 0-8 0-16-8-2-1-9-9-6-14Zm13-14a34 34 0 0 1 26-2c2 0 2 2 2 3s0 3-4 5l-14 3c-5 0-11-2-11-6l1-3Zm15-6a36 36 0 1 0 0 73 36 36 0 0 0 0-73Z"/>
    <path fill="url(#s)" d="M428 276c0-18 14-33 33-33 18 0 33 15 33 33s-15 32-33 32c-19 0-33-14-33-32Z"/>
    <defs>
        <radialGradient id="a" cx="0" cy="0" r="1" gradientTransform="matrix(16.9293 0 0 12.5848 259 495)" gradientUnits="userSpaceOnUse">
            <stop stop-color="#FFE500"/>
            <stop offset=".5" stop-color="#FFE500"/>
            <stop offset="1" stop-color="#E15007"/>
        </radialGradient>
        <radialGradient id="b" cx="0" cy="0" r="1" gradientTransform="matrix(17.9013 0 0 16.0957 212 489)" gradientUnits="userSpaceOnUse">
            <stop stop-color="#FFE500"/>
            <stop offset=".5" stop-color="#FFE500"/>
            <stop offset="1" stop-color="#E15007"/>
        </radialGradient>
        <radialGradient id="f" cx="0" cy="0" r="1" gradientTransform="matrix(20.4665 0 0 19.4871 204 28)" gradientUnits="userSpaceOnUse">
            <stop stop-color="#FFE500"/>
            <stop offset=".5" stop-color="#FFE500"/>
            <stop offset="1" stop-color="#E15007"/>
        </radialGradient>
        <radialGradient id="g" cx="0" cy="0" r="1" gradientTransform="matrix(15.83614 -27.73333 24.39651 13.93077 55 132)" gradientUnits="userSpaceOnUse">
            <stop stop-color="#FFE500"/>
            <stop offset=".5" stop-color="#FFE500"/>
            <stop offset="1" stop-color="#E15007"/>
        </radialGradient>
        <radialGradient id="m" cx="0" cy="0" r="1" gradientTransform="matrix(-20.4665 0 0 -19.4871 311 28)" gradientUnits="userSpaceOnUse">
            <stop stop-color="#FFE500"/>
            <stop offset=".5" stop-color="#FFE500"/>
            <stop offset="1" stop-color="#E15007"/>
        </radialGradient>
        <radialGradient id="n" cx="0" cy="0" r="1" gradientTransform="matrix(15.4622 0 0 14.7792 257 18)" gradientUnits="userSpaceOnUse">
            <stop stop-color="#FFE500"/>
            <stop offset=".5" stop-color="#FFE500"/>
            <stop offset="1" stop-color="#E15007"/>
        </radialGradient>
        <radialGradient id="o" cx="0" cy="0" r="1" gradientTransform="matrix(-15.9681 -27.65756 24.32977 -14.0468 461 130)" gradientUnits="userSpaceOnUse">
            <stop stop-color="#FFE500"/>
            <stop offset=".5" stop-color="#FFE500"/>
            <stop offset="1" stop-color="#E15007"/>
        </radialGradient>
        <radialGradient id="q" cx="0" cy="0" r="1" gradientTransform="matrix(-17.9013 0 0 -16.0957 306 489)" gradientUnits="userSpaceOnUse">
            <stop stop-color="#FFE500"/>
            <stop offset=".5" stop-color="#FFE500"/>
            <stop offset="1" stop-color="#E15007"/>
        </radialGradient>
        <radialGradient id="r" cx="0" cy="0" r="1" gradientTransform="matrix(33.3111 0 0 32.7679 55 276)" gradientUnits="userSpaceOnUse">
            <stop stop-color="#DA030E" stop-opacity="0"/>
            <stop offset=".9" stop-color="#DA020E" stop-opacity="0"/>
            <stop offset="1" stop-color="#DA020E"/>
        </radialGradient>
        <radialGradient id="s" cx="0" cy="0" r="1" gradientTransform="matrix(33.3111 0 0 32.7679 461 276)" gradientUnits="userSpaceOnUse">
            <stop stop-color="#DA030E" stop-opacity="0"/>
            <stop offset=".9" stop-color="#DA020E" stop-opacity="0"/>
            <stop offset="1" stop-color="#DA020E"/>
        </radialGradient>
        <linearGradient id="e" x1="252.5" x2="252.5" y1="216.4" y2="310.4" gradientUnits="userSpaceOnUse">
            <stop stop-color="#8F0904"/>
            <stop offset=".2" stop-color="#B40509"/>
            <stop offset="1" stop-color="#DA020E"/>
        </linearGradient>
        <linearGradient id="h" x1="50.5" x2="58.3" y1="119.2" y2="127.7" gradientUnits="userSpaceOnUse">
            <stop stop-color="#FFE500"/>
            <stop offset=".5" stop-color="#FFE500"/>
            <stop offset="1" stop-color="#E15007"/>
        </linearGradient>
        <linearGradient id="i" x1="68.2" x2="121.8" y1="331" y2="392.5" gradientUnits="userSpaceOnUse">
            <stop stop-color="#740703"/>
            <stop offset="1" stop-color="#DA020E" stop-opacity="0"/>
        </linearGradient>
        <linearGradient id="j" x1="445.7" x2="392.1" y1="331" y2="392.5" gradientUnits="userSpaceOnUse">
            <stop stop-color="#740703"/>
            <stop offset="1" stop-color="#DA020E" stop-opacity="0"/>
        </linearGradient>
        <linearGradient id="k" x1="465.6" x2="436.6" y1="217.7" y2="190.4" gradientUnits="userSpaceOnUse">
            <stop stop-color="#740703"/>
            <stop offset="1" stop-color="#DA020E" stop-opacity="0"/>
        </linearGradient>
        <linearGradient id="l" x1="49.2" x2="79.9" y1="217.7" y2="185.3" gradientUnits="userSpaceOnUse">
            <stop stop-color="#740703"/>
            <stop offset="1" stop-color="#DA020E" stop-opacity="0"/>
        </linearGradient>
        <linearGradient id="p" x1="464.3" x2="456.5" y1="119.2" y2="127.7" gradientUnits="userSpaceOnUse">
            <stop stop-color="#FFE500"/>
            <stop offset=".5" stop-color="#FFE500"/>
            <stop offset="1" stop-color="#E15007"/>
        </linearGradient>
        <filter id="c" width="227.2" height="369.8" x="143.8" y="62.5" color-interpolation-filters="sRGB" filterUnits="userSpaceOnUse">
            <feFlood flood-opacity="0" result="BackgroundImageFix"/>
            <feBlend in="SourceGraphic" in2="BackgroundImageFix" result="shape"/>
            <feGaussianBlur result="effect1_foregroundBlur_1_2654" stdDeviation="5.3"/>
        </filter>
    </defs>
</svg>
