<svg xmlns="http://www.w3.org/2000/svg" fill="none" viewBox="0 0 512 512">
    <g clip-path="url(#a)">
        <path fill="#fff" stroke="#fff" stroke-miterlimit="3.9" stroke-width="7.4" d="M396 338Zm0 0Z"/>
        <path fill="#231F20" d="M396 338Z"/>
        <path fill="#231F20" fill-rule="evenodd" d="M486 363c-5-8-4-21-15-24-12 0-25 5-36 11-4 4 2 8 2 12l5 17-8 3c-3 1-5 0-6-2-7-3-14 1-20 4-2 4-7 0-10 2-10 0-23 0-31 8-6 5 0 12 0 18-16 4-32 9-48 11l-14 2c-15 2-30 4-43 4h-1l1-2c10-12 24-22 38-29l6-3c1-2 4-2 6-4 12-8 25-16 31-29 2-3 2-6 3-10l2-8c3 7 4 16 11 20 10 8 22 9 33 5 15-5 23-22 25-37 0-2 3-2 3-4-2-2-3-5-2-7 1-3 5-3 5-5l-2-2c-3-2-4-5-4-8s4-4 4-7c-2 0-4-1-5-3l1-1c8-2 19-4 24 4 8 9-1 20-1 30 1 2 0 5 3 7 0-9 8-11 12-17l1 2c3-4 0-10 3-14h4v-2c-3-2-3-6-4-10 0-2 3 0 3-2-2-1-3-3-4-6-1-4-5-7-9-9l3-3 3-6-8-4c4-6 4-14 4-21l-1 1c-1-4-1-9-3-13l-1 2c-3-5-4-10-8-14-2 0-1 2-2 2-3-2-5-6-6-10l-1 2c-2 12 4 24 1 36-2 3-2 7-5 10-2 8-9 12-16 17l-1-1c-1-3 2-6 2-9l-6-5c-1-3 0-6 3-8 1-2-2-1-3-2-2-2-4-6-4-9s3-5 3-7c-3 0-6-3-7-6-2-4-2-10 1-14 2-12 19-12 20-25 0-3 4 0 6-3 1-1-1-1-1-1-4-2-3-6-3-9h4s2-1 1-2c-2 1-2-2-4-3h3l2-2c-3-1-4-4-4-6h2c3-1-1-3-1-4l2-1v-1c-4-1-3-7-7-8 3-3-2-4-2-6l-2-2v-2c2-2-1-2-2-3 0-1 0-4-3-3 2-4-3-3-5-3v-5l-4 1v-3h-4c-4 5-4-3-7-4h-3c0 2 2 4 1 6-1 1-2 3-3 2l-5-6c-1-1-1-3-3-3l-1 9c-2 0-4-2-5-1-2 4 0 8 3 11l-6 7c-3 5-9 9-13 14-5 3-5 9-6 15 2 3 5 2 8 3l-1 2c-2 0-2-2-3-1-2 0-2 2-2 3l1 3c3 1 6 0 8-2h7c4-2 6-7 10-9 2 1 3-1 4 1-3 5-9 6-14 10-7 4-14 12-18 20-1 2-1 5-3 6-4-6-5-14-10-20-3-2-8-2-11-1-7 5-16 6-22 11h-1l-2-6-7-2c-4 0-8 3-12 0l-1-5c-1-1 1-5-2-6-2-3-1-7-2-11h-1c-2-6-1-13-1-18 0-3-2-6 1-7 0-1 1-2-1-3l1-1c4 0 4-8 9-7l1-2-1-8h-8c-1-4 0-9 3-12 2 0 4-2 7-1l3 5-3 2c-3-1-2-5-4-5-1 4 0 7 3 9h6c2-1 3-3 4-6-2-4 4-1 5-3 4-2 3-6 3-9l3-6h-4c-3 0-3 4-5 5l-1-4-3-4h-4c0 2 2 2 2 3 0 4-5 3-8 4-4 1-4 5-7 6-6 3-6 10-5 16-3 0-1 3-2 5-3 0-3-3-4-5v-13c1-5 7-9 10-13-2-4 4-5 4-8l-3-1v-1c6-1 2-7 5-11l-3-4-3-2c-1-2-4-3-6-3h-3c-3 3-7 4-9 7h-1c-1 1-3 3-3 6 1 3-3 3-4 5-2 2-2 6-4 7-3-4-8-7-10-11 0-7-8-10-4-17 15-9 33-1 50 0 25 3 56 3 72-19 0-1 2-3 1-4-8 5-18 5-27 5l-19-1c-13-2-24-7-36-12-9-5-21-6-32-5l-4 1c1-3 0-5-2-7-1-1-3-3-5-3-3-1-6 1-9 3-2 3-2 7-1 10l6 5v40c0 2-2 4 0 7v30h-1v3l1 74-5 4 1 6c5 6 12 4 18 3l1 1c-1 2-1 6 1 9 0 2-2 4-4 5-8 5-19 6-28 4-5-1 0-5-1-8-1-4-3-8-7-9-5-1-9 0-12 3 0-3 1-7 4-9l10 4c2 3 3 5 7 5v9l1 1 13 1c2-4 6 1 9-3 0-1 2 0 2-2-3-6-11-9-16-13-6-9-17-9-25-14-15-4-14 14-21 21v-1c-5-14-18-25-31-31l-4-4c7-3 10 8 16 8 5-2 7 4 12 2 2 0 2-1 3-2 0-1 0-3-2-4-1-1-2 1-3 1l-1-2c2-1 6 0 8-4 0-9-7-15-13-20-6-4-7-11-13-15 2-1 3-3 4-6 0-2 1-4-1-5l-4 2-1-6c0-1 0-4-2-4-1 5-5 6-7 10-5-2-2-7-2-9-4-1-5 3-7 6l-6-2c-2 1 0 2-1 3l-4-1c-2 2 1 4 0 6l-4-1c0 2-1 4-3 4v3l-4 1 1 3c-3 0-1 5-5 5l1 3c-4 1-2 7-7 8-1 2 1 1 2 2l-2 4c0 2 2 0 3 1-1 2-1 4-3 5-1 4 3 1 4 2-1 2-2 4-4 4 1 2 4 2 6 2l-1 5c-1 1-1 4-4 4 1 3 4 2 7 2-1 5 1 9 5 12 8 4 16 12 17 21-1 4 0 9-4 12l-4 2 2 5c1 4 0 8-3 10l-4 2c2 2 4 5 4 9-1 1-2 3-4 3-8 2 3 7-1 12-7-4-15-11-18-19-5-9-5-19-4-30 2-4 1-8 2-11l-2-5c-1 4-3 8-6 10v-1l-1-1c-5 3-6 9-9 14l-1-2-2 7-1 6-1-1v1c0 7 1 14 4 21l-4 2c-1 1-4-1-4 2 3 2 3 6 6 9-8 2-7 10-13 14 0 2 2 1 3 2 0 4-1 8-3 11 0 2 2 0 3 1l2 4c1 4-2 7 1 10 1 1 0-1 1-1 4 4 10 7 12 13l1 3 2-3c3-10-6-19-3-29 1-5 6-9 11-10 6-1 12-1 17 2-1 2-3 3-6 3l1 2c3 2 4 4 4 7-1 3-4 6-7 8 0 2 3 2 4 3l2 5c0 2-1 3-3 4l4 4c1 11 5 22 14 31 10 10 26 11 39 5 11-4 13-15 16-24l1 5c3 22 26 36 44 46 15 8 31 17 43 32v1c-15 1-29-2-44-3l-51-10-14-4c1-7 6-15-1-20-10-8-25-6-37-7-6-4-14-8-22-5-2 0-3 3-5 2l-10-4 8-23c1-3-1-5-3-7h-1c-8-5-17-7-26-9-6-1-12 0-15 5l-8 20c-2 10-9 20-8 31 6 15 21 24 33 30 3 2 5 3 8 3l8 4c-3 6-5 15 1 20s15 8 22 12c19 9 41 13 61 19l13 3c33 7 67 9 100 8 34 0 67-4 99-11l38-11 7-3c13-4 25-10 35-17 6-5 4-13 2-19l1-1 12-5c13-8 30-17 35-32 0-12-5-21-8-32Zm-108-49s13 12 14 15c2 2 4 7 4 9 0 0-1 7-11 8-10 0-19-8-19-17 1-9 7-12 12-15Zm-40-37c1-3 1-6 4-8l3-1 7 12 15 20s-18 15-19 34l-1-8c-1-2-1-6 3-8v-1s-3-1-3-3l2-4c0-2-2-2-2-2-1 0-4 0-5-5l-6-21s2-2 2-5Zm-59-69 4 1 6-2 2 1-8 8s-2 3 0 3l3 1 4 1 5 2 13-2v-9c1-2 3-1 5-3 2-3 7-7 11-7 3 0 4 4 5 9 0 0-3-5-8-4-6 1-10 1-12 11l2 6s-5 2-11 2-16-2-18-4c-3-2-4-4-4-5s2-4 1-9ZM150 331c0 2 0 14-18 16 0 0-11 0-12-8-1-4 8-15 10-17l8-7s9 5 11 9l1 7Zm23-25-6 3s-1 1 1 2l2 4-2 1s-2 0-1 2l2 3 1 3-1 3-1 5s-1-11-10-23l-8-8 2-4 15-23 5-5 5 3s1 8 3 11l-7 23Zm56-207 1 1-1 1 4 2c1 2-1 4 1 5h4l-2 1c-1 3-3 4-6 4-2-1-1-2-1-3V99Zm13 71-2 1-1 11s-2-1-2 2l-2 8h-3l-3 1s-2-54 0-69l10-1v2h-2l-6 1v10s3 0 5 2c1 2 3 4 5 4v2l1 2c1 0 2 0 2 2l-2 22Z" clip-rule="evenodd"/>
        <path fill="#00B6F1" stroke="#00B6F1" stroke-miterlimit="3.9" stroke-width=".2" d="M264 36v5l-10-2v-6c3 0 8 1 10 3Zm-23-2c0 1 2 5-1 5l-11 2v-5c1-1 3 0 4-2 3 0 5-2 8 0Zm23 19v8l-11-2v-9h5l6 3Zm-23-3v9l-12 3v-8c3-3 7-3 12-4Z"/>
        <path fill="#EF3E2E" d="M250 34c1 2-1 7 3 8s8 1 11 3v4l-13-2-1 8v4c-3-1-8 2-6-3-1-3 2-7-2-9-4 0-9 1-13 3v-5c4-2 9-3 14-3l1-1v-8l6-1v2Zm92 15 5-1v1c-9 11-22 13-35 15-16 3-30-1-45-3V38l1-1c22 10 48 17 74 12Z"/>
        <path fill="#BBBDBF" d="M148 149c6 8 18 13 18 24-1 1-3 3-6 2-2-2-4-6-7-4-2 1-3 3-2 5l1 3-3-4-2-5-4-1c-2-2 2-5-2-5-2 3-3 8-7 7-2-2-5 1-6-2l-4-1-4-8h-1c0 5 3 11 8 14v1c-1 1-3-1-4 1 3 1 5 2 7 1 0 2-4 1-2 3l6-1v1l-1 1 1 1c2 0 3-3 5-1 15 7 29 21 32 38 5 5 5 11 6 17 1 5 0 9-1 13v-13c0-2 0-4-2-5-2 2 0 3-1 5 0 3 1 8-2 10-2 0-2-3-2-4 0-4 1-12-3-15-1 2 0 3 1 4l-1 12c0 2 1 3 3 5 6 6 14 13 19 21 5 9-2 17 1 26l-2 12c0 6 3 16-3 20 2-5 3-11 2-17h-1l-2 7c0-3 3-6 1-8h-3l-1-1c-2 0-2 3-4 3l-3 1 8-8c1 0 3 0 3-2l-2-5c2-6 5-14 1-20 1-9-8-11-13-14l-8-4-1 1-4-3c-1-3-3-7-6-8-4 1-8-1-11-3l-1 2c2 5 9 2 10 7 3 5 7 8 12 10l7 2c-5 4-11 4-17 3l-15-3-5-2c-3-2-7-4-7-9-1-2 1-4 2-7 5 6 12 8 20 8h1l-11-3c-4-2-8-5-10-9l1-10c6 2 13 0 16-5 1-4 1-9-2-12-2-2-4-3-7-3 2-1 5 0 7 1 2 0 3 7 5 2l-2-7c2-1 0-3 0-4-1-2-4-3-3-6-2-4-7-7-11-7l3-1c-3-5-10 0-12-6-10-9-10-22-7-35 2-4 5-7 9-10 3-1 7 0 9-4 4-2 8 3 12 5 1 2 4 4 4 6Z"/>
        <path fill="#BBBDBF" d="M210 200c5 2 6 7 11 9l9 7c-1 1-1 2-3 2-2-4-5-6-8-8-1 2 3 3 4 6l1 2c-1 0-2 2-3 0l-5-9h-2l3 10h-1c-1-3 0-8-4-10-1 1 0 3 1 5l1 5h-3c1-4 0-8-3-11-4 0-4-4-7-6-4-2-9-5-13-2-2 2-7 1-5 5l1 4c-1 8-1 16-4 24l-2-9c0-3-4-6-2-10l5-17c0-3 3-5 6-6 9 1 15 7 23 9Zm122-7v1l1-1c3 5 3 11 6 17 0 3 2 5 1 8-3 5-3 10-4 15-3-8-3-17-5-26 1-1 2-3 1-5l-2-1c-3-2-6-3-9-2-5 2-9 5-11 9h-2c-3 3-4 7-3 11l-3 1 2-11v-1c-4 3-3 8-4 11l-1 1c0-4 2-7 3-11h-2c-3 3-4 6-6 10l-2-1 2-3c0-2 4-3 3-5l-9 8-2-1 5-5c1 0 1-2 3-2l8-7 5-4c9-1 16-12 25-7v1Z"/>
        <path fill="#F0B83D" d="m255 209 2 6-2 6c-2 8-11 14-19 17-12 4-27 4-39-2-5-3-10-7-10-14l2-7c1-2 3-4 5-4l6 2c2 1 2 3 3 5 1 3-6 7 0 9l3 1 10 1c10-1 20-2 26-11 2-2-2-4-2-7l2-5c1-2 4-2 7-2l6 5Zm20-1c0 3 1 6-1 8-1 3 2 5 5 8 10 5 25 7 36 2 1-3-1-3-1-5 0-3-1-5 1-8 2-2 6-3 9-2 4 4 5 10 4 15-2 6-8 10-14 12l-4 1c-18 4-38 0-49-15-2-5-2-13 2-17 2-2 5-3 9-3 1 1 3 2 3 4Zm-14-5v1c-6 2-11-3-14-8h6c3 1 6 4 8 7Zm9-3-6 2-4-5c2-1 5-2 7-1l3 4Zm-25 0-5 2-6-5v-1c5-1 9 1 11 4Zm51-1v4c-1 1-2 2-4 1-3-1-4-4-6-7l7-1c1 1 3 1 3 3Zm-12 2c0 1 2 1 2 3h-8c-2-1-4-5-5-7 2-2 3 0 6 0 2 0 4 2 5 4Zm-49 1v1c-5 1-10 2-13-2l1-4c5-2 9 1 12 5Z"/>
        <path fill="#BBBDBF" d="m243 129 1 4c3-1 8 2 9-2v-2h7c1 1 0 4 2 4 2-1 7 1 8-2v-2c3-2 6 0 9-1v3c-1 1-3 0-3 2s-2 4-3 5c-2 1-4-1-4 2l-1 3-22-1c-1-1 0-3-2-4s-5 0-6-2l-1-4h-3c-1-6 7-3 9-3Zm25 18c-1 2 1 6-2 5h-18c-2-2-1-4 0-5h20Zm0 8 1 17h-22v-18h20l1 1Zm2 20 1 6-1 1h-26v-7h26Zm4 11v4h-33v-5l33 1Z"/>
        <path fill="#F0B83D" d="M242 102c-2 2 3 5-1 5-1-4-8 1-6-5-1-1-3-1-2-2l3-2c-1-3-4 1-5-1l4-1c-1-3-4-1-6-2v1c-1-4 1-7 1-10-1-1 0-2 1-3 2 7 13 11 11 20Zm51-1-1 3c-2 2-6 2-7 4 2 2 4 0 6 0l5-1 3-6h2c-3 3 1 10-4 12l-6-1-3-3c-1 3 3 4 3 7 0 2-1 4-3 5h-3l3-2c1-3 0-4-1-6-2-3-4-4-7-3s-7 3-8 6v9c-2-4-2-9 0-13 2-2 6-2 7-5 3-4 11-1 12-8l2 2Zm-46 8c-1 2-2 4 0 5 1 1 2-1 4-2l5-1-7 5-2-1-3 4 1-3-1-1-3 4-1-3c-2 0-1 6-3 2l-3 2-1-2-2 2-1-3c-2 0-3 2-4 3-1-2 4-2 1-4l-3 1 4-3h7c3-4 8-5 12-5Zm13 5v11l-10 1v4h-3c-1-2 1-4-2-5h-2c0-3 2-3 3-4 2-3 6-4 8-6l5-4c2 0 0 2 1 3Zm9-41c1 0 1-2 2-1 2 1 1 7 5 5 1 3-5 2-2 5l2 1-1 3h-1v-3h-2v-2c-1 0-2-3-3-1l-2-2-3 1 1-8 4 2Zm-40 5c-3 1 1 4-2 5v6c-2-1-3-4-3-5l2-7 1-2 2 3Zm30 1 1 1h1l-1 2 2 2h2-3c-2 0 0-3-2-4-2 2-1 4-2 6s-3 3-2 6c0 2-2 2-4 3l-6 2c1-5 8-3 9-8-2-2-3 1-4 1l-3 1 2-3c1 0 3-2 4-1 2 0 1-2 1-3v-4l3 2c1-1-1-4 1-5 1 0 2 0 1 2Zm1 17c-2 2-4 4-4 7l2 1c-2 4-6 3-9 5 1-3 6-4 6-8l-1-1-6 8c-2-4 5-6 4-10 3 0 5-7 8-2Zm-11 2c1 3-4 5-4 8-2-2-1-3-1-5 1-2 3-3 5-3Zm15-8-1 1h-1l1-1h1Zm9 2-1 1-2-2 1-1 2 2Zm-4 2 2 3-1 2c-1-1 0-4-2-5-2 1-1 3-1 4-1-1-3-2-2-4l3-2 1 2Zm-4 8c-1-1 0-3-2-4 1 1 3 2 2 4Zm-2 4v1c0-2-4-4-1-6 1 1 2 3 1 5Z"/>
        <path fill="#F0B83D" d="m260 89-1-1v2l1-1Z"/>
        <path fill="#F0B83D" fill-rule="evenodd" d="m266 88 3-1h-2v-3l-1 3v1Z" clip-rule="evenodd"/>
        <path fill="#BBBDBF" d="M390 141c5 1 10 7 12 12 3 13 2 27-10 36-3 1-8 0-9 4l3 1c-4-1-8 2-10 5-1 1-2 3-1 4-3 2-5 4-4 7l1 1c-2 2-3 6-1 8l1 1c1-3 3-5 6-6h3c-3 1-7 3-8 6v9c3 4 8 7 13 6h2c1 4 3 10-1 13-4 5-11 6-17 8h-1c2 2 4 0 6 0 6-1 11-3 15-8 1 3 3 8 1 11l-9 6c-8 4-18 6-28 5l-3-1c-1-2-3-1-3-3 8-1 16-5 19-13 3-3 9-1 10-7-2-1-3 1-4 1-3 1-5 2-8 1-3 2-5 6-6 9-2 0-2 2-3 2-2-2-4 2-6 2l-4 1c-5 3-11 5-13 11 1 5-3 9-2 14s6 10 2 15c-1 1 0 1 1 2 2-1 2 0 2 1l7 6c-2 1-5-2-6-3l-2 1c2 3 4 7 7 8l1 1 2-1 1 1c-6 2-8-4-10-8l-1-2-3 1c1 6 3 12 8 16-7-3-6-10-9-16l-1 1c0 6 1 12 3 17-4-1-4-5-5-8 0-7 2-13-1-19 0-7 1-16-1-23l2-9 9-10 1-2 12-11c0-5-2-10 0-15v-3c-2 1-2 3-3 5 0 5 1 9-1 13-2 1-3 0-3-2v-10l-1-2c-2 0-1 3-2 5v13c-2-11-2-22 5-32 3-14 14-28 28-34 2-1 5-4 8-2h1l-1-2h7l-3-2c3 1 5 0 7-2h-4l4-5c2-3 5-6 4-10-2 0-2 3-2 4-1 1-2 4-4 4s-3 0-5 2c-2-2-3 2-5 1-4-1-3-6-7-7-1 1 2 5-2 6-2 0-4 1-4 3s0 4-2 5h-1c1-1 2-3 1-5l-3-3c-5 0-7 9-12 3-1-13 15-17 20-28 3-4 8-8 13-7 2 1 4 3 7 3Z"/>
        <path fill="#BBBDBF" d="M395 270c-8 9-20 12-31 11l-8-2c-3-2-4-5-6-8 13 3 26 1 36-6l7-5c1 3 4 6 2 10Z"/>
        <path fill="#BBBDBF" d="m399 274 1 6c-4 7-12 10-20 11-8 0-19 2-22-8h-1c3-1 6 1 9 1 12 1 23-4 31-13 2 0 1 2 2 3Z"/>
        <path fill="#BBBDBF" d="M404 286c1 3-2 5-3 8-9 6-22 10-32 4l-4-5c6 0 13 2 19 0 5-1 10-4 14-7l4-4 2 4Z"/>
        <path fill="#BBBDBF" d="M408 296c-1 6-8 11-13 13-6 1-13 2-18-2l-3-3c5-1 11 0 16-2l11-5 5-6 2 5Z"/>
        <path fill="#BBBDBF" d="M411 303c0 3 0 6-2 8-5 6-13 8-20 7-3-1-5-3-7-6 10 2 22-2 27-12l2 3Z"/>
        <path fill="#BBBDBF" d="M412 319c-5 6-13 7-19 5-2 0-3-2-4-4 9 2 18-1 23-10 2 3 2 7 0 9Z"/>
        <path fill="#BBBDBF" d="M414 328c-5 4-12 5-17 2-2 0-2-2-2-3 6 1 14 0 19-7v8Zm-1 9c-4 2-9 2-13 0l-2-3c6 1 12 0 16-3 0 1 1 5-1 6Zm-1 6c-3 3-8 3-11 1-2-1-1-2-1-4 4 1 9 2 13 0l-1 3Zm-1 4-3 6c-3 1-6 1-8-2v-4c3 1 8 2 11 0Zm-7 9 3-1c-5 7-12 12-20 14-5 0-11 2-15-3l2-5c6-4 13-4 21-7l-8 8v1c3 1 5-3 8-3 0 2 2 2 4 2v-1l-3-3c1-2 1-4 3-5l5 3Zm-25-225-1-1-1 1v1l-1-7 3 6Zm-6 2c1 1-1 0-1 1v1l-2-4c2 0 3 1 3 2Z"/>
        <path fill="#F0B83D" d="M333 233c0 5 3 10 4 15-2 2-6-1-7 2-4 5 2 12-4 16-4 8-1 17-1 24-1 5-1 12 1 17-5-21-16-44-6-66 3-4 7-9 12-9l1 1Zm57-105c1 3-2 5 0 6 2-2 2-7 6-7l-2 8 1 1c3-2 3-6 6-6 1 3-2 5-3 8 2 1 3-2 4-3l4-1c-1 3-5 5-4 7 2 0 3-4 6-3-1 2-5 4-4 6 3 0 4-4 7-3-1 2-6 4-4 7 2 0 3-3 5-2-2 1-5 3-5 5 3 0 5-3 8-2l-2 2 3 2c-2-1-4 0-6 1 1 2 3 0 4 1l-2 1c0 2 3 2 5 2 2 1 2 3 3 5-3 0-4-3-7-3l-1 1c3 3 8 5 8 9-3-1-5-4-9-4-1 2 2 3 4 4 1 1 3 3 3 5-2-2-5-5-8-5v2l2 1c5 3 4 9 6 14-5-2-4-8-9-9-2 1 2 3 2 4 3 5 4 10 2 15-7 6-17 9-19 19-3 7-13 5-12 14-2-2-1-4-1-6 3-4 10-2 11-8h-1c-4 3-12 4-13 11l1 5c-2-1-4-4-4-6 0-4 2-7 5-8 5-1 10-2 14-6l-1-1c-3 1-6 2-10 1-3-1-7 0-10 2 0-2 2-3 3-4 6-3 12 2 18 1 1-1 2-2 1-3l4-3h-5c-4-2-4-7-9-7h-4c1-2 4-2 6-1 5 2 6 10 13 7 1-1 2 0 3-2h-1l-7-1c-2-3-3-7-6-9l5 1c4 4 7 8 13 7l2-2v-1c-4 0-9 1-11-3l1-3c2 3 6 6 10 5 2-1 4-1 4-3-1-2-3 1-4 1-2 0-4 0-5-2-3-6 5-10 4-17 2-13-1-29-13-37l-10-4c-1-2 2-3 2-4 1-2 2-3 1-5l2 3Z"/>
        <path fill="#F0B83D" d="M391 208c-5 1-9-7-15-4 2-2 6-2 9-1 2 1 3 4 6 5Zm8 29c-1 4-3 9 0 12l5 6c-2 3-4 7-1 10 1 3 7 3 3 7v6c-7-14-13-29-12-45l5 4Zm14 50c0 3-3 5-1 8l5 6-2 6-8-26 6 6Zm6 30-2 2-1-7c1 2 3 2 3 5Z"/>
        <path fill="#231F20" fill-rule="evenodd" d="m330 229 1-2v2h-1Z" clip-rule="evenodd"/>
        <path fill="#BBBDBF" d="M374 208h2-2Z"/>
        <path fill="#F0B83D" d="M388 227v5h-2c-1-1-2-2-1-4l1-2c1-1 1 1 2 1Z"/>
        <path fill="#231F20" d="m380 146 4 1-2 2c-4 1-8 6-14 4l2-4 4-3c2 0 4 3 6 0Z"/>
        <path fill="#BBBDBF" d="M414 293c-1-4 8-8 0-9l-3-3 14-3 2 2 1 4-4 3v2l-10 4Z"/>
        <path fill="#F0B83D" d="M431 220c2 3 4 6 7 7l1-1c3 3 5 8 6 13l2-1v10c3 4 1 10 0 13-1 4-5 4-6 8 2 1 3 0 4-1l7 2c-1 3-3 6-6 8l-1 2c2 1 6 1 8 3l5 9c-3 1 0 3-1 5 0 3 4 6 1 8l-2 10-7 8c-3 1-5 4-6 5-1-2 1-4 1-7 2-6 5-11 3-18-2-6-7-10-13-12-6-1-12-1-17 1l-3 1 10-4c2-2 6-4 7-7l-2-4c-3-3-6-1-9-2l-5 1c9-7 16-17 17-28 2-9 0-19-1-29Z"/>
        <path fill="#231F20" d="M435 228c5 12 3 27-2 39-1 1-2 2-3 1l2-5c4-10 6-21 3-31l-1-5 1 1Zm9 18v1h-1v-1h1Zm-3 17c-2 2-3 6-6 7-1-3 3-5 4-8l4-13v-1c1 6-1 11-2 15Zm10 27c3 5 4 10 3 15l-1-4c-1-6-4-11-9-15l1-2 6 6Zm-1 19c-1 5-2 11-5 16l-1-1 2-4 3-13c0-5-3-10-7-14l1-2c6 4 8 12 7 18Z"/>
        <path fill="#00B6F1" stroke="#fff" stroke-miterlimit="3.9" stroke-width=".2" d="M469 352c1 8-7 15-12 19l-5 3-5-17c4-4 10-5 16-7 2 1 5 0 6 2Zm14 11c2 11 10 21 8 33-8 17-26 24-41 31l-5 1c-5-12-8-24-11-36l5-2c16-5 35-14 41-31 2 0 2 3 3 4Z"/>
        <path fill="#00B6F1" stroke="#00B6F1" stroke-miterlimit="3.9" stroke-width=".2" d="m419 390-2 2-6 3 8-5Z"/>
        <path fill="#00B6F1" stroke="#fff" stroke-miterlimit="3.9" stroke-width=".2" d="M123 416c20 6 39 11 60 15 16 5 33 6 51 8 25 3 51-1 75-4 19-2 38-6 56-12 21-6 42-11 61-23l4-5 1 1 13 40c1 5 2 11-2 15-32 18-66 26-102 34l-23 4c-26 3-55 4-82 3l-27-2-39-6c-33-7-67-16-97-33-4-2-5-6-4-10 4-13 9-25 12-38l3-9c11 13 26 17 40 22Z"/>
        <path fill="#00B6F1" stroke="#00B6F1" stroke-miterlimit="3.9" stroke-width=".2" d="M392 395c-4 3-8 4-13 4-1-2 1-1 2-2l11-2Zm-16 14-6 1v-2l6 1Z"/>
        <path fill="#F0B83D" d="M476 346c5 10-1 19-8 26-9 7-19 12-30 15l-5 1-1-3c15-5 31-11 39-27 2-2 2-5 0-8s-6-2-10-2c-6 1-12 3-17 7l-1 1 6 19-4 2-5-13c0-4-6-10-1-13 9-5 19-8 29-9 3 0 6 1 8 4Zm-349 55c4 1 10 2 13-2 1-2-2-3-3-4-7-4-15-3-23-4l-3-3c9-1 19 1 27 3 3 2 8 2 8 7 1 2 0 5-3 6-6 3-12 1-19 0s-13-5-18-11c-5-4-9-9-14-7-2 1-2 3-1 4l1 2c9 8 20 11 30 15l13 4c26 7 50 15 78 18l36 4 1-1c34 0 65-4 97-12l19-5c16-4 31-9 46-16 4-3 12-4 11-12-1-2-3-1-5-1-9 4-15 16-25 18-9 1-19 5-25-3l1-6c6-5 13-5 21-6h13c-2 6-9 2-13 3-5 1-11 1-15 5v3c6 4 13 0 19-2 11-5 18-20 32-15l3 4c0 5-3 9-6 11-8 6-18 9-27 13-31 11-65 19-99 23l-30 2c-24 1-48-1-71-5l-6-1c-30-7-61-14-89-26-7-4-18-9-16-18 1-3 4-4 7-5 14 1 21 17 35 20Z"/>
        <path fill="#00B6F1" stroke="#fff" stroke-miterlimit="3.9" stroke-width=".2" d="m68 356-6 17c-8-4-14-10-17-17l1-5c4-2 9 0 14 1l8 4Zm-29 13c11 13 26 17 41 22l-3 13-7 20c-1 1 0 6-3 4-14-5-27-11-38-22-5-6-9-12-7-20l10-26 1-2c1 4 4 8 6 11Z"/>
        <path fill="#00B6F1" stroke="#00B6F1" stroke-miterlimit="3.9" stroke-width=".2" d="M103 395c-3-1-7-3-8-6l8 6Zm32 3-2 1c-3-1-8-1-10-4 4 0 9 0 12 3Zm10 9-1 3-6-1 7-2Z"/>
        <path fill="#F0B83D" d="M67 347c3 1 7 2 10 6l-4 14-4 10-4-2 2-9 4-9c0-3-2-4-4-5-6-3-14-6-21-5-2 1-4 2-4 4-2 10 8 18 16 23 7 5 15 8 23 11v3c-10-2-19-6-27-11-10-5-20-16-18-28 1-4 5-7 8-8 8 0 16 3 23 6Z"/>
        <path fill="#231F20" d="M83 442c2 1 3 1 4-1l6-15-1-4v-1l7 3 5 19 4-10c1-2 1-3-1-5l7 2v1c-3 0-3 0-4 2l-8 19-1-1-7-23-5 13c-1 2-1 3 2 4l-1 1-7-3v-1Zm31-11 19 6-2 7-1-1c1-5-1-6-5-8l-3 1-3 8c3 1 5 0 7-4l1 1-4 11c0-5-1-6-4-7l-3 8c0 1 0 2 2 3 4 1 7 1 11-3h1l-4 6-19-6v-1c2 1 3 1 4-1l5-16c1-2 0-3-2-4Zm53 15-3 1-12 19h-1l-2-17-10 14h-1l-2-22c0-2-1-2-2-3v-1l10 3v1h-3v2l2 13 6-10v-3l-2-2v-1l10 3v1h-3v2l1 12h1l6-10 1-2-2-2v-1l6 2v1Zm18 21c-3 3-6 4-10 4-8-2-12-8-11-14 1-7 7-12 15-11l6 3 2-1h1l-2 8c-1-3-3-8-7-9-5 0-8 5-9 10l1 8c1 3 3 4 5 4 2 1 5 0 8-3l1 1Zm22 8-11-2v-1c2 0 3 1 3-1l-1-4-8-1-2 4 3 2v1l-7-1v-1c2 0 2-1 4-4l10-18h1l5 19 3 6v1Zm-9-10-3-9-4 8 7 1Zm26-6c0-2-2-7-6-7-2 0-4 1-4 3s0 3 3 5l5 2c1 1 4 3 4 7-1 3-3 7-10 7-3 0-4-2-5-2l-2 1h-1l1-8h1c1 3 2 7 7 8 4 0 4-4 4-4 1-2-1-3-3-4l-3-2c-5-3-5-6-5-8s2-6 8-6l6 2 1-2 1 1-1 7h-1Zm19 18-12-1v-1c3 0 3 0 4-3v-18c-2 0-6 0-7 5h-1l1-7 21 1-1 7h-1c0-6-4-6-6-6l-1 18c0 3 1 3 4 4l-1 1Zm27 0h-20v-1c2 0 3 0 3-3v-16c0-3-2-3-3-3v-1h12v1c-3 0-4 0-4 3v17c0 1 1 2 3 2 6 0 8-3 9-7h1l-1 8Zm0-24 21-1v7h-1c-1-5-4-6-8-5-2 0-3 0-3 2l1 8c3-1 5-2 5-6h1l1 12h-1c-1-4-3-5-6-5v8c0 2 1 2 3 2 4 0 7-1 9-7h1l-1 8-20 1v-1c2 0 3-1 3-3l-1-17c0-2-2-2-4-2v-1Zm53-3c-2 0-3 1-2 3l1 11-1 7c-2 2-5 3-7 3-2 1-5 1-7-1-2-1-3-2-3-6l-2-12c0-3-1-2-3-2v-1l12-2v1c-2 1-3 1-3 4l1 11c0 2 1 7 6 7 6-1 5-6 5-9l-1-10c0-2-1-3-4-3v-1l8-1v1Zm3 21c2 0 3-1 3-3l-3-16-3-2v-1l7-1 15 13-2-11c0-2-1-3-4-3v-1l8-1v1c-3 1-3 2-3 3l4 21h-1l-19-17 2 14c1 3 2 3 4 3v1l-7 1-1-1Z"/>
        <path fill="#231F20" d="m364 465-12 3-1-1c2 0 3-1 3-3l-3-17c-1-2-3-2-4-1v-1l12-3v1c-2 1-3 1-3 3l4 17c0 2 1 2 3 2h1Zm17-4-12 3v-1c3-1 3-1 3-4l-5-18c-2 1-6 2-5 8h-1l-2-7 20-5 2 7h-1c-2-5-5-5-8-4l5 18c1 3 2 2 4 2v1Zm0-25 19-6 2 7h-1c-2-5-5-5-9-3-2 0-2 1-2 2l3 8c3-1 4-3 3-7h1l4 11h-1c-2-4-4-4-7-3l3 8c0 1 1 2 3 1 3-1 7-3 7-9h1l1 7-19 7-1-1c2-1 3-1 2-3l-5-16c-1-3-2-2-4-2v-1Zm30 14c2-1 2-2 2-3l-7-16c-1-2-3-2-4-1v-1l9-4c9-4 15 0 17 5 2 6 1 12-7 16l-10 5v-1Zm7-6c0 1 1 2 2 1 4-1 6-5 2-12-1-3-5-10-10-7-2 1-2 2-1 2l7 16ZM139 147h4c2 1 3 4 4 6-2 0-6 1-8-1l-7-4v-1l3-1c1 1 2 2 4 1Zm22 18-1 1 3 1c2 1 1 2 1 4h-3l-2-2-1 1-3-5h3l2-1 1 1Z"/>
        <path fill="#fff" d="M144 152h-2l-2-1h-1l1-1s0 2 2 2l1-2 1 2Z"/>
        <path fill="#231F20" d="m360 165-2 5-2-2-2 3-2-1c0-1-1-4 1-4h2v-2c2-1 3 3 5 1Z"/>
        <path fill="#fff" d="M370 152h2l3-1h1l-1-1s0 2-2 2l-1-2-2 2Z"/>
        <path fill="#BBBDBF" d="m143 210-4-3 4 3Z"/>
        <path fill="#F0B83D" d="M130 133v1c-8 2-18 9-21 19-4 11-3 26 4 36l-2 5-7-1-2 1c1 2 4 2 6 3 4 0 7-3 9-6v4c-2 4-8 2-11 3 2 3 5 2 8 2 5-1 6-9 12-7-5 2-2 10-9 9-1 0-3-1-4 1l7 2c5-2 6-10 13-8l2 1c-3 0-6 0-8 2s-3 6-7 6c-1 0-3-2-3 0 1 2 4 1 3 4 3 2 7 1 10 0v1l5-2c3 1 6 1 8 4v2c-4-3-9-4-13-2l-8-2v2c5 7 20 2 18 15l-3 4v-6c-2-6-8-6-13-10l-1 1c0 2 2 2 3 3 3 2 7 2 9 6l-1 4c0-3-2-6-6-8-4-1-7-5-8-10-4-7-13-8-18-15-3-7 1-13 5-18l-1-1c-4 2-4 8-9 9 2-5 1-12 8-14l1-2c-2-1-5 1-6 2l-3 2c1-2 3-6 6-6l1-2h-3l-6 3c0-4 6-6 8-9-2-1-4 1-6 2h-2l2-3 6-3-1-1h-1l4-2c-1-1-3-2-5-1 0 0 2 0 2-2l-2-2c3-1 5 2 8 3v-1c-1-3-3-3-5-5l5 2c2-3-3-4-4-6 3-2 5 2 7 3v-2l-4-5c3-1 4 3 6 4v-3l-4-4c3-1 5 3 8 3 0-2-4-5-3-8 4 0 4 5 7 6l-2-8c1-1 2 1 3 1 2 2 1 6 4 5-1-3-1-6 1-9 0 3 1 6 3 8Z"/>
        <path fill="#F0B83D" d="M139 205h-1c-2-1-5 0-7 1s-4 3-6 2c4-2 6-7 12-5l2 2Zm-8 23-1 5h-3c0-2 0-5 2-7l2 2Z"/>
        <path fill="#BBBDBF" d="M129 265c6 4 13 7 20 7 5 2 12 1 17 0-2 5-6 8-11 9-10 2-20 1-28-5-3-3-8-6-7-11 1-2 1-5 3-4 2 2 4 4 6 4Z"/>
        <path fill="#BBBDBF" d="m155 284 3-1-3 6c-6 3-14 4-21 2-7-1-15-4-18-11-1-3 1-6 3-9 9 11 23 15 36 13Z"/>
        <path fill="#BBBDBF" d="M145 294h4l1-1c-2 5-6 9-12 9-9 0-17-2-23-8-2-2-4-4-3-7 1-2 0-3 2-5 8 9 19 15 31 12Z"/>
        <path fill="#BBBDBF" d="M110 292c8 10 20 13 32 12-3 5-8 7-13 7-8 0-16-4-20-11-3-3 0-5 1-8Z"/>
        <path fill="#BBBDBF" d="M134 313c-2 4-6 6-10 6-8 1-15-3-19-10-1-3 1-6 2-8 5 10 16 13 27 12Z"/>
        <path fill="#BBBDBF" d="M127 321c-3 6-9 5-14 5-5-1-10-5-11-9 1-2 0-4 2-5 5 8 14 10 23 9Z"/>
        <path fill="#BBBDBF" d="M121 328c0 2-1 3-3 4h-13l-4-4 1-7c4 7 12 8 19 7Zm-3 7-2 4c-3 1-8 2-11 0-2 0-3-1-4-3v-4c5 3 11 4 17 3Zm-1 6-2 4c-4 2-8 2-11 0-2-1-1-3-2-4 5 2 10 2 15 0Zm0 8-1 3c-2 1-3 3-5 3l-3-1-3-6c3 2 8 1 11 0l1 1Zm3 9c1 3-4 2-3 5l4-2c3 0 5 3 8 3l1-1-7-5-1-3c7 3 16 2 21 8 1 1 2 3 1 4-6 5-13 3-19 2-6-3-12-7-16-13 3 1 6 0 8-2l3 4Zm-28-68v-1c-1-3-6-4-4-8 2-3 5 0 9-1l8 1c-1 4-5 4-7 6 0 3 4 3 3 6l-9-3Zm48-165-1 6c-1 1 0-1-1-1l-1 1c-1-2 1-4 2-6h1Zm5 6c1 2 0 3-1 4v-1h-2l3-3Z"/>
        <path fill="#F0B83D" d="M83 238c-1 11 0 22 9 31 2 3 5 6 9 8-5 1-10-2-15 1l-1 6c2 3 4 5 7 6l9 3c-8-2-18-3-25 2-7 3-8 11-8 17 1 6 5 11 5 18-4-6-12-8-13-15 0-4-1-7-3-10l2-10-1-2c2-6 5-11 12-12 2-2-3-3-4-4l-2-6c2-1 5-2 7-1h2v-2c-5-3-7-11-6-17 2-3 0-8 1-12h2l6-13 1 2h1l6-7c1 5-2 11-1 17Zm28 38-1 2c1-4-5-9 1-11 2-1 3-2 3-4 2-4-5-7 0-10 4-3 5-8 3-12l-1-3 6-5c0 16-5 29-11 43Z"/>
        <path fill="#231F20" d="M81 228c0 8-4 16-1 24l5 16v1c-2 1-3-2-3-3-6-11-6-26-2-38h1Zm-9 19v1h-1l1-1s1 0 0 0Zm1 3c1 7 3 14 8 19l-1 2-4-5c-3-5-4-10-5-16h2Zm-1 36c0 2-2 2-3 3-5 5-6 11-7 17h-1c-1-8 3-16 9-21l2 1Z"/>
        <path fill="#231F20" d="M70 298c-7 9-1 19 1 28l-2-3c-3-8-7-20 0-28l3-3c3 3-1 4-2 6Z"/>
        <path fill="#BBBDBF" d="m220 220-1-2 1 2Zm76 0 1-2-1 2Zm-147 86c1 4 3 8 2 12l1 1c2-3 1-8 1-11 4 5 5 12 5 19h1c3-3 0-6 1-10 4 5 3 13 3 18l1 1 1-3c2 6 1 12-2 18 1-16-10-30-23-39l4-4c0 2-1 4 1 5 2-2-1-8 3-10l1 3Zm223 7v-6l4 4c-13 10-24 23-23 40-2-5-3-13-2-19 0 1 0 2 2 3 2-1-1-4 0-6 0-5 0-9 3-13 0 4-1 8 1 11l2-1c-1-7 0-13 4-19 0 4-1 8 2 11v-1c0-5 0-11 4-15 3 3 0 8 3 11Z"/>
        <path fill="#fff" d="M172 319h-1l5-2 4-6c-2 3-4 8-8 8Zm5 2c-1-1 1-2 2-3l-2 3Zm0 5 5-9c1 3-3 6-5 9Zm163-5c-1-1-3-2-3-4 0 2 4 2 3 4Zm3 1v1l-1-1v-1l1 1Zm-169 2v-2 2Z"/>
        <path fill="#231F20" fill-rule="evenodd" d="m187 229-1-2-1 2h2Z" clip-rule="evenodd"/>
        <path fill="#fff" fill-rule="evenodd" d="M226 91v20h-1V90l1 1Zm-72 85 3 2c1 1 4 5 8 4 0 0 1 1-3 1-3 0-4-2-5-3l-3-3v-1Zm208 0-3 3-1 2-5 2-2-1h1c1 0 2 1 4-2s5-4 6-4Z" clip-rule="evenodd"/>
        <path fill="#F0B83D" d="M198 246c6 22-2 42-7 61l1-14c-3-7 3-14-1-21 1-3-1-6-3-9 0-5 0-11-3-15h-6l5-15c7 0 12 7 14 13Z"/>
        <path fill="#fff" fill-rule="evenodd" d="m231 27 1 4-2 1v-4c-1-2-2-4-5-4l-4 4c-2 2 1 5 1 7l-3-3c-1-2 0-4 1-6 2-1 6-4 9-2l2 3Z" clip-rule="evenodd"/>
        <path fill="#fff" fill-rule="evenodd" d="m227 30-1 3 1 39-2 2V29l2 1Z" clip-rule="evenodd"/>
        <path fill="#F0B83D" d="m101 308-3-6c3-2 6-5 6-8 1-2-1-4-2-6l7-6c-4 8-5 18-8 26Zm-2 12-3-3 4-4-1 7Zm244 7 1 7c2 19-7 37-23 46-21 15-45 25-62 45h-1c-10-12-24-20-37-28l-13-8-9-6c-16-9-27-24-27-43 1-4-1-8 1-11l5-1h1c0 1-1 2 1 3l5-1c-2 20 8 37 25 46 16 9 34 17 48 32 2 0 2-2 4-3 16-16 37-23 54-36 12-10 17-24 15-39 2 0 5 2 7 0l-1-3c2 1 4 2 6 0Z"/>
        <path fill="#fff" d="M221 245s16-3 22-6v151s-1 1-3-1l-19-11V245Zm52-6 13 4c5 1 8 1 9 3v132l-22 12V239Zm-47-116v64l-1 6v-68l1-2Z"/>
    </g>
    <defs>
        <clipPath id="a">
            <path fill="#fff" d="M0 0h512v512H0z"/>
        </clipPath>
    </defs>
</svg>
