<svg xmlns="http://www.w3.org/2000/svg" fill="none" viewBox="0 0 512 512">
    <g clip-path="url(#a)">
        <path fill="#E53233" d="M271 512c-10-2-19-6-25-12-4-4-6-7-8-13l-1-19-1-17-4-3h-1v42h-18v-90h25c10 1 14 4 16 10l1 18-1 5c-2 4-6 7-10 7-4 1-3 1 1 2 4 0 7 2 8 5 2 3 2 5 2 18l1 17c1 4 3 6 6 9 5 4 10 6 18 6h5v15h-14Zm-36-76c2-1 2-2 2-13v-10l-1-1-3-1h-2v25h4Zm-51 56c-9-1-14-6-16-15v-34l1-32c2-9 8-13 20-13s17 4 20 13v68c-2 7-6 11-12 12-3 1-10 2-13 1Zm7-14 1-4v-61l-1-1c-2-2-3-2-4 0l-1 1v32l1 33h4Zm83 14c-8-1-13-5-15-13v-67c3-10 9-14 21-14s18 4 20 14v34h-24v16l1 15 1 1h4l1-11v-11h17v22c-2 8-6 12-13 13-3 1-9 2-13 1Zm9-69c0-12 0-12-3-12s-3 0-4 12v10h7v-10Zm37 69c-9-1-13-5-15-13l-1-13v-10h18v10l1 12h4l1-8-1-9-10-13-12-14-1-2v-9l1-12c2-8 9-13 20-13 12 0 19 5 21 15v18h-18v-18l-1-1c-1-2-2-2-4-1l-1 8c0 8-1 8 10 20s12 13 13 16l1 22c-2 8-6 13-13 14-3 1-10 2-13 1Zm-188-47v-45h34v12h-16v21h15v13h-15v44h-18v-45Zm227 7v-39h-11v-13h41v13h-12v77h-18v-38Zm-106-68a98 98 0 0 1-40-13c-15-7-23-10-33-13h-18c-8 1-17 6-26 15l-4 4v-28l2-2a57 57 0 0 1 47-12c9 2 18 5 27 11 14 8 25 13 38 15h27c14-2 26-7 40-15 9-6 16-9 25-11l13-1c8 0 11 1 18 3s14 6 18 10l2 2v28l-3-3c-9-9-16-13-25-16l-9-1c-13 0-24 4-37 11-14 7-23 11-34 14-9 2-20 3-28 2Zm-2-33a99 99 0 0 1-40-14c-14-7-22-10-33-12h-20c-9 2-18 6-24 11l-2 2v-25l1-2c6-5 16-9 25-10h22c10 2 18 6 28 12a94 94 0 0 0 74 13c10-2 20-7 30-13 12-7 21-11 32-13l19 1c10 1 19 5 25 10l1 2v25l-3-2c-12-11-29-14-48-10-8 1-13 3-30 12-13 7-25 11-37 12l-20 1Zm-2-34c-12-2-24-7-37-14s-24-11-35-13h-13c-12 1-25 6-31 11l-1 1v-25l2-2c3-3 8-5 15-7 13-5 28-4 46 2 9 3 16 6 27 12l10 5v-56l-2 1-11 5a41 41 0 0 1-48-20h-3c-9 3-19 3-28 0-13-5-23-17-26-31v-14a43 43 0 0 1 17-26l1-1v-3c-3-11 3-23 14-29l2-2-1-4V95c0-4 3-9 6-12 4-4 9-7 15-8l4-1-1-3-1-10c0-7 0-9 2-14a37 37 0 0 1 35-23h7l1-3 13-12c6-4 11-6 18-8h19a54 54 0 0 1 35 21l2 3c13-3 28 1 36 10 6 7 9 13 9 23l-1 14 3 2c8 3 17 12 21 21 2 4 2 7 2 11v4l2 2c6 3 11 9 13 15v16c0 3-1 3 4 7 6 4 11 12 13 19 1 4 1 13-1 17a42 42 0 0 1-40 31 42 42 0 0 1-13-1c-5 7-10 12-17 15-8 4-14 6-23 6-6 0-10-1-16-4l-4-2v56l4-2c21-12 39-18 55-20 14-1 30 2 38 9l2 2v26l-2-2c-8-7-28-12-42-10-12 2-23 6-36 13a159 159 0 0 1-40 15l-1-61v-61l2 2c6 6 16 10 27 11 20 2 38-8 43-22v-2l2 2c0 1 2 3 4 3 8 6 18 5 25-2a19 19 0 0 0-10-32l-1-1 1-2c2-3 3-6 2-11l-1-6c-3-6-8-9-14-11h-4l1-1 2-8c1-10-5-19-16-23l-10-2h-2l2-2c3-5 4-10 4-16l-2-8a27 27 0 0 0-36-17l-2 1v-2a27 27 0 0 0-25-19c-5-1-9 0-14 3-7 3-12 9-14 15 0 3 0 3-4 1h-14a27 27 0 0 0-13 44h-4c-7 0-14 3-19 8s-7 10-6 17c0 4 1 6 3 9l1 2h-4l-6 1c-5 1-9 4-11 8-3 6-1 14 5 20l2 2h-2c-2 1-7 3-9 6-5 4-7 8-7 14 0 5 2 10 6 13 8 6 20 6 28-1l2-2 1 2 6 9c8 7 19 11 32 11s24-4 32-11l3-3v122h-1l-4-1Z"/>
    </g>
    <defs>
        <clipPath id="a">
            <path fill="#fff" d="M0 0h512v512H0z"/>
        </clipPath>
    </defs>
</svg>
