<svg xmlns="http://www.w3.org/2000/svg" fill="none" viewBox="0 0 512 512">
    <g clip-path="url(#a)">
        <g clip-path="url(#b)">
            <path fill="#211E1F" fill-rule="evenodd" d="M417 366a208 208 0 0 1-317 1l-45 55a278 278 0 0 0 408-1l-46-55Z" clip-rule="evenodd"/>
            <path stroke="#fff" stroke-width="3" d="M417 366a208 208 0 0 1-317 1l-45 55a278 278 0 0 0 408-1l-46-55Z"/>
            <path fill="#211E1F" fill-rule="evenodd" d="M382 158v241c0 7-5 13-11 16l-112 43-112-43c-7-3-11-9-11-16V158h246Z" clip-rule="evenodd"/>
            <path stroke="#fff" stroke-width="3" d="M382 158v241c0 7-5 13-11 16l-112 43-112-43c-7-3-11-9-11-16V158h246Z"/>
            <path fill="#fff" fill-rule="evenodd" d="M142 344V195h234v149H142Z" clip-rule="evenodd"/>
            <path fill="#D61F26" fill-rule="evenodd" d="M376 330c-2 3-7 6-13 6s-11-3-13-6c-2 3-7 6-13 6s-11-3-13-6c-2 3-7 6-13 6s-11-3-13-6c-2 3-7 6-13 6s-11-3-13-6c-2 3-7 6-13 6s-11-3-13-6c-2 3-7 6-13 6s-11-3-13-6c-2 3-7 6-13 6s-11-3-13-6c-2 3-7 6-13 6s-11-3-13-6c-2 4-7 6-13 6s-11-3-13-6v66c0 6 4 12 10 14l107 42 107-42c6-2 10-8 10-14v-66Z" clip-rule="evenodd"/>
            <path fill="#2EABE2" fill-rule="evenodd" d="M376 323c-2 4-7 6-13 6s-11-2-13-6c-2 4-7 6-13 6s-11-2-13-6c-2 4-7 6-13 6s-11-2-13-6c-2 4-7 6-13 6s-11-2-13-6c-2 4-7 6-13 6s-11-2-13-6c-2 4-7 6-13 6s-11-2-13-6c-2 4-7 6-13 6s-11-2-13-6c-2 4-7 6-13 6s-11-2-13-6c-2 4-7 6-13 6s-11-2-13-6v-8c2 3 7 6 13 6s11-3 13-6c2 3 7 6 13 6s11-3 13-6c2 3 7 6 13 6s11-3 13-6c2 3 7 6 13 6s11-3 13-6c2 3 7 6 13 6s11-3 13-6c2 3 7 6 13 6s11-3 13-6c2 3 7 6 13 6s11-3 13-6c2 3 7 6 13 6s11-3 13-6c2 3 7 6 13 6s11-3 13-6v8Zm0-14c-2 3-7 5-13 5s-11-2-13-5c-2 3-7 5-13 5s-11-2-13-5c-2 3-7 5-13 5s-11-2-13-5c-2 3-7 5-13 5s-11-2-13-5c-2 3-7 5-13 5s-11-2-13-5c-2 3-7 5-13 5s-11-2-13-5c-2 3-7 5-13 5s-11-2-13-5c-2 3-7 5-13 5s-11-2-13-5c-2 3-7 5-13 5s-11-2-13-5v-9c2 4 7 6 13 6s11-2 13-6c2 4 7 6 13 6s11-2 13-6c2 4 7 6 13 6s11-2 13-6c2 4 7 6 13 6s11-2 13-6c2 4 7 6 13 6s11-2 13-6c2 4 7 6 13 6s11-2 13-6c2 4 7 6 13 6s11-2 13-6c2 4 7 6 13 6s11-2 13-6c2 4 7 6 13 6s11-2 13-6v9Z" clip-rule="evenodd"/>
            <path fill="#211E1F" fill-rule="evenodd" d="M276 405s11 18 5 13l-14-20-24 9s-13 17-10 10c2-6 8-14 14-21l-16-19s-20-8-12-7c5 0 16 4 23 7l14-21s1-21 3-14v25l25 6s20-5 14-1c-5 3-15 6-23 8l1 25Z" clip-rule="evenodd"/>
            <path stroke="#211E1F" stroke-width="1.8" d="M276 405s11 18 5 13l-14-20-24 9s-13 17-10 10c2-6 8-14 14-21l-16-19s-20-8-12-7c5 0 16 4 23 7l14-21s1-21 3-14v25l25 6s20-5 14-1c-5 3-15 6-23 8l1 25Z"/>
            <path fill="#fff" fill-rule="evenodd" d="m257 400 1 1 1-1v-5s0-10 8 1c21 30-9 31-9 31s-30-1-9-31c8-11 8-1 8-1v5Z" clip-rule="evenodd"/>
            <path stroke="#211E1F" stroke-width="1.8" d="m257 400 1 1 1-1v-5s0-10 8 1c21 30-9 31-9 31s-30-1-9-31c8-11 8-1 8-1v5Z"/>
            <path fill="#fff" fill-rule="evenodd" d="M242 388v2l5-2s10-3 2 8c-22 29-32 1-32 1s-9-28 26-18c13 4 3 7 3 7l-4 2Z" clip-rule="evenodd"/>
            <path stroke="#211E1F" stroke-width="1.8" d="M242 388v2l5-2s10-3 2 8c-22 29-32 1-32 1s-9-28 26-18c13 4 3 7 3 7l-4 2Z"/>
            <path fill="#fff" fill-rule="evenodd" d="M249 370h-1l-1 1 3 4s6 8-7 4c-34-12-10-30-10-30s24-17 25 20c0 13-6 5-6 5l-3-4Z" clip-rule="evenodd"/>
            <path stroke="#211E1F" stroke-width="1.8" d="M249 370h-1l-1 1 3 4s6 8-7 4c-34-12-10-30-10-30s24-17 25 20c0 13-6 5-6 5l-3-4Z"/>
            <path fill="#fff" fill-rule="evenodd" d="M268 371v-1h-1l-3 4s-6 8-6-6c1-36 25-19 25-19s24 18-11 30c-12 4-6-4-6-4l2-4Z" clip-rule="evenodd"/>
            <path stroke="#211E1F" stroke-width="1.8" d="M268 371v-1h-1l-3 4s-6 8-6-6c1-36 25-19 25-19s24 18-11 30c-12 4-6-4-6-4l2-4Z"/>
            <path fill="#fff" fill-rule="evenodd" d="M274 390v-2l-5-2s-9-3 3-7c36-10 27 18 27 18s-10 28-32-1c-8-11 2-8 2-8l5 2Z" clip-rule="evenodd"/>
            <path stroke="#211E1F" stroke-width="1.8" d="M274 390v-2l-5-2s-9-3 3-7c36-10 27 18 27 18s-10 28-32-1c-8-11 2-8 2-8l5 2Z"/>
            <path fill="#211E1F" fill-rule="evenodd" d="m237 356-4 2c-2 0-3 2-3 2s-1 3-2 2l1-3 3-3 4-2 4-3c1-2 2-2 3-2h3c1 1-2 1-2 1l-3 2-4 4Zm41 0-3-4-3-2s-3 0-2-1h3s2 0 3 2l3 3 5 2 3 3v3l-1-2-3-2-5-2Zm13 38 2-4 1-3 1-3 1 3-1 4-2 4-1 5-1 3-3 2 1-2 1-4 1-5Zm-33 24 5 1h6l-3 2h-3l-5-1-5 1h-4l-2-2h6l5-1Zm-33-24 1 5 1 4 1 2-3-2-1-3-1-5-2-4-1-4 1-3 1 3 1 3 2 4Z" clip-rule="evenodd"/>
            <path fill="#FFC213" fill-rule="evenodd" d="M258 377a7 7 0 1 0 0 13 7 7 0 0 0 0-13Z" clip-rule="evenodd"/>
            <path stroke="#FFCB04" stroke-width=".7" d="M258 377a7 7 0 1 0 0 13 7 7 0 0 0 0-13Z"/>
            <path fill="#211E1F" fill-rule="evenodd" d="M271 255v18l16-10 5 8-19 10v4s22 12-4 11v1c-9 7-18 0-18 0-25 0-4-12-4-12v-4l-16-12 3-8 15 12 1-18h21Z" clip-rule="evenodd"/>
            <path fill="#0CB14B" fill-rule="evenodd" d="M290 270c15 17 26-1 26-1 18-4 7-18 7-18 20-12-3-23-3-23 0-17-15-15-15-15-15-14-30 1-30 1-23-19-40 3-40 3s-14-10-21 6c0 0-23-1-15 23 0 0-17 17 6 26 0 0 12 23 30 1 0 0 10 1 8-14 0 0 14 6 26 0 0 0 4 9 13 4 0 0-1 5 7 7h1Z" clip-rule="evenodd"/>
            <path stroke="#211E1F" stroke-width="7.4" d="M290 270c15 17 26-1 26-1 18-4 7-18 7-18 20-12-3-23-3-23 0-17-15-15-15-15-15-14-30 1-30 1-23-19-40 3-40 3s-14-10-21 6c0 0-23-1-15 23 0 0-17 17 6 26 0 0 12 23 30 1 0 0 10 1 8-14 0 0 14 6 26 0 0 0 4 9 13 4 0 0-1 5 7 7h1Z"/>
            <path fill="#FFC213" fill-rule="evenodd" d="m90 417 1 1c-4 7-4 12-2 14s5 1 7-1l2-4-2-5c-3-5-3-9 1-13 5-5 10-7 13-4 2 2 3 3 3 6l2-1 1 1-8 10-1-1c3-7 4-11 2-13s-5-1-7 1c-2 4-1 5 1 9l2 6-4 8c-5 5-10 6-13 3-2-1-3-3-3-6l-3 1-1-1 9-11Zm31 4c3-2 6-2 9 0s4 5 4 9c-1 4-2 8-5 12s-6 7-10 9-7 2-10 0c-2-2-4-5-3-9 0-4 2-8 5-12 3-5 6-8 10-9Zm-10 28c3 2 7-2 13-10 6-9 8-14 5-16s-7 1-13 10-8 14-5 16Zm40-12h-1c-2-1-2 0-3 1l-8 16c-3 5-3 9 0 10h4c2-1 4-3 6-7l6-11c1-4 2-5 0-7h-1l2-2 7 4-1 2c-3-1-4 0-6 4l-6 11-5 8c-3 3-6 3-9 1-6-3-6-8-3-14l9-17v-3l-1-1 1-2 10 5-1 2Zm27 13c-1-1-2 0-2 1l-9 24v3h1l-1 3-10-5 1-2 1 1c2 0 2 0 3-2l9-24v-2c-2-1-6 2-9 8h-1l5-13 18 7-4 13-2-1c2-6 2-11 0-11Zm15 36c1 0 2 0 2-2l3-11-7-2-3 11c-1 2-1 2 1 3h1l-1 3-10-3v-3l2 1 2-2 6-24v-3l-2-1 1-2 11 3-1 2h-2c-1-1-1 0-2 2l-2 10 7 2 3-10-1-3h-1v-3l11 3-1 3-1-1c-1 0-2 0-2 2l-7 24 1 3h2l-1 3-11-3 1-2h1Zm29 6h1l1-1v-2l-1-5-7-1-1 2-1 3c0 2 1 3 3 3v2l-9-1 1-2c2 0 3-2 4-6l11-25h2l4 32 1 2v3l-10-2 1-2Zm-5-12 6 1-1-12-5 11Zm26 8c0 4 0 6 3 6v3l-8-1v-2c2 0 3-2 3-6l1-21c0-2-1-3-2-3h-1v-3l9 1 4 21 5-21h9v3l-1-1c-2 0-2 1-2 3v25c-1 2 0 2 1 2h1v3h-11l1-3h1l1-2 1-26-7 31h-2l-5-32-1 23Zm39 5h2l1 2-12 2v-3h1c2 0 2-1 2-3l-3-24-1-3h-2v-2l12-1c6-1 9 2 9 9 1 7-2 10-8 11h-3l1 10 1 2Zm-2-15h1c4 0 5-2 5-8-1-5-2-7-6-7-1 0-2 1-2 3l2 12Zm28-19v2l5 25c0 2 0 2 2 2h1v2l-10 3-1-3h2l1-3-6-25-1-2c-3 1-4 5-3 12h-1l-2-13 18-4 4 13h-2c-2-6-4-10-7-9Zm14-2c1-4 3-6 6-7s6 0 9 2c3 3 5 7 7 12s2 9 1 13-3 7-6 8-6 0-9-3l-7-11c-1-5-2-10-1-14Zm16 25c4-1 4-6 1-16-4-10-7-15-10-14-4 2-4 7 0 17 3 10 6 14 9 13Zm18-7c2-1 2-3 0-7l-9-19h-1l-2-1h-1l-1-2 7-3 19 15-5-12c-2-4-3-5-6-4l-1-2 8-4 1 2c-2 2-2 3 0 7l11 24-2 1-24-19 8 17c2 4 3 5 6 4l1 2-8 4-1-3Zm44-47-1 1c-5-6-9-7-12-4-2 1-2 1 0 3l5 9 1-1c2-1 2-3-1-8h2l9 13-2 1c-3-4-5-5-7-3l6 9 3 2 2-2 1 3-9 6-2-2 1-1v-3l-14-20c-1-2-1-2-2-1h-2l-1-2 16-10 7 10Zm28 7c-2 2-4 2-7 2-4-1-9-4-13-9l-6-12c-1-4 0-7 2-9l6-2v-2l1-1 9 10-1 1c-6-5-10-7-13-4-3 2-1 7 6 15s11 11 15 8c2-2 2-6-2-12l2-1c4 7 5 13 1 16Z" clip-rule="evenodd"/>
            <path fill="#fff" fill-rule="evenodd" d="m55 141 5 11-15 4 4 10 16-4 5 10-16 4 5 9 16-4 5 10-16 4 5 10 16-4 7 13 8-3-36-73-9 3Zm42 4c-1-5 11-12 21-19l-13-25a61 61 0 0 0-20 18l12 26Z" clip-rule="evenodd"/>
            <path fill="#D61F26" fill-rule="evenodd" d="M125 100c-3-4-10-4-20 1l13 25c8-7 15-16 7-26Zm-61 38 36 73c10-4 19-10 22-15l-16-33-8-17-1-1-12-26c-6 7-11 15-21 19Zm-9 3H37l8 15 15-4-5-11Zm10 21-16 4 5 10 16-4-5-10Zm10 19-16 4 5 10 16-4-5-10Zm-6 24 6 11c5 0 11 0 17-2l-7-13-16 4Z" clip-rule="evenodd"/>
            <path fill="#fff" fill-rule="evenodd" d="m117 126 7 14 16-14-13-23c5 9-2 16-10 23Z" clip-rule="evenodd"/>
            <path fill="#D61F26" fill-rule="evenodd" d="m98 146 2 2c7 5 15 0 24-8l-7-14c-10 8-23 15-19 20Z" clip-rule="evenodd"/>
            <path stroke="#211E1F" stroke-width="5.9" d="M98 146c-8-10 44-24 27-46-4-6-20-4-36 14-12 14-18 30-52 27l38 75c19 1 42-12 47-20l-24-50Z"/>
            <path stroke="#211E1F" stroke-width="5.9" d="M140 126c-16 14-30 29-40 22l-2-2c-7-9 40-22 29-43l13 23Z"/>
            <path fill="#fff" fill-rule="evenodd" d="m458 141-5 11 15 4-5 10-15-4-5 10 15 4-4 9-16-4-5 10 16 4-5 10-16-4-7 13-8-3 36-73 9 3Zm-43 4c1-5-10-12-20-19l13-25a63 63 0 0 1 20 18l-13 26Z" clip-rule="evenodd"/>
            <path fill="#D61F26" fill-rule="evenodd" d="M387 100c3-4 11-4 21 1l-13 25c-8-7-15-16-8-26Zm62 38-36 73c-11-4-19-10-22-15l24-50v-1l13-26c6 7 11 15 21 19Zm9 3h18l-8 15-15-4 5-11Zm-10 21 15 4-5 10-15-4 5-10Zm-10 19 16 4-5 10-16-4 5-10Zm6 24-6 11c-5 0-11 0-17-2l7-13 16 4Z" clip-rule="evenodd"/>
            <path fill="#fff" fill-rule="evenodd" d="m395 126-7 14-15-14 13-23c-5 9 1 16 9 23Z" clip-rule="evenodd"/>
            <path fill="#D61F26" fill-rule="evenodd" d="m415 146-2 2c-7 5-15 0-25-8l7-14c11 8 24 15 20 20Z" clip-rule="evenodd"/>
            <path stroke="#211E1F" stroke-width="5.9" d="M415 146c7-10-44-24-28-46 5-6 20-4 37 14 12 14 18 30 52 27l-38 75c-19 1-42-12-47-20l24-50Z"/>
            <path stroke="#211E1F" stroke-width="5.9" d="M373 126c16 14 29 29 40 22l2-2c7-9-40-22-29-43l-13 23Z"/>
            <path fill="#fff" fill-rule="evenodd" d="m303 124-15 10v52l21-13v-54l-6 5Zm35-15-1 1-7 56h1c6 0 12 2 17 5l16-51c-8-6-16-11-26-11Zm75 39c-7 5-15 0-24-8l-22 45c9 8 17 14 24 11l24-50-2 2Zm-313 0-2-2 24 50c7 3 15-3 24-11l-22-45c-9 8-17 13-24 8Zm156 0-8-2v52l8 2 9-2v-52l-9 2Zm-82-39c-9 0-18 5-26 11l17 51c5-3 11-5 17-5h1l-8-56-1-1Zm35 15-6-5v54l22 13v-52l-16-10Z" clip-rule="evenodd"/>
            <path fill="#D61F26" fill-rule="evenodd" d="M225 134v52c8 5 16 10 23 12v-52l-23-12Zm-50-24 8 56c6 0 13 3 20 7v-54c-7-4-17-9-28-9Zm-51 30 22 45c6-5 12-11 19-14l-17-51-24 20Zm141 6v52c6-2 14-7 23-12v-52l-23 12Zm44-27v54c8-4 15-7 21-7l7-56c-10 0-21 5-28 9Zm55 1-16 51c7 3 13 9 19 14l22-45-25-20Z" clip-rule="evenodd"/>
            <path stroke="#211E1F" stroke-width="5.9" d="M256 200c19 0 55-34 75-34 26 0 44 36 60 30l24-50-2 2c-18 12-43-39-75-39-15 0-28 10-35 15-9 7-36 24-47 24-10 0-37-17-47-24-6-5-20-15-35-15-31 0-57 51-74 39l-2-2 24 50c16 6 34-30 60-30 20 0 56 34 74 34Z"/>
            <path fill="#211E1F" fill-rule="evenodd" d="M257 97c49 0 88-22 88-48S306 1 257 1c-48 0-88 22-88 48s40 48 88 48Z" clip-rule="evenodd"/>
            <path stroke="#fff" stroke-width="3" d="M257 97c49 0 88-22 88-48S306 1 257 1c-48 0-88 22-88 48s40 48 88 48Z"/>
            <path fill="#FFC213" fill-rule="evenodd" d="M257 89c43 0 78-18 78-40S300 9 257 9s-78 18-78 40 35 40 78 40Z" clip-rule="evenodd"/>
            <path d="M257 89c43 0 78-18 78-40S300 9 257 9s-78 18-78 40 35 40 78 40Z"/>
            <path fill="#fff" fill-rule="evenodd" d="M257 79c35 0 64-11 64-25s-29-25-64-25-63 11-63 25 28 25 63 25Z" clip-rule="evenodd"/>
            <path stroke="#211E1F" stroke-width="11.9" d="M257 79c35 0 64-11 64-25s-29-25-64-25-63 11-63 25 28 25 63 25Z"/>
            <path fill="#fff" fill-rule="evenodd" d="M257 36a61 61 0 0 0 0 122h-1a61 61 0 0 0 0-122h1Z" clip-rule="evenodd"/>
            <path stroke="#211E1F" stroke-width="5.9" d="M257 36a61 61 0 0 0 0 122h-1a61 61 0 0 0 0-122h1Z"/>
            <path fill="#211E1F" fill-rule="evenodd" d="m247 148-13-22-23-4-5 8v1l1 1c8 11 19 19 32 23l2 1 6-8Zm-16-59 10 30h31l10-30-25-19-26 19Zm26-31 19-13v-6a61 61 0 0 0-38 0v6l19 13Zm-36 21 1-24-5-4-7 7c-7 9-12 19-13 31l5 2 19-12Zm58 47-12 22 5 8h2c14-5 25-13 33-24v-1l1-1-6-8-23 4Zm13-47 19 12 6-2c-2-12-6-22-13-31l-8-7-5 4 1 24Z" clip-rule="evenodd"/>
        </g>
    </g>
    <defs>
        <clipPath id="a">
            <path fill="#fff" d="M0 0h512v512H0z"/>
        </clipPath>
        <clipPath id="b">
            <path fill="#fff" d="M0 0h449v512H0z" transform="translate(32)"/>
        </clipPath>
    </defs>
</svg>
