<svg viewBox="0 0 512 512" fill="none" xmlns="http://www.w3.org/2000/svg">
<path d="M206.747 342.534C205.363 342.187 204.168 341.329 203.246 340.042C198.568 347.258 196.596 353.711 198.316 359.501C205.512 383.799 226.95 401.744 252.625 404.134C228.087 396.681 209.927 371.112 206.747 342.534ZM201.723 328.174C200.177 327.073 198.853 326.041 197.911 325.142C196.27 331.186 195.513 337.581 195.782 344.171C195.834 345.503 195.93 346.821 196.062 348.127C197.011 344.233 198.881 340.165 201.562 336.016C201.043 333.588 201.125 330.827 201.723 328.174ZM202.932 324.465C203.58 322.993 204.393 321.634 205.359 320.488C206.137 319.571 206.965 318.843 207.845 318.303C210.18 307.42 215.057 297.727 222.186 290.4C211.541 297.968 203.384 308.756 199.095 321.278C199.664 322.057 201.178 323.235 202.932 324.465ZM295.012 380.331C289.698 379.741 282.589 378.337 279.487 377.262C276.022 376.065 272.94 373.17 271.246 369.514C270.545 368.003 269.911 365.992 269.809 363.555C269.752 362.098 269.891 360.492 270.318 358.753C250.837 352.811 230.203 344.56 215.838 336.889C215.332 337.815 214.754 338.675 214.105 339.442C213.025 340.72 211.812 341.647 210.563 342.176C211.911 354.129 216.062 365.841 222.671 376.046C231.438 389.581 243.378 398.858 256.276 401.779C260.849 402.809 266.826 404.095 272.174 402.911C292 398.52 308.161 384.806 316.06 366.766C315.134 366.931 314.094 367.025 312.977 367.064C308.454 380.3 298.941 380.766 295.012 380.331ZM321.246 339.064C320.963 332.094 319.558 325.438 317.206 319.261C314.314 311.688 304.649 306.316 291.919 303.433C268.383 298.112 237.468 306.901 217.796 323.452C218.551 326.47 218.327 330.071 217.313 333.355C231.487 340.977 252.102 349.226 271.551 355.147C276.129 344.635 284.893 342.63 291.728 344.339C296.624 345.561 299.772 346.202 302.069 346.664L304.598 347.198C307.847 347.957 310.697 350.116 312.406 353.124C313.617 355.249 314.729 358.609 313.971 363.237C316.361 363.097 317.518 362.697 317.785 362.38C320.338 355.104 321.581 347.232 321.246 339.064ZM310.093 363.236C310.875 359.359 310.028 356.66 309.086 355.01C307.905 352.927 305.948 351.434 303.733 350.915L301.312 350.406C299.108 349.961 295.784 349.284 290.804 348.041C284.132 346.375 278.409 349.431 275.247 356.243C278.497 357.188 281.698 358.061 284.817 358.851C285.319 356.425 285.427 354.742 285.427 354.712C285.492 353.661 286.394 352.858 287.447 352.919C288.499 352.981 289.302 353.88 289.239 354.936C289.233 355.073 289.11 357.003 288.53 359.757C289.148 359.902 289.767 360.048 290.373 360.184C290.999 360.327 291.615 360.464 292.219 360.591C292.763 357.907 293.113 355.625 293.123 355.579C293.28 354.537 294.255 353.822 295.294 353.98C296.34 354.135 297.055 355.109 296.9 356.153C296.873 356.337 296.518 358.622 295.958 361.36C297.238 361.61 298.452 361.828 299.603 362.024C300.026 359.709 300.13 357.867 300.13 357.833C300.18 356.781 301.079 355.969 302.132 356.021C303.187 356.071 304 356.966 303.945 358.016C303.937 358.173 303.835 360.107 303.382 362.596C306.027 362.955 308.249 363.152 310.093 363.236ZM274.711 367.905C276.203 371.125 278.801 372.987 280.736 373.653C283.25 374.525 289.903 375.923 295.428 376.529C301.49 377.199 306.229 373.827 308.93 367.012C306.902 366.896 304.73 366.658 302.483 366.346C302.061 367.717 301.525 369.085 300.833 370.3C300.312 371.216 299.149 371.532 298.232 371.014C297.315 370.493 296.996 369.326 297.517 368.406C297.975 367.601 298.355 366.687 298.669 365.745C297.483 365.543 296.291 365.319 295.11 365.091C294.705 366.674 294.242 368.178 293.755 369.304C293.333 370.27 292.205 370.709 291.238 370.29C290.271 369.869 289.832 368.744 290.252 367.778C290.646 366.873 291.023 365.647 291.371 364.317C290.751 364.181 290.139 364.046 289.532 363.909C288.89 363.765 288.233 363.609 287.578 363.452C287.234 364.558 286.83 365.709 286.337 366.874C285.929 367.845 284.803 368.3 283.833 367.89C282.864 367.482 282.405 366.359 282.816 365.39C283.227 364.429 283.568 363.471 283.859 362.549C280.641 361.732 277.335 360.825 273.983 359.847C273.174 363.363 273.876 366.113 274.711 367.905ZM211.808 320.325C210.961 320.171 209.282 320.183 207.604 322.007C204.946 324.888 203.698 328.792 203.89 333.601C203.944 334.828 204.115 335.515 204.462 336.503C205.082 338.251 206.571 339.406 207.658 339.604C208.951 339.841 210.41 339.084 211.773 337.472C214.749 333.94 216.033 327.464 214.573 323.332C213.966 321.61 212.986 320.541 211.808 320.325Z" fill="#001C58"/>
<path d="M231.31 6.53711C206.712 6.53711 200.882 19.1488 200.882 19.1488C200.882 19.1488 229.263 17.0978 229.263 45.1278C229.263 57.7428 222.398 66.293 215.132 75.3415C206.69 85.8505 197.127 97.7623 197.127 117.745C197.127 150.822 218.378 166.34 237.126 180.03C253.46 191.96 268.886 203.225 268.886 224.437C268.886 245.766 259.531 262.302 255.261 266.569C248.099 273.731 241.646 275.034 236.465 276.082C231.143 277.155 226.115 278.188 225.059 285.832C205.366 297.66 193.435 318.727 193.435 341.582C193.435 342.473 193.453 343.368 193.489 344.264C194.197 361.635 201.626 377.689 214.408 389.469C227.189 401.251 243.794 407.347 261.161 406.639C278.53 405.932 294.583 398.5 306.365 385.723C318.148 372.941 324.246 356.335 323.534 338.97C322.458 312.455 305.632 289.473 280.67 280.426L280.767 280.461C280.75 280.454 280.425 280.324 280.425 280.324C280.422 280.32 279.837 280.117 279.837 280.117C276.68 279.027 273.098 277.79 273.098 269.67C273.098 261.802 276.67 261.15 283.778 259.844C288.004 259.068 293.174 258.12 298.244 255.023C307.267 249.514 308.962 242.87 307.318 241.23C305.082 238.99 302.617 243.693 293.534 246.429C290.26 247.418 286.965 247.993 284.739 247.993C282.887 247.993 281.505 247.837 280.491 247.653C285.262 238.716 290.606 231.399 290.665 231.323L291.829 229.738L290.436 228.347C288.591 226.502 287.529 222.664 287.529 217.518C287.529 211.167 289.144 202.829 292.892 193.776C297.326 183.077 314.924 148.163 355.289 148.163H357.582V145.872C357.582 131.441 356.263 118.169 353.665 106.424L353.159 104.143C353.159 104.143 349.24 105.255 345.975 105.983C345.587 106.069 342.534 106.819 342.395 106.175C342.272 105.605 344.63 104.422 345.445 104.012C348.51 102.488 352.331 100.883 352.331 100.883L351.804 99.0463C348.925 88.9977 346.027 84.1959 345.903 83.9945L344.968 82.4637L343.264 83.0034C309.649 93.5924 302.462 115.898 298.167 129.223C296.077 135.698 294.784 139.361 292.447 139.361C285.509 139.361 279.77 133.623 277.883 131.737C256.927 110.779 258.531 95.6685 260.965 72.7938C261.826 64.7218 262.8 55.5745 262.8 45.1278C262.798 18.7993 252.793 6.53711 231.31 6.53711Z" fill="white"/>
<path d="M271.178 224.436C271.178 245.679 262.117 262.954 256.882 268.188C240.66 284.412 227.279 272.597 227.134 288.874C219.772 295.54 214.476 305.676 211.877 317.253C212.039 317.269 212.199 317.292 212.358 317.322C213.881 317.599 215.19 318.47 216.188 319.844C236.792 303.052 268.516 294.222 292.763 299.705C300.472 301.448 307.011 304.294 311.963 308.649C304.517 296.605 293.134 287.311 279.678 282.487C276.485 281.342 270.807 280.031 270.807 269.667C270.807 250.327 291.967 265.365 305.908 244.299C306.591 243.259 305.609 242.351 304.789 243.169C300.573 247.382 290.216 250.282 284.739 250.282C279.255 250.282 277.193 249.033 277.193 249.033C282.369 238.732 288.817 229.964 288.817 229.964C275.875 217.022 297.657 145.868 355.291 145.868C355.291 129.363 353.548 116.489 351.429 106.915C350.058 107.249 339.202 109.809 338.704 107.526C338.265 105.503 346.701 101.118 349.606 99.6756C346.773 89.8099 343.952 85.1861 343.952 85.1861C294.553 100.75 304.481 141.649 292.447 141.649C284.614 141.649 278.462 135.552 276.264 133.355C246.758 103.854 260.51 84.3285 260.51 45.1245C260.51 18.715 250.254 8.82422 231.313 8.82422C212.372 8.82422 205.605 17.0257 205.605 17.0257C205.605 17.0257 231.557 17.8663 231.557 45.1245C231.557 73.6618 199.42 81.5388 199.42 117.74C199.418 178.007 271.178 176.875 271.178 224.436ZM236.968 45.1277C236.968 41.6293 236.592 38.4699 235.909 35.6188C235.909 35.6188 241.557 35.3235 241.557 28.4497C241.557 22.783 237.777 18.9197 236.763 18.9197C235.945 18.9197 235.742 19.7878 233.972 19.7878C229.658 19.7878 229.342 14.2757 229.342 14.2757C229.981 14.2538 230.637 14.2441 231.31 14.2441C243.661 14.2441 255.093 17.9844 255.093 45.1293C255.093 55.1674 254.142 64.1003 253.305 71.9806C252.474 79.7638 251.706 87.0033 251.927 94.0729C251.927 94.0729 230.419 91.5381 230.419 75.3568C230.419 64.8487 236.968 62.292 236.968 45.1277ZM206.747 342.534C205.363 342.187 204.168 341.329 203.246 340.042C198.568 347.258 196.596 353.71 198.316 359.501C205.512 383.799 226.95 401.744 252.625 404.134C228.087 396.681 209.927 371.112 206.747 342.534ZM201.723 328.174C200.177 327.073 198.853 326.04 197.911 325.142C196.27 331.186 195.513 337.581 195.782 344.171C195.834 345.502 195.93 346.82 196.062 348.127C197.011 344.233 198.881 340.165 201.562 336.016C201.043 333.588 201.125 330.827 201.723 328.174ZM202.932 324.465C203.58 322.993 204.393 321.633 205.359 320.488C206.137 319.571 206.965 318.843 207.845 318.303C210.18 307.42 215.057 297.726 222.186 290.4C211.541 297.968 203.384 308.756 199.095 321.277C199.664 322.057 201.178 323.235 202.932 324.465ZM295.012 380.331C289.698 379.741 282.589 378.337 279.487 377.262C276.022 376.065 272.94 373.17 271.246 369.514C270.545 368.003 269.911 365.992 269.809 363.555C269.752 362.098 269.891 360.492 270.318 358.752C250.837 352.811 230.203 344.56 215.838 336.889C215.332 337.815 214.754 338.675 214.105 339.442C213.025 340.72 211.812 341.647 210.563 342.176C211.911 354.129 216.062 365.841 222.671 376.045C231.438 389.581 243.378 398.858 256.276 401.779C260.849 402.808 266.826 404.095 272.174 402.91C292 398.52 308.161 384.806 316.06 366.766C315.134 366.931 314.094 367.025 312.977 367.064C308.454 380.299 298.941 380.766 295.012 380.331ZM317.206 319.261C314.314 311.688 304.649 306.316 291.919 303.433C268.383 298.112 237.468 306.901 217.796 323.452C218.551 326.47 218.327 330.071 217.313 333.355C231.487 340.977 252.102 349.226 271.551 355.146C276.129 344.635 284.893 342.63 291.728 344.339C296.624 345.561 299.772 346.201 302.069 346.663L304.598 347.197C307.847 347.957 310.697 350.116 312.406 353.124C313.617 355.248 314.729 358.608 313.971 363.237C316.361 363.097 317.518 362.697 317.785 362.38C320.335 355.104 321.578 347.232 321.243 339.065C320.964 332.094 319.558 325.438 317.206 319.261ZM274.711 367.905C276.203 371.125 278.801 372.987 280.736 373.653C283.25 374.525 289.903 375.922 295.428 376.528C301.49 377.199 306.229 373.827 308.93 367.012C306.902 366.896 304.73 366.658 302.483 366.346C302.061 367.717 301.525 369.085 300.833 370.299C300.312 371.216 299.149 371.532 298.232 371.014C297.315 370.493 296.996 369.326 297.517 368.406C297.975 367.601 298.355 366.687 298.669 365.745C297.483 365.543 296.291 365.319 295.11 365.091C294.705 366.674 294.242 368.178 293.755 369.303C293.333 370.27 292.205 370.709 291.238 370.29C290.271 369.869 289.832 368.744 290.252 367.778C290.646 366.873 291.023 365.647 291.371 364.317C290.751 364.181 290.139 364.045 289.532 363.909C288.89 363.765 288.233 363.609 287.578 363.452C287.234 364.558 286.83 365.709 286.337 366.874C285.929 367.845 284.803 368.299 283.833 367.89C282.864 367.481 282.405 366.359 282.816 365.39C283.227 364.429 283.568 363.471 283.859 362.549C280.641 361.732 277.335 360.825 273.983 359.847C273.174 363.363 273.876 366.113 274.711 367.905ZM310.093 363.236C310.875 359.358 310.028 356.659 309.086 355.01C307.905 352.926 305.948 351.434 303.733 350.915L301.312 350.405C299.108 349.96 295.784 349.284 290.804 348.041C284.132 346.375 278.409 349.43 275.247 356.243C278.497 357.188 281.698 358.061 284.817 358.851C285.319 356.425 285.427 354.742 285.427 354.712C285.492 353.661 286.394 352.858 287.447 352.919C288.499 352.981 289.302 353.88 289.239 354.936C289.233 355.073 289.11 357.003 288.53 359.757C289.148 359.902 289.767 360.048 290.373 360.184C290.999 360.327 291.615 360.464 292.219 360.591C292.763 357.907 293.113 355.625 293.123 355.579C293.28 354.537 294.255 353.822 295.294 353.98C296.34 354.135 297.055 355.109 296.9 356.153C296.873 356.337 296.518 358.621 295.958 361.36C297.238 361.61 298.452 361.828 299.603 362.024C300.026 359.709 300.13 357.867 300.13 357.833C300.18 356.781 301.079 355.969 302.132 356.021C303.187 356.071 304 356.966 303.945 358.016C303.937 358.173 303.835 360.107 303.382 362.596C306.027 362.955 308.249 363.151 310.093 363.236ZM211.808 320.325C210.961 320.171 209.282 320.183 207.604 322.007C204.946 324.888 203.698 328.792 203.89 333.601C203.944 334.828 204.115 335.515 204.462 336.503C205.082 338.251 206.571 339.406 207.658 339.604C208.951 339.841 210.41 339.084 211.773 337.472C214.749 333.94 216.033 327.464 214.573 323.332C213.966 321.61 212.986 320.541 211.808 320.325Z" fill="#001C58"/>
<path d="M162.422 396.551C167.239 399.728 172.339 402.585 172.339 402.585L170.553 407.212C169.887 404.408 167.106 402.887 163.518 400.666L151.77 417.654C150.336 419.701 147.539 424.186 147.313 425.934C147.313 425.934 145.385 424.709 143.625 423.399C141.786 422.027 140.038 420.756 140.038 420.756C141.789 420.33 144.812 415.87 146.636 413.397L158.065 397.09C153.784 393.781 152.113 393.132 149.088 392.975L153.156 389.925C153.159 389.927 157.068 393.021 162.422 396.551Z" fill="white"/>
<path d="M348.577 454.094L348.932 454.483C348.6 454.465 348.324 454.637 347.968 454.837L348.999 456.819C349.2 457.185 349.485 457.743 349.671 457.783C349.671 457.783 349.451 457.908 349.188 458.042C348.957 458.155 348.738 458.244 348.738 458.244C348.742 457.997 348.662 457.802 348.387 457.239L347.308 455.159C346.946 455.342 346.549 455.522 346.444 455.816L346.353 455.241C346.353 455.241 346.885 454.983 347.461 454.685C348.129 454.341 348.577 454.094 348.577 454.094Z" fill="white"/>
<path d="M170.026 438.687C161.866 434.793 160.782 425.801 164.799 417.385C168.835 408.935 176.528 404.177 184.651 408.059C192.77 411.936 193.914 420.906 189.876 429.36C185.857 437.776 178.185 442.583 170.026 438.687ZM183.482 410.499C178.265 408.008 174.162 413.902 171.068 420.381C167.974 426.86 165.951 433.8 171.169 436.292C176.388 438.779 180.511 432.846 183.606 426.367C186.7 419.887 188.701 412.988 183.482 410.499Z" fill="white"/>
<path d="M206.541 416.751C212.06 418.309 216.551 419.352 216.551 419.352L216.073 424.291C214.594 422.154 213.915 421.633 209.205 420.432L203.494 439.634C203.036 441.392 200.757 448.041 201.487 449.292C201.487 449.292 199.901 448.954 197.341 448.244C194.462 447.446 193.109 446.906 193.109 446.906C194.586 445.935 196.444 440.251 197.051 437.94L202.791 418.61C197.91 416.982 196.776 416.869 194.444 417.952L197.273 413.74C197.272 413.742 200.458 415.027 206.541 416.751Z" fill="white"/>
<path d="M229.306 421.851C234.745 422.673 239.869 423.137 239.869 423.137L240.075 428.094C238.042 426.286 237.277 425.701 231.907 425.024L228.797 444.744C228.579 446.55 227.423 453.409 228.317 454.547C228.317 454.547 226.433 454.337 223.832 453.974C221.231 453.604 219.633 453.239 219.633 453.239C220.903 452.246 221.959 445.752 222.18 443.943L225.366 423.979C220.713 423.05 219.757 423.407 217.522 424.703L219.548 420.014C219.548 420.014 223.893 421.034 229.306 421.851Z" fill="white"/>
<path d="M249.474 440.599L249.064 453.851C256.012 453.943 260.77 453.503 262.887 450.489L261.825 456.51C261.825 456.51 257.976 456.587 252.34 456.51C246.147 456.421 241.285 456.017 241.285 456.017C242.316 454.996 242.571 448.538 242.584 446.723L243.15 433.717C243.175 430.254 243.491 424.657 242.328 423.48C247.362 423.828 246.721 423.822 251.344 424.002C257.398 424.243 260.826 424.062 260.826 424.062L261.587 429.034C259.224 427.061 255.681 426.83 249.897 426.796L249.578 437.918L258.461 437.969C259.262 437.978 259.312 438.424 259.309 439.315C259.3 440.193 259.288 440.661 258.444 440.652L249.474 440.599Z" fill="white"/>
<path d="M288.275 444.588C288.787 449.41 289.296 452.874 290.395 453.506C290.12 454.005 289.249 454.659 288.092 454.782C286.699 454.931 285.645 454.245 284.678 453.127L268.926 435.057L269.518 446.553C269.709 448.36 269.917 455.209 271.042 456.123L265.793 456.362C266.707 455.233 266.464 448.708 266.27 446.896L265.529 433.924C265.336 432.116 264.998 424.941 263.869 424.034L268.682 423.86L284.826 443.034L283.483 432.002C283.29 430.188 282.308 423.614 281.221 422.7C281.221 422.7 281.801 422.644 283.761 422.378C285.716 422.112 286.428 421.97 286.428 421.97C285.521 423.101 286.574 429.845 286.769 431.654L288.275 444.588Z" fill="white"/>
<path d="M317.87 437.752C318.429 439.995 319.539 445.757 321.186 446.885C321.186 446.885 318.695 447.606 317.171 448.074C315.816 448.491 312.83 449.266 312.83 449.266C313.534 448.021 311.964 441.105 311.53 439.379L310.033 433.362L300.024 435.817L301.161 441.936C301.49 443.914 302.533 450.571 303.882 451.383C303.882 451.383 302.483 451.673 299.565 452.271C297.122 452.774 295.42 453.042 295.42 453.042C296.17 451.797 295.166 445.624 294.855 443.655L292.429 430.719C291.987 428.309 290.873 422.207 289.534 421.494C289.534 421.494 290.833 421.248 293.691 420.692C296.551 420.135 297.952 419.757 297.952 419.757C297.248 421.204 298.489 427.058 298.827 429.109L299.597 433.214L309.446 430.813L308.384 426.618C307.806 424.396 306.582 419.064 305.214 418.075C305.214 418.075 306.566 417.684 309.306 416.905C312.047 416.131 313.229 415.689 313.229 415.689C312.686 417.168 314.21 422.36 314.841 425.037L317.87 437.752Z" fill="white"/>
<path d="M336.157 430.084L326.39 433.909L326.729 439.272C326.947 441.103 326.954 442.784 327.354 443.733C327.551 444.203 327.889 444.516 328.212 444.684C328.212 444.684 327.192 445.054 325.515 445.598C323.836 446.141 322.914 446.407 322.914 446.407C323.5 445.398 323.641 444.008 323.59 442.273L322.73 416.847C322.648 415.923 322.538 415.057 322.231 414.331C321.959 413.683 321.501 413.319 321.182 413.047C322.294 412.326 323.686 411.537 325.101 410.943C327.344 409.997 328.291 410.035 329.928 411.944L344.256 429.715C346.862 433.106 349.165 435.389 350.664 435.843C350.664 435.843 349.199 436.519 346.445 437.746C343.691 438.969 341.869 439.664 341.869 439.664C342.031 439.088 342.051 438.478 341.692 437.563C341.308 436.573 339.899 434.898 338.989 433.628L336.157 430.084ZM334.384 427.978L325.705 415.953L326.317 431.057L334.384 427.978Z" fill="white"/>
<path d="M377.078 420.866C375.113 422.19 373.642 423.204 373.642 423.204C373.498 421.27 369.766 416.491 368.67 415.04L360.252 404.061L367.023 425.707C366.76 426.137 366.281 426.738 365.833 427.075C364.498 428.091 363.198 427.891 362.01 426.956L345.982 413.669L351.592 424.002C352.964 426.618 355.609 432.064 357.39 432.601C357.39 432.601 356.283 433.192 354.882 433.871C353.491 434.544 352.641 434.939 352.641 434.939C352.951 433.419 350.347 428.9 348.831 426.007L342.588 414.265C340.694 410.733 338.605 407.136 336.811 406.419C338.199 405.746 338.618 405.54 340.604 404.56C342.259 403.744 343.718 402.945 343.718 402.945L361.764 418.296L354.666 396.562C354.666 396.562 355.617 395.917 357.421 394.713C359.221 393.508 360.844 392.311 360.844 392.311C360.981 394.254 364.739 399.21 366.107 400.984L373.879 410.983C375.527 413.04 378.609 417.62 380.803 418.146C380.803 418.144 379.045 419.535 377.078 420.866Z" fill="white"/>
<path d="M352.591 453.121L353.476 454.256C353.735 454.573 353.998 454.963 354.276 455.081C354.276 455.081 354.045 455.246 353.82 455.398C353.596 455.546 353.43 455.663 353.43 455.663C353.369 455.357 352.993 454.883 352.87 454.717L351.928 453.473L352.699 455.929C352.667 455.98 352.614 456.047 352.561 456.083C352.36 456.238 352.211 456.15 352.076 456.042L350.219 454.56L350.944 455.735C351.116 456.039 351.428 456.598 351.674 456.712C351.674 456.712 351.537 456.794 351.37 456.891C351.225 456.977 351.082 457.05 351.082 457.05C351.116 456.753 350.742 456.168 350.629 455.966L349.834 454.633C349.651 454.33 349.364 453.887 349.107 453.811C349.107 453.811 349.357 453.681 349.601 453.545C349.754 453.461 349.908 453.361 350.002 453.311L352.055 455.019L351.264 452.583C351.341 452.548 351.459 452.475 351.644 452.362C351.881 452.217 352.077 452.084 352.077 452.084C352.076 452.382 352.421 452.892 352.591 453.121Z" fill="white"/>
<path d="M192.398 460.386C194.071 461 196.228 461.748 196.228 461.748C194.411 463.066 192.742 468.305 191.659 471.15L187.468 482.778C186.346 485.934 184.434 490.51 185.075 492.142C185.075 492.142 182.769 491.345 180.903 490.683C179.307 490.113 178.401 489.81 176.71 489.086C178.764 488.542 180.701 481.709 181.33 479.991L183.248 474.564L173.204 470.376L170.299 476.583C169.354 478.739 167.091 483.621 167.63 485.151C167.63 485.151 165.855 484.427 163.258 483.233C160.199 481.824 159.533 481.451 159.533 481.451C161.689 480.392 162.965 476.913 164.606 473.397L169.858 461.764C171.634 457.782 173.236 454.331 173.116 452.061C173.116 452.061 174.053 452.62 176.637 453.781C178.695 454.707 179.746 455.17 180.901 455.632C179.266 456.283 176.991 462.153 175.791 464.785L174.252 468.073L184.064 472.115L185.569 468.389C186.274 466.485 188.707 460.798 188.182 458.85C188.182 458.85 190.196 459.582 192.398 460.386Z" fill="white"/>
<path d="M203.745 498.123C194.997 495.822 192.215 487.352 194.535 478.527C196.867 469.656 203.491 463.711 212.196 466.004C220.897 468.291 223.737 476.726 221.409 485.598C219.086 494.425 212.494 500.423 203.745 498.123ZM211.524 468.56C205.932 467.09 203.044 473.498 201.256 480.295C199.463 487.086 198.818 494.137 204.406 495.611C209.998 497.077 212.902 490.623 214.688 483.83C216.479 477.035 217.114 470.032 211.524 468.56Z" fill="white"/>
<path d="M227.439 501.246C227.439 501.246 227.995 500.644 228.375 499.418C228.91 497.696 229.253 494.384 229.665 491.802L232.114 472.864C226.897 472.209 225.571 472.585 223.28 473.941L225.43 469.093C227.054 469.453 230.655 469.842 235.034 470.395C237.965 470.761 246.694 471.549 246.694 471.549L246.991 476.399C245.066 474.172 243.068 473.97 238.72 473.628L236.28 492.629C236.062 494.399 235.091 500.536 236.054 502.353C235.004 502.234 233.266 502.037 231.808 501.892C230.296 501.738 228.308 501.394 227.439 501.246Z" fill="white"/>
<path d="M269.019 494.668C269.079 500.37 264.442 504.497 257.309 504.392C251.762 504.311 248.862 502.029 247.752 501.1L248.906 495.689C250.628 499.137 253.483 501.643 256.696 501.694C260.053 501.741 262.695 499.765 262.749 496.438C262.784 494.02 261.453 492.56 255.853 489.645C250.487 486.874 248.489 484.109 248.489 479.987C248.489 474.374 253.372 471.522 259.108 471.521C263.326 471.517 266.269 472.81 268.118 473.797L266.926 478.755C264.367 475.337 262.05 474.072 259.255 474.033C256.503 473.988 254.553 475.489 254.572 478.318C254.59 481.401 257.982 483.068 262.555 485.622C267.814 488.565 268.987 491.514 269.019 494.668Z" fill="white"/>
<path d="M294.991 477.204C295.195 477.873 295.317 478.685 295.38 479.323C295.434 479.912 295.463 480.692 295.393 481.429C295.242 483.277 294.365 485.425 292.915 486.934C290.7 489.247 287.813 490.398 283.986 490.577C282.51 490.667 282.157 490.217 282.058 489.151L282.049 488.92C282.049 488.92 282.017 488.508 282.339 488.486L282.71 488.45C283.84 488.309 285.519 487.955 286.865 486.319C288.156 484.634 288.597 482.396 288.372 479.988C288.132 477.485 287.381 475.683 285.699 474.388C284.238 473.266 282.522 472.901 280.756 473.041C280.756 473.041 280.047 473.101 279.261 473.226C279.261 473.226 278.801 473.267 278.839 473.717L280.736 493.359C280.9 495.088 281.371 501.175 282.79 502.43C282.79 502.43 281.175 502.601 278.134 502.851C275.815 503.04 274.007 503.087 274.007 503.087C274.617 501.58 274.516 499.351 274.364 496.756L272.894 481.268C272.727 479.495 272.428 473.419 270.983 471.918C270.983 471.918 274.87 471.343 282.063 470.663C285.824 470.307 288.905 470.786 291.563 472.585C293.303 473.755 294.498 475.462 294.991 477.204Z" fill="white"/>
<path d="M324.421 483.537C325.961 490.345 322.766 496.141 315.682 497.912C310.704 499.156 303.536 497.33 301.536 488.598L299.099 478.288C298.458 475.402 297.408 470.292 295.734 468.961C295.734 468.961 297.606 468.696 300.536 468.15C303.466 467.603 304.827 467.277 304.827 467.277C304.057 468.489 304.865 473.266 305.631 476.775L308.741 489.88C309.296 492.282 310.08 493.926 311.427 494.896C312.424 495.617 313.758 495.814 315.147 495.561C316.411 495.325 317.726 494.612 318.415 493.332C319.145 491.989 319.141 490.045 318.579 487.646L315.088 474.541C314.132 470.934 313.033 466.418 311.851 465.662C311.851 465.662 313.273 465.277 315.969 464.506C318.01 463.924 319.224 463.57 320.106 463.26C319.3 465.232 321.218 471.282 321.624 473.014L324.421 483.537Z" fill="white"/>
<path d="M356.229 480.851C356.915 481.114 357.654 481.294 358.275 481.031C358.204 481.458 357.802 482.311 357.131 483.001C354.266 485.936 351.578 485.431 350.667 485.071C345.729 483.188 337.469 475.868 337.129 475.069C337.129 475.069 337.044 474.86 337.259 474.772L337.557 474.639C338.848 474.103 340.311 472.644 340.888 471.264C341.812 469.241 341.656 467.424 340.718 465.2C339.747 462.887 338.048 461.429 336.717 461.036C334.748 460.455 333.28 460.917 332.384 461.273C332.384 461.273 331.203 461.738 330.851 462.092C330.851 462.092 330.614 462.288 330.89 463.094L337.129 480.915C338.077 483.536 339.724 488.65 341.216 489.512C341.216 489.512 339.53 490.175 336.974 491.099C334.417 492.022 332.862 492.451 332.862 492.451C333.383 490.461 331.414 485.05 330.918 483.532L326.883 471.498C325.874 468.597 324.034 463.398 322.534 462.566C322.534 462.566 325.479 461.741 332.101 458.96C335.623 457.481 339.034 456.849 342.112 457.75C343.98 458.299 345.243 459.237 346.276 460.734C346.671 461.313 346.961 461.882 347.212 462.471C347.441 463.018 347.599 463.647 347.704 464.231C348.03 466.05 347.756 467.984 346.704 469.807C346.704 469.807 345.756 471.644 343.731 473.085C343.729 473.082 350.233 478.592 356.229 480.851Z" fill="white"/>
</svg>
