<svg xmlns="http://www.w3.org/2000/svg" fill="none" viewBox="0 0 512 512">
    <path fill="#001C58" d="m207 343-4-3c-4 7-6 14-5 20 8 24 29 42 55 44-25-7-43-33-46-61Zm-5-15-4-3a63 63 0 0 0-2 23l6-12v-8Zm1-4 2-4 3-2c2-11 7-20 14-28-10 8-19 19-23 31l4 3Zm92 56-16-3c-3-1-6-4-8-7a16 16 0 0 1-1-11c-19-6-40-14-54-22l-2 2-3 3c1 12 5 24 12 34 8 14 20 23 33 26 5 1 11 2 16 1 20-4 36-18 44-36h-3c-5 13-14 14-18 13Zm26-41c0-7-1-14-4-20-3-7-12-13-25-16-24-5-55 4-74 20 1 3 0 7-1 10 14 8 35 16 55 22 4-10 13-12 20-11l10 3h3c3 1 6 3 7 6 2 2 3 6 2 10l4-1c2-7 4-15 3-23Zm-11 24c1-4 0-6-1-8s-3-4-5-4l-3-1-10-2c-7-2-13 1-16 8l10 3v-4a2 2 0 0 1 4 0v5h1l2 1 1-5a2 2 0 1 1 4 0l-1 5 4 1v-4a2 2 0 0 1 4 0l-1 5h7Zm-35 5c1 3 4 5 6 6l14 3c6 0 11-3 14-10l-7-1-1 4a2 2 0 1 1-3-2l1-2-4-1-1 4c-1 1-2 2-3 1l-1-2 1-4a312 312 0 0 1-3-1l-2 4a2 2 0 0 1-3-2l1-2-10-3c-1 3 0 6 1 8Zm-63-48c-1 0-3 0-4 2a16 16 0 0 0-4 15l4 3 4-3c3-3 4-10 3-14l-3-3Z"/>
    <path fill="#fff" d="M231 7c-24 0-30 12-30 12s28-2 28 26c0 13-7 21-14 30-8 11-18 23-18 43 0 33 21 48 40 62 16 12 32 23 32 44 0 22-9 38-14 43-7 7-13 8-19 9-5 1-10 2-11 10a65 65 0 0 0 36 121 65 65 0 0 0 63-68c-2-27-18-50-43-59a256 256 0 0 0-1 0c-3-1-7-2-7-10s4-9 11-10c4-1 9-2 14-5 9-5 11-12 9-14s-4 3-13 5l-9 2h-5l11-17 1-1-2-2-2-10c0-7 1-15 5-24 4-11 22-46 62-46h3v-2c0-15-2-28-4-40l-1-2-7 2h-4l3-2 7-3v-2l-6-15-1-2-2 1a64 64 0 0 0-45 46c-2 7-3 10-6 10-6 0-12-5-14-7-21-21-19-36-17-59l2-28c0-26-10-38-32-38Z"/>
    <path fill="#001C58" d="M271 224c0 22-9 39-14 44-16 16-30 5-30 21-7 7-13 17-15 28l4 3c21-17 53-26 77-20 7 1 14 4 19 9-7-12-19-22-32-27-4-1-9-2-9-12 0-20 21-5 35-26 1-1 0-2-1-1-4 4-15 7-20 7l-8-1c5-10 12-19 12-19-13-13 9-84 66-84 0-17-1-30-4-39-1 0-12 3-12 1-1-2 8-7 11-8l-6-15c-49 16-40 57-52 57-7 0-14-6-16-9-29-29-15-49-15-88 0-26-11-36-30-36s-25 8-25 8 26 1 26 28c0 29-33 37-33 73 0 60 72 59 72 106ZM237 45l-1-9s6-1 6-8c0-5-4-9-5-9l-3 1c-4 0-5-6-5-6h2c13 0 24 4 24 31l-2 27-1 22s-22-2-22-19c0-10 7-13 7-30Zm-30 298-4-3c-4 7-6 14-5 20 8 24 29 42 55 44-25-7-43-33-46-61Zm-5-15-4-3a63 63 0 0 0-2 23l6-12v-8Zm1-4 2-4 3-2c2-11 7-20 14-28-10 8-19 19-23 31l4 3Zm92 56-16-3c-3-1-6-4-8-7a16 16 0 0 1-1-11c-19-6-40-14-54-22l-2 2-3 3c1 12 5 24 12 34 8 14 20 23 33 26 5 1 11 2 16 1 20-4 36-18 44-36h-3c-5 13-14 14-18 13Zm22-61c-3-7-12-13-25-16-24-5-55 4-74 20 1 3 0 7-1 10 14 8 35 16 55 22 4-10 13-12 20-11l10 3h3c3 1 6 3 7 6 2 2 3 6 2 10l4-1a63 63 0 0 0-1-43Zm-42 49c1 3 4 5 6 6l14 3c6 0 11-3 14-10l-7-1-1 4a2 2 0 1 1-3-2l1-2-4-1-1 4c-1 1-2 2-3 1l-1-2 1-4a420 420 0 0 1-3-1l-2 4a2 2 0 0 1-3-2l1-2-10-3c-1 3 0 6 1 8Zm35-5c1-4 0-6-1-8s-3-4-5-4l-3-1-10-2c-7-2-13 1-16 8l10 3v-4a2 2 0 0 1 4 0v5h1l2 1 1-5a2 2 0 1 1 4 0l-1 5 4 1v-4a2 2 0 0 1 4 0l-1 5h7Zm-98-43c-1 0-3 0-4 2a16 16 0 0 0-4 15l4 3 4-3c3-3 4-10 3-14l-3-3Z"/>
    <path fill="#fff" d="m162 397 10 6-1 4c-1-3-4-4-7-6l-12 17-5 8-3-3-4-2 7-8 11-16c-4-3-6-4-9-4l4-3 9 7Zm187 57-1 1 1 2 1 1h-1l-1-1-1-2-1 1v-1h1l2-1Zm-179-15c-8-4-9-13-5-22 4-8 12-13 20-9s9 13 5 21c-4 9-12 14-20 10Zm13-29c-5-2-9 4-12 10-3 7-5 14 0 16 5 3 10-3 13-10 3-6 5-13-1-16Zm24 7 10 2-1 5c-1-2-2-2-7-4l-6 20-2 9-4-1-4-1c2-1 3-7 4-9l6-19c-5-2-6-2-9-1l3-4 10 3Zm22 5 11 1v5c-2-2-3-2-8-3l-3 20c0 2-2 8-1 10l-4-1-4-1 2-9 3-20c-4-1-5-1-7 1l2-5 9 2Zm20 19v13c7 0 12 0 14-4l-1 7h-10l-11-1 2-9v-13l-1-11 9 1h10l1 5c-3-2-6-2-12-2v11h8l1 1-1 2h-9Zm39 4 2 9-2 1-3-2-16-18 1 12 1 9h-5v-22l-2-10h5l16 19-2-11-2-9 3-1h2l1 10 1 13Zm30-7 3 9-4 1-4 1c1-1-1-8-1-10l-2-6-10 3 1 6 3 9-4 1-5 1v-9l-3-13-2-10h4l4-1c-1 1 0 7 1 9l1 4 9-2-1-4c0-3-1-8-3-9l4-1 4-1 2 9 3 13Zm18-8-10 4 1 5v5l1 1-2 1h-3l1-4-1-25-1-3-1-1 4-2c2-1 3-1 5 1l14 18 7 6-5 2-4 2v-2l-3-4-3-4Zm-2-2-8-12v15l8-3Zm43-7-3 2-5-8-9-11 7 22-1 1h-4l-16-13 6 10 5 9-2 1-2 1-4-9-6-12-6-8 4-1 3-2 18 15-7-21 2-2 4-3 5 9 8 10c2 2 5 7 7 7l-4 3Zm-24 32v1l1 1-1 1v-1l-1-2 1 3h-1l-2-1 1 1 1 1h-1v-1l-1-1-1-1h1v-1l2 2-1-2 1-1 1 1Zm-161 7 4 2c-2 1-3 6-4 9l-5 12c-1 3-3 8-2 9l-4-1-4-2c2 0 4-7 4-9l2-5-10-5-3 7c-1 2-3 7-2 8l-5-2-3-2c2-1 3-4 5-8l5-11 3-10 4 2 4 2c-2 0-4 6-5 9l-2 3 10 4 2-4c0-2 3-7 2-9l4 1Zm12 38c-9-2-12-11-9-19 2-9 8-15 17-13s12 11 9 20c-2 8-9 14-17 12Zm8-29c-6-2-9 4-11 11s-2 14 3 16c6 1 9-5 11-12 1-7 2-14-3-15Zm15 32 1-2 2-7 2-19c-5-1-6 0-9 1l2-5 10 1 12 2v4c-2-2-4-2-8-2l-3 19v9h-4l-5-1Zm42-6c0 5-5 9-12 9-5 0-8-2-9-3l1-5c2 3 4 6 8 6 3 0 6-2 6-6 0-2-2-3-7-6-6-3-8-6-8-10 0-6 5-8 11-8l9 2-1 5c-3-4-5-5-8-5-2 0-4 1-4 4s3 5 8 8 6 6 6 9Zm26-18a12 12 0 0 1 0 4l-2 6c-2 2-5 3-9 4l-2-2v-1h1c1 0 3 0 4-2 1-1 2-4 1-6l-2-6-5-1h-2v1l2 19c0 2 0 8 2 9l-5 1h-4v-6l-1-16-2-9 11-1c4-1 7 0 10 2l3 4Zm29 7c2 6-1 12-8 14-5 1-12-1-14-9l-3-11-3-9 5-1 4-1c-1 1 0 6 1 10l3 13 2 5 4 1c1-1 3-1 3-3l1-5-4-13-3-9 4-1 4-2c-1 2 1 8 2 10l2 11Zm32-3h2l-1 2c-3 3-5 2-6 2-5-2-14-9-14-10h1l3-4v-6l-4-4h-5l-1 1v1l6 18 4 9-4 1-4 1-2-8-4-13-4-8 9-4c4-2 7-2 10-1 2 0 3 1 4 3l1 1 1 2-1 6-3 3s6 6 12 8Z"/>
</svg>
