<svg xmlns="http://www.w3.org/2000/svg" fill="none" viewBox="0 0 512 512">
    <g clip-path="url(#a)">
        <mask id="b" width="1245" height="1246" x="-368" y="-377" maskUnits="userSpaceOnUse" style="mask-type:luminance">
            <path fill="#fff" d="M-368 868H877V-376H-368V868Z"/>
        </mask>
        <g mask="url(#b)">
            <path fill="#2DAFE5" d="M484 19a1528 1528 0 0 0-456 0v190c0 161 93 251 224 299l4 1 4-1c130-48 224-138 224-299V19ZM256 247Z"/>
            <path fill="#7C2C3B" d="M468 35a1422 1422 0 0 0-424 0v180c0 149 87 233 209 278l3 1 3-1c122-45 209-129 209-278V35Z"/>
            <path fill="#D6A93A" d="M361 412c3 3 8 0 14-6 5-5 9-11 5-14L170 187c-3-3-9-3-13 1s-5 10-1 14l205 210Z"/>
            <path fill="#F8D742" d="m177 184 17-20s2-3-1-6c-6-8-20-19-20-19-2-2-3-2-5 1l-39 37c-2 2-3 4-2 7 0 4 2 10-1 16l-18 28c-2 4-3 7-1 8 1 1 3 2 8-1l34-25c5-3 8-7 8-7l15-14 5-5Z"/>
            <path fill="#D6A93A" d="m115 233-5 4 5-2 34-25 7-6c-4 1-9 3-12 6l-29 23Zm62-49 17-20v-4s-1-1-6 4l-10 11-5 13 4-4Zm-25 228c-4 3-9 0-14-6-6-5-9-11-6-14l210-205c3-3 9-3 14 1 4 4 4 10 1 14L152 412Z"/>
            <path fill="#F8D742" d="m150 410 196-202c3-3 3-9-1-13-2-2-5-3-8-3L132 392c-3 3 0 8 5 13s10 8 13 5Zm186-226-18-20s-1-3 1-6l20-20c2-1 3-1 6 1l39 38c2 2 2 4 2 7-1 4-3 10 1 16l18 28c2 4 3 7 1 8-1 1-3 2-8-1-2-2-27-18-35-25l-8-7-15-14-4-5Z"/>
            <path fill="#D6A93A" d="m398 233 4 4-4-2c-2-2-27-18-35-25l-7-6 12 5 30 24Zm-62-49-18-20v-4s2-1 7 4l9 11c3 4 5 9 6 13l-4-4Zm33 6h-6l-9-9a4 4 0 1 1 6-6l9 9v6Z"/>
            <path fill="#CDA938" d="M355 181a4 4 0 0 1 3-7l-4 1c-2 2-2 4 0 6l9 9 3 1-2-1-9-9Z"/>
            <path fill="#D6A93A" d="M359 184h-1v-1l5-4v1l-4 4Zm1 1c0 1 0 1 0 0 1 0 1 0 0 0Zm-2-2-1-1 1 1Zm3-6-1-1h-1v1l-3 4 4-3h1v-1Zm7 8c0-1 0-1 0 0l-3 1v-2l-1 1v-1l1-2v-1 1l-4 4v1h1l1-1h1l-1 2v1h1l4-4Z"/>
            <path fill="#F8D742" d="M176 193c-2 0-5 1-7 3-4 4-4 9-1 12l84 86 14-14-90-87Zm204 199L275 289a15 15 0 0 0-6 23l94 97c4 3 9 0 14-5l2-3c3-3 4-7 1-9Zm-21-208h-1v-1l4-4h1v1l-4 4Zm1 1c-1 0-1 0 0 0 0-1 0-1 0 0Zm-3-3c0 1 0 1 0 0 1 0 1 0 0 0Zm4-5-2-1c0-1 0-1 0 0v1l-4 3v1h1l4-4v1h1v-1Zm7 7h-1l-2 2v-2l-1 1h-1v-1l2-2v-1h-1l-3 5v1h1l1-1h1l-1 2c0 1 0 1 0 0l5-3v-1Z"/>
            <path fill="#D6A93A" d="M158 175c2 2 2 4 0 6l-8 9a4 4 0 1 1-6-6l9-9c1-2 4-2 5 0Z"/>
            <path fill="#CDA938" d="m145 185 8-9c2-2 4-2 6-1h-1c-1-2-4-2-5 0l-9 9a4 4 0 0 0 0 6c-1-2-1-4 1-5Z"/>
            <path fill="#D6A93A" d="M153 185v1h-1l-4-4 1-1 4 4Zm1-1v1h-1v-1h1Zm-3 3Zm-5-4-2 2v1h1v-1h1l3 4 1-1-4-3v-2Zm7-7v1l2 2h-2v2l-2-2-1 1 5 3c1 0 1 0 0 0v-2h2c0 1 0 1 0 0l-3-5h-1Z"/>
            <path fill="#F8D742" d="M153 185v1l-1-1-4-4h1l4 4Zm1-1Zm-3 2v1-1Zm-5-3-2 1v1h2l3 3h1l-4-4v-1Zm7-7 2 3h-2v1l-2-1h-1l5 4v-3l2 1v-1l-3-4h-1Z"/>
            <path fill="#fff" d="M173 125c-8 0-15-5-15-13l-1-23 9-1 1 23c0 4 2 6 6 5h1c4 0 7-2 7-6l-1-23h9l1 23c0 8-7 14-15 15h-2Zm23-39h10l14 23h1l-1-24h9l1 37h-11l-14-23 1 23-9 1-1-37Zm40-1h9v36l-9 1V85Zm27 8h-11v-8h32v8h-12v28h-9V93Zm28-8 24 1v8l-15-1-1 7h13v8h-13v6l16 1v8l-25-1 1-37Zm31 2h14c11 1 19 9 19 20 0 10-9 18-20 17l-14-1 1-36Zm13 29c6 1 10-3 11-10 0-7-4-11-10-11h-5l-1 21h5ZM81 44l12-2 6 31 8-32 10-1 7 31 7-33h12l-12 46-14 2-5-27-6 28-14 1-11-44Zm296-6 12 1 10 30 10-28 13 2 8 47-12-2-4-30-10 29-10-1-10-31-3 29-12-1 8-45Zm-230-1 31-2-1 10-19 1v8l16-1v10l-16 1v9l20-2v10l-31 2V37Zm84 6h-15v-9l40-1v10h-14v36h-11V43Zm44-10h11v19h20V34h11v46h-11V62l-20-1v18h-11V33Zm76 40-16-1-2 9-12-1 14-45 15 1 15 47-11-1-3-9Zm-8-27-5 17h10l-5-17ZM199 33c-8 1-18 6-18 15 0 15 22 11 23 19 0 2-2 4-5 4-6 0-10-1-15-4l-1 10c5 3 10 4 16 4 8 0 17-6 17-15 1-14-21-11-22-18-1-2 2-4 5-4 5-1 9 1 12 2l1-10c-3-1-7-3-13-3Z"/>
        </g>
        <path fill="#fff" d="m190 412 5 3-8 17 9 4-2 5-14-6 10-23Z"/>
        <mask id="c" width="1245" height="1246" x="-368" y="-377" maskUnits="userSpaceOnUse" style="mask-type:luminance">
            <path fill="#fff" d="M-368 868H877V-376H-368V868Z"/>
        </mask>
        <g fill="#fff" mask="url(#c)">
            <path d="M217 422c7 2 10 9 9 15-2 7-9 11-16 9s-11-9-9-15c2-7 8-11 16-9Zm-6 19c4 1 8-1 9-5s-1-8-5-9c-3-1-7 1-8 5s1 8 4 9Zm20-15 6 1 6 12 1 4 1-4 1-12 6 1-3 24h-6l-5-12-2-5v4l-1 12-6-1 2-24Zm25 2h9c7-1 12 3 13 11 0 8-4 13-12 13h-9l-1-24Zm9 19c4 0 7-3 7-8-1-4-3-7-7-6h-3l1 14h2Zm25-23c8-2 14 2 16 9 1 7-3 14-10 15-7 2-14-2-15-9-2-7 2-14 9-15Zm5 19c3-1 5-4 5-9-1-3-5-6-8-5-4 1-6 4-5 8s4 7 8 6Zm10-23 6-2 10 8 4 3-2-3-4-11 5-2 10 22-6 3-11-8-3-3 2 3 4 11-6 2-9-23Z"/>
        </g>
    </g>
    <defs>
        <clipPath id="a">
            <path fill="#fff" d="M0 0h461v512H0z" transform="translate(25)"/>
        </clipPath>
    </defs>
</svg>
