<svg xmlns="http://www.w3.org/2000/svg" fill="none" viewBox="0 0 512 512">
    <g clip-path="url(#a)">
        <g clip-path="url(#b)">
            <path fill="#fff" d="M130 26 2 248l128 222h256l128-222L386 26H130Z"/>
            <path fill="#000" d="m383 31 126 217-126 217H133L8 248 133 31h250Z"/>
            <path fill="#fff" d="M154 68 50 248l104 180h208l104-180L362 68H154Z"/>
            <path fill="#F6A800" d="m359 74 100 174-100 174H158L57 248 158 74h201Z"/>
            <path fill="#000" d="M229 166h58l31-79 85 172-91 54-30 96h-48l-29-96-92-54 85-172 31 79Z"/>
            <path fill="#fff" d="M318 229v46h-43l43-46Zm-120 46v-46l43 46h-43Z"/>
        </g>
    </g>
    <defs>
        <clipPath id="a">
            <path fill="#fff" d="M0 0h512v512H0z"/>
        </clipPath>
        <clipPath id="b">
            <path fill="#fff" d="M0 0h512v444H0z" transform="translate(2 26)"/>
        </clipPath>
    </defs>
</svg>
