<svg width="358" height="609" viewBox="0 0 358 609" fill="none" xmlns="http://www.w3.org/2000/svg">
<path d="M0 0L0 609H358L358 0H0Z" fill="url(#paint0_radial_237_1023)"/>
<path d="M0 531.527L0 609H358V531.527H0Z" fill="#00B050"/>
<path d="M0 376.58L0 454.053H358V376.58H0Z" fill="#00B050"/>
<path d="M0 221.633L0 299.106H358V221.633L0 221.633Z" fill="#00B050"/>
<path d="M0 66.588L0 144.061L358 144.061V66.588L0 66.588Z" fill="#00B050"/>
<path d="M7.6525 11.572L7.6525 299.106V301.754L7.6525 597.428V600.174H10.3995H348.974H351.721V597.428V301.754V299.008L351.721 11.572V8.82611H348.974H10.3995H7.6525V11.572ZM10.3995 586.837C15.1088 588.014 18.6407 592.329 18.6407 597.428H10.3995V586.837ZM140.394 510.344C152.265 503.185 165.706 499.36 179.638 499.36C193.667 499.36 207.108 503.185 218.881 510.344H140.394ZM128.719 513.972H230.654H288.735V595.565H233.205V556.044H126.168V595.565H70.6385V513.972H128.719ZM127.836 595.565V557.711H231.537V595.565H127.836ZM348.974 597.428H338.378C339.555 592.721 343.872 589.19 348.974 589.19V597.428ZM348.974 586.739C342.499 586.739 337.103 591.348 335.827 597.428H292.365V510.344H225.651C212.21 500.733 196.316 495.732 179.736 495.732C163.155 495.732 147.36 500.831 133.821 510.344H67.0085V597.428H21.0934C21.0934 590.956 16.4823 585.562 10.3995 584.287L10.3995 301.754H99.6788C99.6788 302.637 99.5807 303.617 99.5807 304.5C99.5807 348.238 135.194 383.837 178.951 383.837C222.708 383.837 258.321 348.238 258.321 304.5C258.321 303.617 258.321 302.637 258.223 301.754H348.876V586.739H348.974ZM182.679 299.106C182.189 298.028 181.011 297.243 179.736 297.243C178.46 297.243 177.283 298.028 176.793 299.106H103.505C106.35 259.879 139.119 228.89 179.049 228.89C218.979 228.89 251.748 259.977 254.593 299.106H182.679ZM176.793 301.754C177.283 302.833 178.46 303.617 179.736 303.617C181.011 303.617 182.189 302.833 182.679 301.754H254.691C254.691 302.637 254.789 303.617 254.789 304.5C254.789 346.277 220.844 380.208 179.049 380.208C137.255 380.208 103.309 346.277 103.309 304.5C103.309 303.617 103.309 302.637 103.407 301.754H176.793ZM348.974 299.106H258.223C255.378 257.918 220.942 225.163 179.049 225.163C137.058 225.163 102.72 257.82 99.875 299.106H10.3995L10.3995 22.2614C16.8747 22.2614 22.2707 17.6522 23.5462 11.572H66.3217V98.6561H133.134C146.575 108.267 162.469 113.268 179.049 113.268C195.629 113.268 211.425 108.169 224.964 98.6561H291.776L291.776 11.572H338.378C338.378 18.0444 342.989 23.4382 349.072 24.7131L349.072 299.106H348.974ZM218.293 98.6561C206.421 105.815 192.981 109.64 179.049 109.64C165.019 109.64 151.579 105.815 139.805 98.6561H218.293ZM229.968 95.0276H128.032H69.9518V13.4353H125.481V52.9565H232.617V13.4353H288.146L288.146 95.0276H229.968ZM230.851 13.4353V51.2894H127.149V13.4353H230.851ZM348.974 22.2614C344.265 21.0846 340.733 16.7696 340.733 11.6701H348.974V22.2614ZM20.9953 11.572C19.818 16.2792 15.5012 19.8097 10.3995 19.8097L10.3995 11.572H20.9953Z" fill="white"/>
<path d="M182.287 35.6966C182.287 33.9314 180.815 32.4604 179.049 32.4604C177.283 32.4604 175.811 33.9314 175.811 35.6966C175.811 37.4618 177.283 38.9328 179.049 38.9328C180.815 38.9328 182.287 37.4618 182.287 35.6966Z" fill="white"/>
<path d="M176.498 573.401C176.498 575.167 177.97 576.638 179.736 576.638C181.502 576.638 182.973 575.167 182.973 573.401C182.973 571.636 181.502 570.165 179.736 570.165C177.872 570.165 176.498 571.538 176.498 573.401Z" fill="white"/>
<defs>
<radialGradient id="paint0_radial_237_1023" cx="0" cy="0" r="1" gradientUnits="userSpaceOnUse" gradientTransform="translate(179.009 304.524) rotate(-90) scale(478.371 478.573)">
<stop stop-color="#009343"/>
<stop offset="0.1727" stop-color="#008C40"/>
<stop offset="0.4281" stop-color="#017837"/>
<stop offset="0.7332" stop-color="#03572A"/>
<stop offset="1" stop-color="#05351B"/>
</radialGradient>
</defs>
</svg>
